<svg width="941" height="745" viewBox="0 0 941 745" fill="none" xmlns="http://www.w3.org/2000/svg">
<path d="M129.938 57.1024L70.4585 568.355H879.819L812.606 55.9012C811.534 47.8683 803.147 41.7766 793.141 41.7981L149.35 42.8706C139.29 42.8277 130.882 49.0159 129.938 57.1024Z" fill="white" stroke="#B02785" stroke-width="3" stroke-miterlimit="10"/>
<path d="M812.402 61.6094L731.708 285.608C729.56 291.711 722.568 295.915 714.673 295.915H231.691C223.829 295.915 216.912 291.754 214.678 285.683L132.244 61.6952C128.871 52.5362 137.389 43.3343 149.246 43.3343H409.641C413.059 43.3343 416.338 41.9784 418.755 39.5648C421.172 37.1512 422.53 33.8778 422.53 30.4645V14.6346C422.53 11.2213 423.888 7.94786 426.305 5.53431C428.722 3.12075 432 1.76483 435.418 1.76483H622.304C625.723 1.76483 629.001 3.12075 631.418 5.53431C633.835 7.94786 635.193 11.2213 635.193 14.6346V30.4645C635.193 32.1546 635.526 33.8281 636.174 35.3895C636.822 36.951 637.771 38.3697 638.968 39.5648C641.385 41.9784 644.664 43.3343 648.082 43.3343H795.367C807.182 43.3343 815.689 52.4718 812.402 61.6094Z" fill="white" stroke="#B02785" stroke-width="3" stroke-miterlimit="10"/>
<g clip-path="url(#clip0_1465_30881)">
<path fill-rule="evenodd" clip-rule="evenodd" d="M455.728 17.2059C455.728 14.8763 457.58 12.9539 459.93 12.9539H472.728V14.9387H459.93C458.733 14.9387 457.729 15.9235 457.728 17.2032L457.728 17.2383C457.745 18.5036 458.743 19.4732 459.93 19.4732H473.728V33.7945H462.049C458.558 33.7478 455.791 30.8671 455.789 27.3641L455.728 17.256C455.728 17.2394 455.728 17.2227 455.728 17.2059ZM457.75 20.8452L457.789 27.361C457.789 29.8457 459.755 31.8097 462.135 31.8097H471.728V21.458H470.414V29.0733L467.234 25.8364L463.832 29.299V21.458H459.93C459.127 21.458 458.382 21.2336 457.75 20.8452ZM465.832 21.458V24.4201L467.234 22.9932L468.414 24.1944V21.458H465.832ZM459.93 16.2135H472.728V18.1984H459.93V16.2135Z" fill="#B02785"/>
</g>
<path d="M534.827 28.8742V23.0822C534.827 22.3355 535.04 21.7489 535.467 21.3222C535.893 20.8955 536.485 20.6822 537.243 20.6822H539.627V22.6982H537.851C537.701 22.6982 537.573 22.7515 537.467 22.8582C537.36 22.9542 537.307 23.0822 537.307 23.2422V28.8742H534.827ZM545.022 28.8742C544.094 28.8742 543.278 28.7035 542.574 28.3622C541.87 28.0102 541.321 27.5302 540.926 26.9222C540.542 26.3035 540.35 25.5889 540.35 24.7782C540.35 23.8822 540.537 23.1142 540.91 22.4742C541.284 21.8342 541.78 21.3435 542.398 21.0022C543.028 20.6502 543.721 20.4742 544.478 20.4742C545.342 20.4742 546.062 20.6555 546.638 21.0182C547.225 21.3809 547.668 21.8769 547.966 22.5062C548.265 23.1249 548.414 23.8342 548.414 24.6342C548.414 24.7729 548.404 24.9382 548.382 25.1302C548.372 25.3115 548.356 25.4555 548.334 25.5622H542.958C543.022 25.8395 543.145 26.0742 543.326 26.2662C543.508 26.4582 543.737 26.6022 544.014 26.6982C544.292 26.7835 544.601 26.8262 544.942 26.8262H547.454V28.8742H545.022ZM542.894 24.0102H546.014C545.993 23.8395 545.961 23.6742 545.918 23.5142C545.876 23.3542 545.806 23.2155 545.71 23.0982C545.625 22.9702 545.524 22.8635 545.406 22.7782C545.289 22.6822 545.15 22.6075 544.99 22.5542C544.841 22.5009 544.67 22.4742 544.478 22.4742C544.233 22.4742 544.014 22.5169 543.822 22.6022C543.63 22.6875 543.47 22.8049 543.342 22.9542C543.214 23.0929 543.113 23.2582 543.038 23.4502C542.974 23.6315 542.926 23.8182 542.894 24.0102ZM553.891 28.8742C553.038 28.8742 552.281 28.6982 551.619 28.3462C550.958 27.9835 550.435 27.4982 550.051 26.8902C549.667 26.2715 549.475 25.5675 549.475 24.7782C549.475 23.9889 549.667 23.2902 550.051 22.6822C550.435 22.0635 550.958 21.5729 551.619 21.2102C552.281 20.8475 553.038 20.6662 553.891 20.6662H555.123V22.7622H553.987C553.571 22.7622 553.214 22.8529 552.915 23.0342C552.617 23.2049 552.382 23.4449 552.211 23.7542C552.051 24.0529 551.971 24.3942 551.971 24.7782C551.971 25.1622 552.051 25.5089 552.211 25.8182C552.382 26.1169 552.617 26.3569 552.915 26.5382C553.214 26.7089 553.571 26.7942 553.987 26.7942H555.123V28.8742H553.891ZM560.596 29.0662C559.753 29.0662 559.023 28.9062 558.404 28.5862C557.796 28.2555 557.327 27.8129 556.996 27.2582C556.665 26.6929 556.5 26.0689 556.5 25.3862V20.6662H558.98V25.3222C558.98 25.6102 559.049 25.8769 559.188 26.1222C559.327 26.3569 559.513 26.5489 559.748 26.6982C559.993 26.8369 560.271 26.9062 560.58 26.9062C560.879 26.9062 561.145 26.8369 561.38 26.6982C561.625 26.5489 561.817 26.3569 561.956 26.1222C562.095 25.8769 562.164 25.6102 562.164 25.3222V20.6662H564.644V25.3862C564.644 26.0689 564.484 26.6929 564.164 27.2582C563.844 27.8129 563.38 28.2555 562.772 28.5862C562.175 28.9062 561.449 29.0662 560.596 29.0662ZM566.436 28.8742V23.0822C566.436 22.3355 566.649 21.7489 567.076 21.3222C567.503 20.8955 568.095 20.6822 568.852 20.6822H571.236V22.6982H569.46C569.311 22.6982 569.183 22.7515 569.076 22.8582C568.969 22.9542 568.916 23.0822 568.916 23.2422V28.8742H566.436ZM572.36 28.8742V26.9062H576.312C576.418 26.9062 576.514 26.8849 576.6 26.8422C576.685 26.7889 576.754 26.7195 576.808 26.6342C576.861 26.5489 576.888 26.4582 576.888 26.3622C576.888 26.2555 576.861 26.1595 576.808 26.0742C576.754 25.9889 576.685 25.9249 576.6 25.8822C576.514 25.8289 576.418 25.8022 576.312 25.8022H574.872C574.338 25.8022 573.853 25.7169 573.416 25.5462C572.989 25.3649 572.648 25.0875 572.392 24.7142C572.146 24.3302 572.024 23.8342 572.024 23.2262C572.024 22.7569 572.136 22.3302 572.36 21.9462C572.594 21.5622 572.909 21.2529 573.304 21.0182C573.709 20.7835 574.152 20.6662 574.632 20.6662H578.584V22.6502H575.016C574.866 22.6502 574.738 22.6982 574.632 22.7942C574.536 22.8902 574.488 23.0075 574.488 23.1462C574.488 23.2955 574.536 23.4235 574.632 23.5302C574.738 23.6262 574.866 23.6742 575.016 23.6742H576.424C577.021 23.6742 577.533 23.7649 577.96 23.9462C578.397 24.1169 578.733 24.3942 578.968 24.7782C579.213 25.1622 579.336 25.6582 579.336 26.2662C579.336 26.7462 579.213 27.1835 578.968 27.5782C578.733 27.9729 578.413 28.2875 578.008 28.5222C577.613 28.7569 577.165 28.8742 576.664 28.8742H572.36ZM584.892 29.0662C584.049 29.0662 583.292 28.8795 582.62 28.5062C581.948 28.1329 581.415 27.6209 581.02 26.9702C580.636 26.3195 580.444 25.5889 580.444 24.7782C580.444 23.9569 580.636 23.2262 581.02 22.5862C581.415 21.9355 581.948 21.4235 582.62 21.0502C583.292 20.6662 584.049 20.4742 584.892 20.4742C585.735 20.4742 586.487 20.6662 587.148 21.0502C587.82 21.4235 588.348 21.9355 588.732 22.5862C589.127 23.2262 589.324 23.9569 589.324 24.7782C589.324 25.5889 589.127 26.3195 588.732 26.9702C588.348 27.6209 587.82 28.1329 587.148 28.5062C586.476 28.8795 585.724 29.0662 584.892 29.0662ZM584.892 26.9062C585.287 26.9062 585.628 26.8102 585.916 26.6182C586.204 26.4262 586.428 26.1702 586.588 25.8502C586.748 25.5302 586.828 25.1675 586.828 24.7622C586.828 24.3675 586.748 24.0102 586.588 23.6902C586.428 23.3702 586.204 23.1142 585.916 22.9222C585.628 22.7302 585.287 22.6342 584.892 22.6342C584.497 22.6342 584.151 22.7302 583.852 22.9222C583.564 23.1142 583.34 23.3702 583.18 23.6902C583.02 24.0102 582.94 24.3675 582.94 24.7622C582.94 25.1675 583.02 25.5302 583.18 25.8502C583.34 26.1702 583.564 26.4262 583.852 26.6182C584.151 26.8102 584.497 26.9062 584.892 26.9062ZM590.813 28.8742V26.9062H594.765C594.872 26.9062 594.968 26.8849 595.053 26.8422C595.138 26.7889 595.208 26.7195 595.261 26.6342C595.314 26.5489 595.341 26.4582 595.341 26.3622C595.341 26.2555 595.314 26.1595 595.261 26.0742C595.208 25.9889 595.138 25.9249 595.053 25.8822C594.968 25.8289 594.872 25.8022 594.765 25.8022H593.325C592.792 25.8022 592.306 25.7169 591.869 25.5462C591.442 25.3649 591.101 25.0875 590.845 24.7142C590.6 24.3302 590.477 23.8342 590.477 23.2262C590.477 22.7569 590.589 22.3302 590.813 21.9462C591.048 21.5622 591.362 21.2529 591.757 21.0182C592.162 20.7835 592.605 20.6662 593.085 20.6662H597.037V22.6502H593.469C593.32 22.6502 593.192 22.6982 593.085 22.7942C592.989 22.8902 592.941 23.0075 592.941 23.1462C592.941 23.2955 592.989 23.4235 593.085 23.5302C593.192 23.6262 593.32 23.6742 593.469 23.6742H594.877C595.474 23.6742 595.986 23.7649 596.413 23.9462C596.85 24.1169 597.186 24.3942 597.421 24.7782C597.666 25.1622 597.789 25.6582 597.789 26.2662C597.789 26.7462 597.666 27.1835 597.421 27.5782C597.186 27.9729 596.866 28.2875 596.461 28.5222C596.066 28.7569 595.618 28.8742 595.117 28.8742H590.813Z" fill="#B02785"/>
<path d="M823.133 173.333L737.935 405.183C735.629 411.457 728.487 415.768 720.368 415.768H221.234C213.083 415.768 205.908 411.478 203.635 405.097L120.238 173.248C116.839 163.788 125.601 154.329 137.849 154.329H295.911C299.324 154.329 302.598 152.973 305.012 150.559C307.425 148.146 308.781 144.872 308.781 141.459V123.634C308.781 120.221 310.137 116.948 312.55 114.534C314.964 112.121 318.237 110.765 321.651 110.765H508.263C511.676 110.765 514.95 112.121 517.363 114.534C519.777 116.948 521.133 120.221 521.133 123.634V141.459C521.133 144.872 522.489 148.146 524.902 150.559C527.316 152.973 530.589 154.329 534.002 154.329H805.555C817.814 154.329 826.619 163.874 823.133 173.333Z" fill="white" stroke="#B02785" stroke-width="3" stroke-miterlimit="10"/>
<g clip-path="url(#clip1_1465_30881)">
<path fill-rule="evenodd" clip-rule="evenodd" d="M345.156 131.661C345.722 126.674 349.957 122.792 355.091 122.792C360.617 122.792 365.091 127.266 365.091 132.792C365.091 137.926 361.209 142.161 356.222 142.726L356.215 142.727C355.859 142.765 355.479 142.792 355.091 142.792C354.702 142.792 354.322 142.765 353.966 142.727L353.959 142.726C349.34 142.2 345.683 138.543 345.156 133.924L345.155 133.917C345.117 133.561 345.091 133.181 345.091 132.792C345.091 132.403 345.117 132.023 345.155 131.667L345.156 131.661ZM347.248 131.895C347.216 132.197 347.196 132.499 347.196 132.792C347.196 133.085 347.216 133.386 347.248 133.689C347.665 137.331 350.551 140.218 354.194 140.634C354.496 140.667 354.798 140.687 355.091 140.687C355.384 140.687 355.685 140.667 355.988 140.634C359.923 140.186 362.985 136.84 362.985 132.792C362.985 128.429 359.454 124.897 355.091 124.897C351.043 124.897 347.696 127.96 347.248 131.895ZM352.201 126.771H358.003V129.891H361.123V135.575H357.992V138.919H352.19V135.575H348.964V129.891H352.201V126.771ZM354.307 128.876V131.996H351.069V133.47H354.295V136.813H355.886V133.47H359.018V131.996H355.898V128.876H354.307Z" fill="#B02785"/>
</g>
<path d="M432.051 137.792C431.197 137.792 430.44 137.616 429.779 137.264C429.117 136.901 428.595 136.416 428.211 135.808C427.827 135.189 427.635 134.485 427.635 133.696C427.635 132.907 427.827 132.208 428.211 131.6C428.595 130.981 429.117 130.491 429.779 130.128C430.44 129.765 431.197 129.584 432.051 129.584H433.283V131.68H432.147C431.731 131.68 431.373 131.771 431.075 131.952C430.776 132.123 430.541 132.363 430.371 132.672C430.211 132.971 430.131 133.312 430.131 133.696C430.131 134.08 430.211 134.427 430.371 134.736C430.541 135.035 430.776 135.275 431.075 135.456C431.373 135.627 431.731 135.712 432.147 135.712H433.283V137.792H432.051ZM434.659 137.792V129.584H437.155V137.792H434.659ZM435.907 128.656C435.513 128.656 435.171 128.512 434.883 128.224C434.595 127.936 434.451 127.595 434.451 127.2C434.451 126.805 434.595 126.464 434.883 126.176C435.171 125.877 435.513 125.728 435.907 125.728C436.302 125.728 436.643 125.877 436.931 126.176C437.219 126.464 437.363 126.805 437.363 127.2C437.363 127.595 437.219 127.936 436.931 128.224C436.643 128.512 436.302 128.656 435.907 128.656ZM438.908 137.792V132C438.908 131.253 439.121 130.667 439.548 130.24C439.974 129.813 440.566 129.6 441.324 129.6H443.708V131.616H441.932C441.782 131.616 441.654 131.669 441.548 131.776C441.441 131.872 441.388 132 441.388 132.16V137.792H438.908ZM448.911 137.984C448.069 137.984 447.338 137.824 446.719 137.504C446.111 137.173 445.642 136.731 445.311 136.176C444.981 135.611 444.815 134.987 444.815 134.304V129.584H447.295V134.24C447.295 134.528 447.365 134.795 447.503 135.04C447.642 135.275 447.829 135.467 448.063 135.616C448.309 135.755 448.586 135.824 448.895 135.824C449.194 135.824 449.461 135.755 449.695 135.616C449.941 135.467 450.133 135.275 450.271 135.04C450.41 134.795 450.479 134.528 450.479 134.24V129.584H452.959V134.304C452.959 134.987 452.799 135.611 452.479 136.176C452.159 136.731 451.695 137.173 451.087 137.504C450.49 137.824 449.765 137.984 448.911 137.984ZM456.063 141.04V138.912H460.159C460.319 138.912 460.453 138.859 460.559 138.752C460.666 138.656 460.719 138.533 460.719 138.384V136.576H460.671C460.458 136.821 460.229 137.029 459.983 137.2C459.749 137.371 459.482 137.499 459.183 137.584C458.895 137.669 458.57 137.712 458.207 137.712C457.482 137.712 456.831 137.541 456.255 137.2C455.69 136.848 455.242 136.363 454.911 135.744C454.591 135.125 454.431 134.421 454.431 133.632C454.431 132.853 454.597 132.144 454.927 131.504C455.269 130.864 455.765 130.352 456.415 129.968C457.066 129.584 457.861 129.392 458.799 129.392C459.695 129.392 460.469 129.579 461.119 129.952C461.781 130.315 462.293 130.832 462.655 131.504C463.018 132.165 463.199 132.944 463.199 133.84V138.64C463.199 139.376 462.981 139.957 462.543 140.384C462.117 140.821 461.525 141.04 460.767 141.04H456.063ZM458.815 135.632C459.199 135.632 459.53 135.547 459.807 135.376C460.085 135.195 460.298 134.955 460.447 134.656C460.597 134.357 460.671 134.027 460.671 133.664C460.671 133.28 460.597 132.928 460.447 132.608C460.298 132.288 460.085 132.037 459.807 131.856C459.53 131.664 459.199 131.568 458.815 131.568C458.442 131.568 458.111 131.659 457.823 131.84C457.546 132.021 457.333 132.267 457.183 132.576C457.034 132.885 456.959 133.232 456.959 133.616C456.959 133.989 457.034 134.331 457.183 134.64C457.333 134.939 457.546 135.179 457.823 135.36C458.111 135.541 458.442 135.632 458.815 135.632ZM464.987 137.792V129.584H467.483V137.792H464.987ZM464.939 128.416L466.331 126.384H468.539L467.147 128.416H464.939ZM472.596 137.984C471.87 137.984 471.23 137.797 470.676 137.424C470.121 137.051 469.689 136.549 469.38 135.92C469.07 135.28 468.916 134.56 468.916 133.76C468.916 132.928 469.097 132.187 469.46 131.536C469.822 130.875 470.334 130.352 470.996 129.968C471.668 129.584 472.457 129.392 473.364 129.392C474.281 129.392 475.06 129.584 475.7 129.968C476.35 130.341 476.846 130.859 477.188 131.52C477.54 132.171 477.716 132.901 477.716 133.712V137.792H475.284V136.48H475.22C475.07 136.768 474.878 137.029 474.644 137.264C474.409 137.488 474.121 137.664 473.78 137.792C473.449 137.92 473.054 137.984 472.596 137.984ZM473.332 135.84C473.705 135.84 474.03 135.749 474.308 135.568C474.596 135.376 474.814 135.115 474.964 134.784C475.113 134.453 475.188 134.085 475.188 133.68C475.188 133.285 475.113 132.928 474.964 132.608C474.814 132.288 474.596 132.037 474.308 131.856C474.03 131.664 473.705 131.568 473.332 131.568C472.948 131.568 472.612 131.664 472.324 131.856C472.036 132.037 471.817 132.288 471.668 132.608C471.518 132.928 471.444 133.285 471.444 133.68C471.444 134.085 471.518 134.453 471.668 134.784C471.817 135.115 472.036 135.376 472.324 135.568C472.612 135.749 472.948 135.84 473.332 135.84ZM479.566 137.792V135.824H483.518C483.624 135.824 483.72 135.803 483.806 135.76C483.891 135.707 483.96 135.637 484.014 135.552C484.067 135.467 484.094 135.376 484.094 135.28C484.094 135.173 484.067 135.077 484.014 134.992C483.96 134.907 483.891 134.843 483.806 134.8C483.72 134.747 483.624 134.72 483.518 134.72H482.078C481.544 134.72 481.059 134.635 480.622 134.464C480.195 134.283 479.854 134.005 479.598 133.632C479.352 133.248 479.23 132.752 479.23 132.144C479.23 131.675 479.342 131.248 479.566 130.864C479.8 130.48 480.115 130.171 480.51 129.936C480.915 129.701 481.358 129.584 481.838 129.584H485.79V131.568H482.222C482.072 131.568 481.944 131.616 481.838 131.712C481.742 131.808 481.694 131.925 481.694 132.064C481.694 132.213 481.742 132.341 481.838 132.448C481.944 132.544 482.072 132.592 482.222 132.592H483.63C484.227 132.592 484.739 132.683 485.166 132.864C485.603 133.035 485.939 133.312 486.174 133.696C486.419 134.08 486.542 134.576 486.542 135.184C486.542 135.664 486.419 136.101 486.174 136.496C485.939 136.891 485.619 137.205 485.214 137.44C484.819 137.675 484.371 137.792 483.87 137.792H479.566Z" fill="#B02785"/>
<path d="M840.483 283.88L751.617 525.715C749.204 532.267 741.75 536.761 733.278 536.761H212.619C204.114 536.761 196.629 532.225 194.258 525.629L107.269 283.794C103.719 273.928 112.9 264.029 125.684 264.029H416.391C419.804 264.029 423.078 262.673 425.491 260.259C427.905 257.846 429.261 254.572 429.261 251.159V233.634C429.261 230.221 430.617 226.948 433.03 224.534C435.444 222.121 438.717 220.765 442.131 220.765H628.743C632.156 220.765 635.429 222.121 637.843 224.534C640.256 226.948 641.612 230.221 641.612 233.634V251.159C641.612 254.572 642.968 257.846 645.382 260.259C647.795 262.673 651.069 264.029 654.482 264.029H822.154C834.938 264.029 844.119 273.992 840.483 283.88Z" fill="white" stroke="#B02785" stroke-width="3" stroke-miterlimit="10"/>
<g clip-path="url(#clip2_1465_30881)">
<path fill-rule="evenodd" clip-rule="evenodd" d="M477.098 230.916L484.525 238.328L481.467 241.269L479.78 239.586L479.14 240.225L481.792 242.872L480.486 244.183L479.265 242.964L472.797 249.419C471.193 251.02 468.671 251.128 466.944 249.742L464.86 251.916L463.525 250.634L465.668 248.398C464.495 246.688 464.67 244.342 466.194 242.822L472.658 236.37L471.314 235.029L472.621 233.718L475.339 236.431L475.979 235.792L474.107 233.923L477.098 230.916ZM477.289 237.099L476.649 237.738L477.83 238.917L478.471 238.278L477.289 237.099ZM473.968 237.677L467.5 244.133C466.504 245.127 466.504 246.725 467.5 247.719L467.89 248.108C468.888 249.104 470.493 249.104 471.49 248.108L472.018 247.582L469.69 245.249L470.999 243.941L473.328 246.275L474.312 245.292L471.981 242.965L473.287 241.654L475.622 243.984L477.955 241.656L473.968 237.677ZM477.103 233.536L476.722 233.919L481.491 238.678L481.88 238.304L477.103 233.536Z" fill="#B02785"/>
</g>
<path d="M519.461 246.916C518.703 246.916 518.111 246.703 517.685 246.276C517.258 245.839 517.045 245.252 517.045 244.516V236.708H519.541V244.372C519.541 244.5 519.583 244.612 519.669 244.708C519.765 244.793 519.877 244.836 520.005 244.836H521.797V246.916H519.461ZM515.701 240.74V238.708H521.797V240.74H515.701ZM524.528 247.108C524.101 247.108 523.733 246.959 523.424 246.66C523.125 246.351 522.976 245.988 522.976 245.572C522.976 245.145 523.125 244.783 523.424 244.484C523.733 244.175 524.101 244.02 524.528 244.02C524.944 244.02 525.301 244.175 525.6 244.484C525.909 244.783 526.064 245.145 526.064 245.572C526.064 245.849 525.995 246.105 525.856 246.34C525.717 246.575 525.531 246.761 525.296 246.9C525.072 247.039 524.816 247.108 524.528 247.108ZM531.812 246.916V235.236H534.292V239.252C534.612 238.996 534.964 238.809 535.348 238.692C535.732 238.575 536.116 238.516 536.5 238.516C537.247 238.516 537.876 238.676 538.388 238.996C538.911 239.316 539.3 239.753 539.556 240.308C539.823 240.863 539.956 241.492 539.956 242.196V246.916H537.476V242.292C537.476 241.983 537.401 241.711 537.252 241.476C537.113 241.231 536.921 241.039 536.676 240.9C536.441 240.751 536.18 240.676 535.892 240.676C535.604 240.676 535.337 240.745 535.092 240.884C534.847 241.023 534.649 241.209 534.5 241.444C534.361 241.679 534.292 241.945 534.292 242.244V246.916H531.812ZM545.876 247.108C545.033 247.108 544.276 246.921 543.604 246.548C542.932 246.175 542.399 245.663 542.004 245.012C541.62 244.361 541.428 243.631 541.428 242.82C541.428 241.999 541.62 241.268 542.004 240.628C542.399 239.977 542.932 239.465 543.604 239.092C544.276 238.708 545.033 238.516 545.876 238.516C546.719 238.516 547.471 238.708 548.132 239.092C548.804 239.465 549.332 239.977 549.716 240.628C550.111 241.268 550.308 241.999 550.308 242.82C550.308 243.631 550.111 244.361 549.716 245.012C549.332 245.663 548.804 246.175 548.132 246.548C547.46 246.921 546.708 247.108 545.876 247.108ZM545.876 244.948C546.271 244.948 546.612 244.852 546.9 244.66C547.188 244.468 547.412 244.212 547.572 243.892C547.732 243.572 547.812 243.209 547.812 242.804C547.812 242.409 547.732 242.052 547.572 241.732C547.412 241.412 547.188 241.156 546.9 240.964C546.612 240.772 546.271 240.676 545.876 240.676C545.481 240.676 545.135 240.772 544.836 240.964C544.548 241.156 544.324 241.412 544.164 241.732C544.004 242.052 543.924 242.409 543.924 242.804C543.924 243.209 544.004 243.572 544.164 243.892C544.324 244.212 544.548 244.468 544.836 244.66C545.135 244.852 545.481 244.948 545.876 244.948ZM551.717 246.916V241.124C551.717 240.377 551.93 239.791 552.357 239.364C552.783 238.937 553.375 238.724 554.133 238.724H556.517V240.74H554.741C554.591 240.74 554.463 240.793 554.357 240.9C554.25 240.996 554.197 241.124 554.197 241.284V246.916H551.717ZM557.625 246.916V242.068C557.625 241.396 557.779 240.793 558.089 240.26C558.409 239.716 558.862 239.289 559.449 238.98C560.035 238.671 560.734 238.516 561.545 238.516C561.95 238.516 562.323 238.564 562.665 238.66C563.006 238.745 563.315 238.868 563.593 239.028C563.881 239.177 564.126 239.359 564.329 239.572H564.361C564.574 239.359 564.819 239.177 565.097 239.028C565.385 238.868 565.699 238.745 566.041 238.66C566.393 238.564 566.771 238.516 567.177 238.516C567.987 238.516 568.686 238.671 569.273 238.98C569.859 239.289 570.313 239.716 570.633 240.26C570.953 240.793 571.113 241.396 571.113 242.068V246.916H568.617V242.148C568.617 241.881 568.547 241.641 568.409 241.428C568.281 241.204 568.105 241.023 567.881 240.884C567.657 240.745 567.401 240.676 567.113 240.676C566.825 240.676 566.563 240.745 566.329 240.884C566.105 241.023 565.929 241.204 565.801 241.428C565.673 241.641 565.609 241.881 565.609 242.148V246.916H563.129V242.148C563.129 241.881 563.059 241.641 562.921 241.428C562.793 241.204 562.611 241.023 562.377 240.884C562.153 240.745 561.897 240.676 561.609 240.676C561.321 240.676 561.059 240.745 560.825 240.884C560.601 241.023 560.425 241.204 560.297 241.428C560.169 241.641 560.105 241.881 560.105 242.148V246.916H557.625ZM577.017 247.108C576.174 247.108 575.417 246.921 574.745 246.548C574.073 246.175 573.539 245.663 573.145 245.012C572.761 244.361 572.569 243.631 572.569 242.82C572.569 241.999 572.761 241.268 573.145 240.628C573.539 239.977 574.073 239.465 574.745 239.092C575.417 238.708 576.174 238.516 577.017 238.516C577.859 238.516 578.611 238.708 579.273 239.092C579.945 239.465 580.473 239.977 580.857 240.628C581.251 241.268 581.449 241.999 581.449 242.82C581.449 243.631 581.251 244.361 580.857 245.012C580.473 245.663 579.945 246.175 579.273 246.548C578.601 246.921 577.849 247.108 577.017 247.108ZM577.017 244.948C577.411 244.948 577.753 244.852 578.041 244.66C578.329 244.468 578.553 244.212 578.713 243.892C578.873 243.572 578.953 243.209 578.953 242.804C578.953 242.409 578.873 242.052 578.713 241.732C578.553 241.412 578.329 241.156 578.041 240.964C577.753 240.772 577.411 240.676 577.017 240.676C576.622 240.676 576.275 240.772 575.977 240.964C575.689 241.156 575.465 241.412 575.305 241.732C575.145 242.052 575.065 242.409 575.065 242.804C575.065 243.209 575.145 243.572 575.305 243.892C575.465 244.212 575.689 244.468 575.977 244.66C576.275 244.852 576.622 244.948 577.017 244.948ZM582.921 246.916V242.196C582.921 241.513 583.087 240.895 583.417 240.34C583.748 239.785 584.217 239.343 584.825 239.012C585.444 238.681 586.175 238.516 587.017 238.516C587.871 238.516 588.596 238.681 589.193 239.012C589.801 239.343 590.265 239.785 590.585 240.34C590.905 240.895 591.065 241.513 591.065 242.196V246.916H588.585V242.26C588.585 241.972 588.516 241.711 588.377 241.476C588.239 241.231 588.047 241.039 587.801 240.9C587.567 240.751 587.3 240.676 587.001 240.676C586.692 240.676 586.415 240.751 586.169 240.9C585.935 241.039 585.748 241.231 585.609 241.476C585.471 241.711 585.401 241.972 585.401 242.26V246.916H582.921ZM596.217 247.108C595.492 247.108 594.852 246.921 594.297 246.548C593.743 246.175 593.311 245.673 593.001 245.044C592.692 244.404 592.537 243.684 592.537 242.884C592.537 242.052 592.719 241.311 593.081 240.66C593.444 239.999 593.956 239.476 594.617 239.092C595.289 238.708 596.079 238.516 596.985 238.516C597.903 238.516 598.681 238.708 599.321 239.092C599.972 239.465 600.468 239.983 600.809 240.644C601.161 241.295 601.337 242.025 601.337 242.836V246.916H598.905V245.604H598.841C598.692 245.892 598.5 246.153 598.265 246.388C598.031 246.612 597.743 246.788 597.401 246.916C597.071 247.044 596.676 247.108 596.217 247.108ZM596.953 244.964C597.327 244.964 597.652 244.873 597.929 244.692C598.217 244.5 598.436 244.239 598.585 243.908C598.735 243.577 598.809 243.209 598.809 242.804C598.809 242.409 598.735 242.052 598.585 241.732C598.436 241.412 598.217 241.161 597.929 240.98C597.652 240.788 597.327 240.692 596.953 240.692C596.569 240.692 596.233 240.788 595.945 240.98C595.657 241.161 595.439 241.412 595.289 241.732C595.14 242.052 595.065 242.409 595.065 242.804C595.065 243.209 595.14 243.577 595.289 243.908C595.439 244.239 595.657 244.5 595.945 244.692C596.233 244.873 596.569 244.964 596.953 244.964ZM603.171 246.916V235.236H605.651V246.916H603.171Z" fill="#B02785"/>
<path d="M856.871 402.784L764.445 654.281C761.946 661.102 754.181 665.767 745.376 665.767H203.868C195.02 665.767 187.234 661.048 184.767 654.195L94.3034 402.687C90.6033 392.424 100.148 382.171 113.394 382.171H145.783C149.196 382.171 152.469 380.815 154.883 378.401C157.296 375.988 158.652 372.714 158.652 369.301V352.634C158.652 349.221 160.008 345.948 162.422 343.534C164.835 341.121 168.109 339.765 171.522 339.765H412.831C416.244 339.765 419.518 341.121 421.931 343.534C424.345 345.948 425.701 349.221 425.701 352.634V369.354C425.701 372.768 427.057 376.041 429.47 378.455C431.884 380.868 435.157 382.224 438.571 382.224H837.802C851.101 382.171 860.657 392.499 856.871 402.784Z" fill="white" stroke="#B02785" stroke-width="3" stroke-miterlimit="10"/>
<g clip-path="url(#clip3_1465_30881)">
<path fill-rule="evenodd" clip-rule="evenodd" d="M212.968 352.08C212.968 352.08 212.968 352.08 212.968 352.08L211.586 353.463L215.797 357.674L216.963 356.507C217.335 356.141 217.335 355.539 216.963 355.173L216.957 355.167L213.87 352.08C213.624 351.834 213.214 351.834 212.968 352.08ZM214.318 359.153L212.961 357.797L204.715 366.043L206.072 367.4L214.318 359.153ZM204.408 368.695L200.569 364.856C200.569 364.891 200.569 364.927 200.569 364.963C200.57 365.499 200.569 366.21 200.569 366.918C200.568 367.554 200.567 368.189 200.566 368.695H204.408ZM198.479 369.743L198.481 368.86C198.482 368.331 198.483 367.624 198.484 366.916C198.485 366.208 198.485 365.499 198.484 364.966C198.484 364.699 198.484 364.477 198.483 364.321C198.483 364.292 198.482 364.265 198.482 364.241L198.327 363.776L211.498 350.59C212.557 349.531 214.28 349.53 215.339 350.59L218.424 353.674C219.628 354.863 219.628 356.817 218.424 358.006L205.636 370.795H198.477L198.479 369.743ZM201.866 363.194L203.236 364.564L211.482 356.317L210.108 354.943L201.866 363.194Z" fill="#B02785"/>
</g>
<path d="M267.287 365.795C266.434 365.795 265.676 365.619 265.015 365.267C264.354 364.905 263.831 364.419 263.447 363.811C263.063 363.193 262.871 362.489 262.871 361.699C262.871 360.91 263.063 360.211 263.447 359.603C263.831 358.985 264.354 358.494 265.015 358.131C265.676 357.769 266.434 357.587 267.287 357.587H268.519V359.683H267.383C266.967 359.683 266.61 359.774 266.311 359.955C266.012 360.126 265.778 360.366 265.607 360.675C265.447 360.974 265.367 361.315 265.367 361.699C265.367 362.083 265.447 362.43 265.607 362.739C265.778 363.038 266.012 363.278 266.311 363.459C266.61 363.63 266.967 363.715 267.383 363.715H268.519V365.795H267.287ZM273.192 365.987C272.466 365.987 271.826 365.801 271.272 365.427C270.717 365.054 270.285 364.553 269.976 363.923C269.666 363.283 269.512 362.563 269.512 361.763C269.512 360.931 269.693 360.19 270.056 359.539C270.418 358.878 270.93 358.355 271.592 357.971C272.264 357.587 273.053 357.395 273.96 357.395C274.877 357.395 275.656 357.587 276.296 357.971C276.946 358.345 277.442 358.862 277.784 359.523C278.136 360.174 278.312 360.905 278.312 361.715V365.795H275.88V364.483H275.816C275.666 364.771 275.474 365.033 275.24 365.267C275.005 365.491 274.717 365.667 274.376 365.795C274.045 365.923 273.65 365.987 273.192 365.987ZM273.928 363.843C274.301 363.843 274.626 363.753 274.904 363.571C275.192 363.379 275.41 363.118 275.56 362.787C275.709 362.457 275.784 362.089 275.784 361.683C275.784 361.289 275.709 360.931 275.56 360.611C275.41 360.291 275.192 360.041 274.904 359.859C274.626 359.667 274.301 359.571 273.928 359.571C273.544 359.571 273.208 359.667 272.92 359.859C272.632 360.041 272.413 360.291 272.264 360.611C272.114 360.931 272.04 361.289 272.04 361.683C272.04 362.089 272.114 362.457 272.264 362.787C272.413 363.118 272.632 363.379 272.92 363.571C273.208 363.753 273.544 363.843 273.928 363.843ZM280.146 365.795V360.947C280.146 360.275 280.3 359.673 280.61 359.139C280.93 358.595 281.383 358.169 281.97 357.859C282.556 357.55 283.255 357.395 284.066 357.395C284.471 357.395 284.844 357.443 285.186 357.539C285.527 357.625 285.836 357.747 286.114 357.907C286.402 358.057 286.647 358.238 286.85 358.451H286.882C287.095 358.238 287.34 358.057 287.618 357.907C287.906 357.747 288.22 357.625 288.562 357.539C288.914 357.443 289.292 357.395 289.698 357.395C290.508 357.395 291.207 357.55 291.794 357.859C292.38 358.169 292.834 358.595 293.154 359.139C293.474 359.673 293.634 360.275 293.634 360.947V365.795H291.138V361.027C291.138 360.761 291.068 360.521 290.93 360.307C290.802 360.083 290.626 359.902 290.402 359.763C290.178 359.625 289.922 359.555 289.634 359.555C289.346 359.555 289.084 359.625 288.85 359.763C288.626 359.902 288.45 360.083 288.322 360.307C288.194 360.521 288.13 360.761 288.13 361.027V365.795H285.65V361.027C285.65 360.761 285.58 360.521 285.442 360.307C285.314 360.083 285.132 359.902 284.898 359.763C284.674 359.625 284.418 359.555 284.13 359.555C283.842 359.555 283.58 359.625 283.346 359.763C283.122 359.902 282.946 360.083 282.818 360.307C282.69 360.521 282.626 360.761 282.626 361.027V365.795H280.146ZM299.81 365.987C298.925 365.987 298.151 365.806 297.49 365.443C296.829 365.081 296.317 364.563 295.954 363.891C295.591 363.219 295.41 362.435 295.41 361.539V354.115H297.89V358.483H297.938C298.098 358.259 298.295 358.067 298.53 357.907C298.775 357.737 299.042 357.609 299.33 357.523C299.629 357.438 299.943 357.395 300.274 357.395C301.053 357.395 301.735 357.571 302.322 357.923C302.909 358.275 303.367 358.761 303.698 359.379C304.039 359.998 304.21 360.723 304.21 361.555C304.21 362.195 304.109 362.787 303.906 363.331C303.703 363.875 303.41 364.35 303.026 364.755C302.653 365.15 302.194 365.454 301.65 365.667C301.117 365.881 300.503 365.987 299.81 365.987ZM299.81 363.843C300.194 363.843 300.525 363.753 300.802 363.571C301.079 363.379 301.293 363.123 301.442 362.803C301.602 362.473 301.682 362.105 301.682 361.699C301.682 361.294 301.602 360.931 301.442 360.611C301.293 360.291 301.079 360.041 300.802 359.859C300.525 359.667 300.194 359.571 299.81 359.571C299.426 359.571 299.09 359.667 298.802 359.859C298.525 360.041 298.311 360.291 298.162 360.611C298.013 360.931 297.938 361.294 297.938 361.699C297.938 362.105 298.013 362.473 298.162 362.803C298.311 363.123 298.525 363.379 298.802 363.571C299.09 363.753 299.426 363.843 299.81 363.843ZM305.677 365.795V357.587H308.173V365.795H305.677ZM306.925 356.659C306.53 356.659 306.189 356.515 305.901 356.227C305.613 355.939 305.469 355.598 305.469 355.203C305.469 354.809 305.613 354.467 305.901 354.179C306.189 353.881 306.53 353.731 306.925 353.731C307.32 353.731 307.661 353.881 307.949 354.179C308.237 354.467 308.381 354.809 308.381 355.203C308.381 355.598 308.237 355.939 307.949 356.227C307.661 356.515 307.32 356.659 306.925 356.659ZM314.054 365.987C313.211 365.987 312.454 365.801 311.782 365.427C311.11 365.054 310.576 364.542 310.182 363.891C309.798 363.241 309.606 362.51 309.606 361.699C309.606 360.878 309.798 360.147 310.182 359.507C310.576 358.857 311.11 358.345 311.782 357.971C312.454 357.587 313.211 357.395 314.054 357.395C314.896 357.395 315.648 357.587 316.31 357.971C316.982 358.345 317.51 358.857 317.894 359.507C318.288 360.147 318.486 360.878 318.486 361.699C318.486 362.51 318.288 363.241 317.894 363.891C317.51 364.542 316.982 365.054 316.31 365.427C315.638 365.801 314.886 365.987 314.054 365.987ZM314.054 363.827C314.448 363.827 314.79 363.731 315.078 363.539C315.366 363.347 315.59 363.091 315.75 362.771C315.91 362.451 315.99 362.089 315.99 361.683C315.99 361.289 315.91 360.931 315.75 360.611C315.59 360.291 315.366 360.035 315.078 359.843C314.79 359.651 314.448 359.555 314.054 359.555C313.659 359.555 313.312 359.651 313.014 359.843C312.726 360.035 312.502 360.291 312.342 360.611C312.182 360.931 312.102 361.289 312.102 361.683C312.102 362.089 312.182 362.451 312.342 362.771C312.502 363.091 312.726 363.347 313.014 363.539C313.312 363.731 313.659 363.827 314.054 363.827ZM328.209 365.987C327.526 365.987 326.907 365.881 326.353 365.667C325.809 365.454 325.35 365.15 324.977 364.755C324.603 364.35 324.315 363.875 324.113 363.331C323.91 362.787 323.809 362.195 323.809 361.555C323.809 360.723 323.974 359.998 324.305 359.379C324.646 358.761 325.11 358.275 325.697 357.923C326.294 357.571 326.977 357.395 327.745 357.395C328.075 357.395 328.385 357.438 328.673 357.523C328.971 357.609 329.238 357.737 329.473 357.907C329.718 358.067 329.921 358.259 330.081 358.483H330.129V354.115H332.609V361.539C332.609 362.435 332.427 363.219 332.065 363.891C331.702 364.563 331.19 365.081 330.529 365.443C329.878 365.806 329.105 365.987 328.209 365.987ZM328.209 363.843C328.593 363.843 328.923 363.753 329.201 363.571C329.489 363.379 329.707 363.123 329.857 362.803C330.006 362.473 330.081 362.105 330.081 361.699C330.081 361.294 330.006 360.931 329.857 360.611C329.707 360.291 329.489 360.041 329.201 359.859C328.923 359.667 328.593 359.571 328.209 359.571C327.835 359.571 327.505 359.667 327.217 359.859C326.929 360.041 326.71 360.291 326.561 360.611C326.411 360.931 326.337 361.294 326.337 361.699C326.337 362.105 326.411 362.473 326.561 362.803C326.71 363.123 326.929 363.379 327.217 363.571C327.505 363.753 327.835 363.843 328.209 363.843ZM338.684 365.795C337.756 365.795 336.94 365.625 336.236 365.283C335.532 364.931 334.982 364.451 334.588 363.843C334.204 363.225 334.012 362.51 334.012 361.699C334.012 360.803 334.198 360.035 334.572 359.395C334.945 358.755 335.441 358.265 336.06 357.923C336.689 357.571 337.382 357.395 338.14 357.395C339.004 357.395 339.724 357.577 340.3 357.939C340.886 358.302 341.329 358.798 341.628 359.427C341.926 360.046 342.076 360.755 342.076 361.555C342.076 361.694 342.065 361.859 342.044 362.051C342.033 362.233 342.017 362.377 341.996 362.483H336.62C336.684 362.761 336.806 362.995 336.988 363.187C337.169 363.379 337.398 363.523 337.676 363.619C337.953 363.705 338.262 363.747 338.604 363.747H341.116V365.795H338.684ZM336.556 360.931H339.676C339.654 360.761 339.622 360.595 339.58 360.435C339.537 360.275 339.468 360.137 339.372 360.019C339.286 359.891 339.185 359.785 339.068 359.699C338.95 359.603 338.812 359.529 338.652 359.475C338.502 359.422 338.332 359.395 338.14 359.395C337.894 359.395 337.676 359.438 337.484 359.523C337.292 359.609 337.132 359.726 337.004 359.875C336.876 360.014 336.774 360.179 336.7 360.371C336.636 360.553 336.588 360.739 336.556 360.931ZM351.771 365.987C351.088 365.987 350.47 365.881 349.915 365.667C349.371 365.454 348.912 365.15 348.539 364.755C348.166 364.35 347.878 363.875 347.675 363.331C347.472 362.787 347.371 362.195 347.371 361.555C347.371 360.723 347.536 359.998 347.867 359.379C348.208 358.761 348.672 358.275 349.259 357.923C349.856 357.571 350.539 357.395 351.307 357.395C351.638 357.395 351.947 357.438 352.235 357.523C352.534 357.609 352.8 357.737 353.035 357.907C353.28 358.067 353.483 358.259 353.643 358.483H353.691V354.115H356.171V361.539C356.171 362.435 355.99 363.219 355.627 363.891C355.264 364.563 354.752 365.081 354.091 365.443C353.44 365.806 352.667 365.987 351.771 365.987ZM351.771 363.843C352.155 363.843 352.486 363.753 352.763 363.571C353.051 363.379 353.27 363.123 353.419 362.803C353.568 362.473 353.643 362.105 353.643 361.699C353.643 361.294 353.568 360.931 353.419 360.611C353.27 360.291 353.051 360.041 352.763 359.859C352.486 359.667 352.155 359.571 351.771 359.571C351.398 359.571 351.067 359.667 350.779 359.859C350.491 360.041 350.272 360.291 350.123 360.611C349.974 360.931 349.899 361.294 349.899 361.699C349.899 362.105 349.974 362.473 350.123 362.803C350.272 363.123 350.491 363.379 350.779 363.571C351.067 363.753 351.398 363.843 351.771 363.843ZM361.254 365.987C360.529 365.987 359.889 365.801 359.334 365.427C358.78 365.054 358.348 364.553 358.038 363.923C357.729 363.283 357.574 362.563 357.574 361.763C357.574 360.931 357.756 360.19 358.118 359.539C358.481 358.878 358.993 358.355 359.654 357.971C360.326 357.587 361.116 357.395 362.022 357.395C362.94 357.395 363.718 357.587 364.358 357.971C365.009 358.345 365.505 358.862 365.846 359.523C366.198 360.174 366.374 360.905 366.374 361.715V365.795H363.942V364.483H363.878C363.729 364.771 363.537 365.033 363.302 365.267C363.068 365.491 362.78 365.667 362.438 365.795C362.108 365.923 361.713 365.987 361.254 365.987ZM361.99 363.843C362.364 363.843 362.689 363.753 362.966 363.571C363.254 363.379 363.473 363.118 363.622 362.787C363.772 362.457 363.846 362.089 363.846 361.683C363.846 361.289 363.772 360.931 363.622 360.611C363.473 360.291 363.254 360.041 362.966 359.859C362.689 359.667 362.364 359.571 361.99 359.571C361.606 359.571 361.27 359.667 360.982 359.859C360.694 360.041 360.476 360.291 360.326 360.611C360.177 360.931 360.102 361.289 360.102 361.683C360.102 362.089 360.177 362.457 360.326 362.787C360.476 363.118 360.694 363.379 360.982 363.571C361.27 363.753 361.606 363.843 361.99 363.843ZM371.216 365.795C370.459 365.795 369.867 365.582 369.44 365.155C369.014 364.718 368.8 364.131 368.8 363.395V355.587H371.296V363.251C371.296 363.379 371.339 363.491 371.424 363.587C371.52 363.673 371.632 363.715 371.76 363.715H373.552V365.795H371.216ZM367.456 359.619V357.587H373.552V359.619H367.456ZM378.85 365.987C378.008 365.987 377.25 365.801 376.578 365.427C375.906 365.054 375.373 364.542 374.978 363.891C374.594 363.241 374.402 362.51 374.402 361.699C374.402 360.878 374.594 360.147 374.978 359.507C375.373 358.857 375.906 358.345 376.578 357.971C377.25 357.587 378.008 357.395 378.85 357.395C379.693 357.395 380.445 357.587 381.106 357.971C381.778 358.345 382.306 358.857 382.69 359.507C383.085 360.147 383.282 360.878 383.282 361.699C383.282 362.51 383.085 363.241 382.69 363.891C382.306 364.542 381.778 365.054 381.106 365.427C380.434 365.801 379.682 365.987 378.85 365.987ZM378.85 363.827C379.245 363.827 379.586 363.731 379.874 363.539C380.162 363.347 380.386 363.091 380.546 362.771C380.706 362.451 380.786 362.089 380.786 361.683C380.786 361.289 380.706 360.931 380.546 360.611C380.386 360.291 380.162 360.035 379.874 359.843C379.586 359.651 379.245 359.555 378.85 359.555C378.456 359.555 378.109 359.651 377.81 359.843C377.522 360.035 377.298 360.291 377.138 360.611C376.978 360.931 376.898 361.289 376.898 361.683C376.898 362.089 376.978 362.451 377.138 362.771C377.298 363.091 377.522 363.347 377.81 363.539C378.109 363.731 378.456 363.827 378.85 363.827ZM384.771 365.795V363.827H388.723C388.83 363.827 388.926 363.806 389.011 363.763C389.096 363.71 389.166 363.641 389.219 363.555C389.272 363.47 389.299 363.379 389.299 363.283C389.299 363.177 389.272 363.081 389.219 362.995C389.166 362.91 389.096 362.846 389.011 362.803C388.926 362.75 388.83 362.723 388.723 362.723H387.283C386.75 362.723 386.264 362.638 385.827 362.467C385.4 362.286 385.059 362.009 384.803 361.635C384.558 361.251 384.435 360.755 384.435 360.147C384.435 359.678 384.547 359.251 384.771 358.867C385.006 358.483 385.32 358.174 385.715 357.939C386.12 357.705 386.563 357.587 387.043 357.587H390.995V359.571H387.427C387.278 359.571 387.15 359.619 387.043 359.715C386.947 359.811 386.899 359.929 386.899 360.067C386.899 360.217 386.947 360.345 387.043 360.451C387.15 360.547 387.278 360.595 387.427 360.595H388.835C389.432 360.595 389.944 360.686 390.371 360.867C390.808 361.038 391.144 361.315 391.379 361.699C391.624 362.083 391.747 362.579 391.747 363.187C391.747 363.667 391.624 364.105 391.379 364.499C391.144 364.894 390.824 365.209 390.419 365.443C390.024 365.678 389.576 365.795 389.075 365.795H384.771Z" fill="#B02785"/>
<path d="M780.351 731.273L868.881 510.244C872.696 499.703 862.838 489.173 849.154 489.141H780.351C776.959 489.141 773.706 487.801 771.308 485.417C768.909 483.033 767.562 479.8 767.562 476.428V459.477C767.562 456.106 766.214 452.872 763.816 450.488C761.418 448.104 758.165 446.765 754.773 446.765H569.336C565.944 446.765 562.691 448.104 560.293 450.488C557.895 452.872 556.547 456.106 556.547 459.477V476.428C556.547 479.8 555.2 483.033 552.802 485.417C550.403 487.801 547.15 489.141 543.759 489.141H101.055C87.3173 489.141 77.4593 499.735 81.3599 510.329L158.563 731.273H780.351Z" fill="white" stroke="#B02785" stroke-width="3" stroke-miterlimit="10"/>
<g clip-path="url(#clip4_1465_30881)">
<path fill-rule="evenodd" clip-rule="evenodd" d="M591.868 457.034H599.356C602.306 457.034 605.144 458.201 607.235 460.275C608.657 461.686 609.494 463.598 609.538 465.602C609.538 465.603 609.538 465.604 609.538 465.604L609.868 478.034H591.868V457.034ZM593.703 458.862V476.206H607.983L607.703 465.648L607.703 465.644C607.67 464.119 607.032 462.654 605.939 461.57C604.192 459.837 601.82 458.862 599.356 458.862H593.703ZM599.62 460.91H601.456V465.353L606.218 465.353V467.181H599.62V460.91ZM595.2 468.756H606.256V470.584H595.2V468.756ZM595.2 472.159H606.256V473.988H595.2V472.159Z" fill="#B02785"/>
</g>
<path d="M650.807 473.034V461.354H653.287V473.034H650.807ZM659.408 473.034C658.48 473.034 657.664 472.863 656.96 472.522C656.256 472.17 655.706 471.69 655.312 471.082C654.928 470.463 654.736 469.748 654.736 468.938C654.736 468.042 654.922 467.274 655.296 466.634C655.669 465.994 656.165 465.503 656.784 465.162C657.413 464.81 658.106 464.634 658.864 464.634C659.728 464.634 660.448 464.815 661.024 465.178C661.61 465.54 662.053 466.036 662.352 466.666C662.65 467.284 662.8 467.994 662.8 468.794C662.8 468.932 662.789 469.098 662.768 469.29C662.757 469.471 662.741 469.615 662.72 469.722H657.344C657.408 469.999 657.53 470.234 657.712 470.426C657.893 470.618 658.122 470.762 658.4 470.858C658.677 470.943 658.986 470.986 659.328 470.986H661.84V473.034H659.408ZM657.28 468.17H660.4C660.378 467.999 660.346 467.834 660.304 467.674C660.261 467.514 660.192 467.375 660.096 467.258C660.01 467.13 659.909 467.023 659.792 466.938C659.674 466.842 659.536 466.767 659.376 466.714C659.226 466.66 659.056 466.634 658.864 466.634C658.618 466.634 658.4 466.676 658.208 466.762C658.016 466.847 657.856 466.964 657.728 467.114C657.6 467.252 657.498 467.418 657.424 467.61C657.36 467.791 657.312 467.978 657.28 468.17ZM665.493 476.282V474.154H669.589C669.749 474.154 669.882 474.1 669.989 473.994C670.095 473.898 670.149 473.775 670.149 473.626V471.818H670.101C669.887 472.063 669.658 472.271 669.413 472.442C669.178 472.612 668.911 472.74 668.613 472.826C668.325 472.911 667.999 472.954 667.637 472.954C666.911 472.954 666.261 472.783 665.685 472.442C665.119 472.09 664.671 471.604 664.341 470.986C664.021 470.367 663.861 469.663 663.861 468.874C663.861 468.095 664.026 467.386 664.357 466.746C664.698 466.106 665.194 465.594 665.845 465.21C666.495 464.826 667.29 464.634 668.229 464.634C669.125 464.634 669.898 464.82 670.549 465.194C671.21 465.556 671.722 466.074 672.085 466.746C672.447 467.407 672.629 468.186 672.629 469.082V473.882C672.629 474.618 672.41 475.199 671.973 475.626C671.546 476.063 670.954 476.282 670.197 476.282H665.493ZM668.245 470.874C668.629 470.874 668.959 470.788 669.237 470.618C669.514 470.436 669.727 470.196 669.877 469.898C670.026 469.599 670.101 469.268 670.101 468.906C670.101 468.522 670.026 468.17 669.877 467.85C669.727 467.53 669.514 467.279 669.237 467.098C668.959 466.906 668.629 466.81 668.245 466.81C667.871 466.81 667.541 466.9 667.253 467.082C666.975 467.263 666.762 467.508 666.613 467.818C666.463 468.127 666.389 468.474 666.389 468.858C666.389 469.231 666.463 469.572 666.613 469.882C666.762 470.18 666.975 470.42 667.253 470.602C667.541 470.783 667.871 470.874 668.245 470.874ZM674.416 473.034V464.826H676.912V473.034H674.416ZM675.664 463.898C675.27 463.898 674.928 463.754 674.64 463.466C674.352 463.178 674.208 462.836 674.208 462.442C674.208 462.047 674.352 461.706 674.64 461.418C674.928 461.119 675.27 460.97 675.664 460.97C676.059 460.97 676.4 461.119 676.688 461.418C676.976 461.706 677.12 462.047 677.12 462.442C677.12 462.836 676.976 463.178 676.688 463.466C676.4 463.754 676.059 463.898 675.664 463.898ZM678.745 473.034V471.066H682.697C682.804 471.066 682.9 471.044 682.985 471.002C683.07 470.948 683.14 470.879 683.193 470.794C683.246 470.708 683.273 470.618 683.273 470.522C683.273 470.415 683.246 470.319 683.193 470.234C683.14 470.148 683.07 470.084 682.985 470.042C682.9 469.988 682.804 469.962 682.697 469.962H681.257C680.724 469.962 680.238 469.876 679.801 469.706C679.374 469.524 679.033 469.247 678.777 468.874C678.532 468.49 678.409 467.994 678.409 467.386C678.409 466.916 678.521 466.49 678.745 466.106C678.98 465.722 679.294 465.412 679.689 465.178C680.094 464.943 680.537 464.826 681.017 464.826H684.969V466.81H681.401C681.252 466.81 681.124 466.858 681.017 466.954C680.921 467.05 680.873 467.167 680.873 467.306C680.873 467.455 680.921 467.583 681.017 467.69C681.124 467.786 681.252 467.834 681.401 467.834H682.809C683.406 467.834 683.918 467.924 684.345 468.106C684.782 468.276 685.118 468.554 685.353 468.938C685.598 469.322 685.721 469.818 685.721 470.426C685.721 470.906 685.598 471.343 685.353 471.738C685.118 472.132 684.798 472.447 684.393 472.682C683.998 472.916 683.55 473.034 683.049 473.034H678.745ZM687.213 473.034V461.354H689.693V473.034H687.213ZM694.822 473.226C694.096 473.226 693.456 473.039 692.902 472.666C692.347 472.292 691.915 471.791 691.606 471.162C691.296 470.522 691.142 469.802 691.142 469.002C691.142 468.17 691.323 467.428 691.686 466.778C692.048 466.116 692.56 465.594 693.222 465.21C693.894 464.826 694.683 464.634 695.59 464.634C696.507 464.634 697.286 464.826 697.926 465.21C698.576 465.583 699.072 466.1 699.414 466.762C699.766 467.412 699.942 468.143 699.942 468.954V473.034H697.51V471.722H697.446C697.296 472.01 697.104 472.271 696.87 472.506C696.635 472.73 696.347 472.906 696.006 473.034C695.675 473.162 695.28 473.226 694.822 473.226ZM695.558 471.082C695.931 471.082 696.256 470.991 696.534 470.81C696.822 470.618 697.04 470.356 697.19 470.026C697.339 469.695 697.414 469.327 697.414 468.922C697.414 468.527 697.339 468.17 697.19 467.85C697.04 467.53 696.822 467.279 696.534 467.098C696.256 466.906 695.931 466.81 695.558 466.81C695.174 466.81 694.838 466.906 694.55 467.098C694.262 467.279 694.043 467.53 693.894 467.85C693.744 468.17 693.67 468.527 693.67 468.922C693.67 469.327 693.744 469.695 693.894 470.026C694.043 470.356 694.262 470.618 694.55 470.81C694.838 470.991 695.174 471.082 695.558 471.082ZM705.808 473.034C704.954 473.034 704.197 472.858 703.536 472.506C702.874 472.143 702.352 471.658 701.968 471.05C701.584 470.431 701.392 469.727 701.392 468.938C701.392 468.148 701.584 467.45 701.968 466.842C702.352 466.223 702.874 465.732 703.536 465.37C704.197 465.007 704.954 464.826 705.808 464.826H707.04V466.922H705.904C705.488 466.922 705.13 467.012 704.832 467.194C704.533 467.364 704.298 467.604 704.128 467.914C703.968 468.212 703.888 468.554 703.888 468.938C703.888 469.322 703.968 469.668 704.128 469.978C704.298 470.276 704.533 470.516 704.832 470.698C705.13 470.868 705.488 470.954 705.904 470.954H707.04V473.034H705.808ZM708.416 473.034V464.826H710.912V473.034H708.416ZM709.664 463.898C709.27 463.898 708.928 463.754 708.64 463.466C708.352 463.178 708.208 462.836 708.208 462.442C708.208 462.047 708.352 461.706 708.64 461.418C708.928 461.119 709.27 460.97 709.664 460.97C710.059 460.97 710.4 461.119 710.688 461.418C710.976 461.706 711.12 462.047 711.12 462.442C711.12 462.836 710.976 463.178 710.688 463.466C710.4 463.754 710.059 463.898 709.664 463.898ZM716.793 473.226C715.95 473.226 715.193 473.039 714.521 472.666C713.849 472.292 713.316 471.78 712.921 471.13C712.537 470.479 712.345 469.748 712.345 468.938C712.345 468.116 712.537 467.386 712.921 466.746C713.316 466.095 713.849 465.583 714.521 465.21C715.193 464.826 715.95 464.634 716.793 464.634C717.636 464.634 718.388 464.826 719.049 465.21C719.721 465.583 720.249 466.095 720.633 466.746C721.028 467.386 721.225 468.116 721.225 468.938C721.225 469.748 721.028 470.479 720.633 471.13C720.249 471.78 719.721 472.292 719.049 472.666C718.377 473.039 717.625 473.226 716.793 473.226ZM716.793 471.066C717.188 471.066 717.529 470.97 717.817 470.778C718.105 470.586 718.329 470.33 718.489 470.01C718.649 469.69 718.729 469.327 718.729 468.922C718.729 468.527 718.649 468.17 718.489 467.85C718.329 467.53 718.105 467.274 717.817 467.082C717.529 466.89 717.188 466.794 716.793 466.794C716.398 466.794 716.052 466.89 715.753 467.082C715.465 467.274 715.241 467.53 715.081 467.85C714.921 468.17 714.841 468.527 714.841 468.922C714.841 469.327 714.921 469.69 715.081 470.01C715.241 470.33 715.465 470.586 715.753 470.778C716.052 470.97 716.398 471.066 716.793 471.066ZM715.657 463.658L717.049 461.626H719.257L717.865 463.658H715.657ZM722.635 473.034V468.314C722.635 467.631 722.8 467.012 723.131 466.458C723.462 465.903 723.931 465.46 724.539 465.13C725.158 464.799 725.888 464.634 726.731 464.634C727.584 464.634 728.31 464.799 728.907 465.13C729.515 465.46 729.979 465.903 730.299 466.458C730.619 467.012 730.779 467.631 730.779 468.314V473.034H728.299V468.378C728.299 468.09 728.23 467.828 728.091 467.594C727.952 467.348 727.76 467.156 727.515 467.018C727.28 466.868 727.014 466.794 726.715 466.794C726.406 466.794 726.128 466.868 725.883 467.018C725.648 467.156 725.462 467.348 725.323 467.594C725.184 467.828 725.115 468.09 725.115 468.378V473.034H722.635Z" fill="#B02785"/>
<path d="M61.0588 743.277L2.67749 584.979H938.333L881.856 743.277H61.0588Z" fill="white" stroke="#B02785" stroke-width="3" stroke-miterlimit="10"/>
<path d="M938.333 568.355H2.67749V584.442H938.333V568.355Z" fill="white" stroke="#B02785" stroke-width="3" stroke-miterlimit="10"/>
<mask id="mask0_1465_30881" style="mask-type:luminance" maskUnits="userSpaceOnUse" x="246" y="648" width="431" height="49">
<path d="M676.647 648.448H246.335V696.56H676.647V648.448Z" fill="white"/>
</mask>
<g mask="url(#mask0_1465_30881)">
<path d="M284.526 674.939C284.069 677.744 282.849 680.37 280.998 682.527C279.147 684.685 276.738 686.291 274.035 687.169C271.332 688.048 268.439 688.165 265.673 687.508C262.908 686.851 260.377 685.445 258.358 683.444C256.339 681.443 254.91 678.925 254.228 676.165C253.545 673.406 253.636 670.512 254.491 667.801C255.345 665.09 256.929 662.666 259.07 660.796C261.211 658.926 263.825 657.682 266.626 657.2V649.692C262.342 650.186 258.284 651.88 254.919 654.578C251.554 657.276 249.02 660.869 247.606 664.944C246.193 669.019 245.959 673.41 246.931 677.612C247.903 681.813 250.041 685.656 253.1 688.696C256.158 691.737 260.013 693.852 264.221 694.799C268.429 695.746 272.818 695.486 276.884 694.049C280.951 692.611 284.529 690.055 287.207 686.675C289.885 683.294 291.554 679.226 292.023 674.939H284.526Z" fill="#B02785"/>
<path d="M668.346 685.417C669.792 685.439 671.218 685.079 672.48 684.373C673.742 683.666 674.795 682.639 675.532 681.395C676.262 680.163 676.633 678.751 676.604 677.319C676.697 675.694 676.325 674.076 675.532 672.654C674.793 671.474 673.695 670.561 672.4 670.048C670.865 669.458 669.229 669.173 667.585 669.212H662.727C662.474 669.219 662.223 669.176 661.987 669.086C661.752 668.996 661.536 668.86 661.354 668.686C661.173 668.513 661.03 668.305 660.934 668.074C660.838 667.844 660.791 667.595 660.796 667.345C660.786 667.095 660.834 666.846 660.937 666.617C661.039 666.388 661.193 666.186 661.386 666.026C661.753 665.694 662.232 665.514 662.727 665.522H674.17V659.591H662.104C660.674 659.572 659.265 659.943 658.029 660.664C656.822 661.358 655.813 662.352 655.101 663.549C654.379 664.749 654.008 666.127 654.029 667.528C653.955 669.139 654.37 670.736 655.219 672.107C656.007 673.261 657.13 674.145 658.437 674.638C659.868 675.179 661.389 675.444 662.92 675.421H667.789C668.164 675.419 668.534 675.515 668.861 675.7C669.188 675.873 669.461 676.133 669.65 676.451C669.839 676.768 669.937 677.132 669.934 677.502C669.935 677.857 669.839 678.206 669.655 678.51C669.473 678.813 669.209 679.059 668.893 679.218C668.562 679.39 668.194 679.479 667.821 679.475H655.08V685.395L668.346 685.417ZM634.22 668.096C634.479 667.468 634.841 666.888 635.292 666.38C635.748 665.861 636.312 665.447 636.944 665.168C637.651 664.848 638.42 664.691 639.196 664.707C639.796 664.701 640.393 664.788 640.966 664.965C641.477 665.113 641.956 665.352 642.381 665.672C642.796 665.968 643.159 666.33 643.454 666.745C643.772 667.198 644.012 667.702 644.162 668.236C644.339 668.823 644.458 669.426 644.516 670.037H633.791C633.891 669.358 634.068 668.693 634.316 668.053M648.259 685.374V679.454H641.073C639.928 679.469 638.789 679.288 637.705 678.918C636.748 678.61 635.886 678.059 635.205 677.318C634.525 676.577 634.048 675.672 633.823 674.692H651.294C651.383 674.341 651.437 673.981 651.455 673.619C651.455 673.169 651.455 672.772 651.455 672.429C651.487 670.098 651.057 667.783 650.189 665.619C649.39 663.629 648.006 661.927 646.221 660.739C644.102 659.435 641.639 658.8 639.153 658.916C636.867 658.88 634.613 659.454 632.622 660.578C630.699 661.699 629.122 663.328 628.064 665.286C626.907 667.486 626.331 669.944 626.391 672.429C626.359 674.75 626.984 677.032 628.193 679.014C629.375 681.01 631.091 682.637 633.147 683.711C635.528 684.892 638.16 685.473 640.816 685.406L648.259 685.374ZM605.799 679.046C604.799 678.366 604.011 677.418 603.525 676.311C603.009 675.094 602.742 673.784 602.742 672.461C602.742 671.138 603.009 669.829 603.525 668.611C604.011 667.504 604.799 666.556 605.799 665.876C606.86 665.217 608.084 664.867 609.333 664.867C610.582 664.867 611.806 665.217 612.867 665.876C613.854 666.564 614.633 667.51 615.119 668.611C615.636 669.829 615.902 671.138 615.902 672.461C615.902 673.784 615.636 675.094 615.119 676.311C614.633 677.412 613.854 678.358 612.867 679.046C611.806 679.706 610.582 680.055 609.333 680.055C608.084 680.055 606.86 679.706 605.799 679.046ZM616.524 684.258C618.534 683.124 620.17 681.428 621.232 679.379C622.387 677.079 622.958 674.53 622.894 671.957V648.362H615.966V662.702C615.393 661.921 614.671 661.262 613.843 660.76C613.017 660.175 612.1 659.729 611.129 659.441C610.12 659.139 609.072 658.987 608.019 658.991C605.721 658.941 603.453 659.515 601.456 660.653C599.606 661.749 598.098 663.339 597.101 665.243C596.037 667.334 595.506 669.655 595.557 672C595.54 673.904 595.848 675.798 596.468 677.598C597.044 679.242 597.941 680.755 599.107 682.049C600.293 683.344 601.761 684.35 603.397 684.988C605.239 685.72 607.206 686.084 609.188 686.06C611.714 686.127 614.214 685.532 616.438 684.334M574.686 679.121C573.679 678.437 572.887 677.481 572.402 676.365C571.872 675.144 571.606 673.824 571.619 672.493C571.601 671.176 571.868 669.869 572.402 668.665C572.9 667.568 573.69 666.629 574.686 665.951C575.748 665.264 576.993 664.913 578.258 664.943C579.495 664.914 580.712 665.266 581.743 665.951C582.73 666.633 583.513 667.571 584.006 668.665C584.54 669.869 584.807 671.176 584.789 672.493C584.803 673.824 584.536 675.144 584.006 676.365C583.523 677.476 582.739 678.431 581.743 679.121C580.714 679.811 579.496 680.164 578.258 680.129C576.992 680.165 575.746 679.813 574.686 679.121ZM580.124 685.406C581.155 685.002 582.095 684.396 582.891 683.626C583.643 682.898 584.282 682.063 584.789 681.148H584.886V685.438H591.825V672.568C591.852 670.199 591.315 667.857 590.259 665.737C589.232 663.703 587.652 662.001 585.701 660.825C583.47 659.544 580.925 658.913 578.354 659.002C575.775 658.927 573.223 659.545 570.965 660.793C568.956 661.944 567.313 663.639 566.224 665.683C565.115 667.807 564.551 670.173 564.584 672.568C564.556 674.899 565.047 677.207 566.021 679.325C566.918 681.29 568.325 682.979 570.096 684.216C571.92 685.45 574.083 686.087 576.284 686.039C577.594 686.066 578.897 685.844 580.124 685.385M560.819 648.459H553.88V685.427H560.819V648.459ZM533.095 668.107C533.354 667.479 533.716 666.898 534.168 666.391C534.624 665.872 535.187 665.458 535.82 665.179C536.526 664.859 537.296 664.701 538.072 664.718C538.671 664.711 539.268 664.798 539.841 664.975C540.354 665.119 540.835 665.359 541.257 665.683C541.669 665.982 542.031 666.344 542.33 666.756C542.64 667.214 542.878 667.716 543.037 668.246C543.205 668.836 543.323 669.439 543.391 670.048H532.591C532.69 669.368 532.87 668.701 533.128 668.064M547.07 685.385V679.464H539.841C538.696 679.479 537.557 679.298 536.474 678.928C535.53 678.611 534.679 678.066 533.996 677.341C533.315 676.594 532.835 675.686 532.602 674.703H550.073C550.157 674.351 550.208 673.992 550.223 673.63C550.223 673.18 550.223 672.783 550.223 672.44C550.25 670.109 549.82 667.795 548.957 665.629C548.149 663.641 546.763 661.942 544.979 660.75C542.86 659.445 540.397 658.809 537.911 658.926C535.625 658.891 533.37 659.464 531.379 660.589C529.456 661.709 527.879 663.338 526.821 665.297C525.664 667.496 525.088 669.955 525.148 672.44C525.117 674.761 525.741 677.043 526.95 679.025C528.174 681.01 529.927 682.614 532.012 683.658C534.396 684.838 537.032 685.42 539.691 685.352L547.07 685.385ZM512.944 665.887C513.936 666.596 514.709 667.569 515.174 668.697C515.698 669.913 515.968 671.223 515.968 672.547C515.968 673.871 515.698 675.181 515.174 676.397C514.691 677.5 513.912 678.447 512.922 679.132C511.863 679.791 510.641 680.14 509.394 680.14C508.146 680.14 506.924 679.791 505.865 679.132C504.863 678.451 504.072 677.504 503.581 676.397C503.064 675.179 502.798 673.87 502.798 672.547C502.798 671.224 503.064 669.915 503.581 668.697C504.072 667.59 504.863 666.642 505.865 665.962C506.924 665.303 508.146 664.954 509.394 664.954C510.641 664.954 511.863 665.303 512.922 665.962M502.197 660.75C500.175 661.87 498.527 663.559 497.457 665.608C496.302 667.916 495.732 670.471 495.794 673.051V696.646H502.723V682.231H502.776C503.33 683.012 504.007 683.697 504.782 684.258C505.597 684.84 506.503 685.282 507.463 685.567C508.47 685.877 509.519 686.033 510.573 686.028C512.88 686.087 515.159 685.508 517.158 684.355C518.989 683.246 520.475 681.649 521.448 679.743C522.509 677.659 523.04 675.346 522.993 673.008C523.014 671.107 522.705 669.216 522.081 667.42C521.505 665.773 520.609 664.257 519.443 662.959C518.252 661.669 516.786 660.664 515.153 660.02C513.299 659.29 511.321 658.926 509.329 658.948C506.815 658.884 504.328 659.475 502.111 660.664M473.551 679.046C472.548 678.361 471.76 677.405 471.278 676.29C470.74 675.071 470.469 673.751 470.484 672.418C470.464 671.099 470.735 669.792 471.278 668.59C471.767 667.49 472.555 666.55 473.551 665.876C474.613 665.189 475.858 664.838 477.123 664.868C478.363 664.84 479.583 665.192 480.619 665.876C481.6 666.561 482.378 667.499 482.871 668.59C483.41 669.793 483.677 671.1 483.654 672.418C483.673 673.75 483.406 675.07 482.871 676.29C482.388 677.398 481.609 678.352 480.619 679.046C479.585 679.735 478.364 680.087 477.123 680.054C475.857 680.09 474.611 679.738 473.551 679.046ZM478.999 685.331C480.026 684.924 480.963 684.319 481.756 683.551C482.507 682.823 483.147 681.988 483.654 681.073H483.751V685.363H490.689V672.493C490.722 670.123 490.185 667.78 489.124 665.662C488.1 663.626 486.519 661.923 484.566 660.75C482.334 659.469 479.79 658.838 477.219 658.926C474.64 658.852 472.088 659.47 469.83 660.717C467.821 661.866 466.181 663.562 465.1 665.608C463.982 667.729 463.414 670.096 463.448 672.493C463.419 674.825 463.914 677.135 464.896 679.25C465.786 681.219 467.195 682.91 468.972 684.141C470.792 685.375 472.951 686.012 475.149 685.964C476.462 685.99 477.769 685.768 478.999 685.309M451.115 665.855C452.102 666.543 452.881 667.489 453.367 668.59C453.884 669.807 454.15 671.117 454.15 672.44C454.15 673.763 453.884 675.072 453.367 676.29C452.881 677.39 452.102 678.336 451.115 679.025C450.054 679.684 448.83 680.034 447.581 680.034C446.332 680.034 445.108 679.684 444.047 679.025C443.047 678.345 442.259 677.397 441.774 676.29C441.257 675.072 440.99 673.763 440.99 672.44C440.99 671.117 441.257 669.807 441.774 668.59C442.259 667.482 443.047 666.535 444.047 665.855C445.108 665.195 446.332 664.846 447.581 664.846C448.83 664.846 450.054 665.195 451.115 665.855ZM440.39 660.642C438.368 661.762 436.72 663.452 435.65 665.501C434.487 667.806 433.912 670.363 433.977 672.944V696.538H440.916V682.231H440.969C441.516 683.014 442.19 683.699 442.964 684.258C443.783 684.84 444.693 685.282 445.656 685.567C446.663 685.879 447.712 686.034 448.766 686.028C451.073 686.087 453.352 685.508 455.351 684.355C457.182 683.246 458.667 681.649 459.641 679.743C460.697 677.658 461.227 675.346 461.185 673.008C461.201 671.107 460.893 669.218 460.274 667.42C459.698 665.773 458.801 664.257 457.636 662.959C456.446 661.668 454.979 660.663 453.346 660.02C451.493 659.288 449.514 658.924 447.522 658.948C445.011 658.884 442.527 659.475 440.315 660.664" fill="#E3AFD1"/>
<path d="M421.675 685.417C423.237 685.443 424.775 685.042 426.126 684.258C427.416 683.502 428.503 682.442 429.29 681.17C430.087 679.882 430.5 678.394 430.48 676.88C430.555 675.184 430.153 673.501 429.322 672.021C428.537 670.768 427.372 669.799 425.997 669.254C424.376 668.632 422.649 668.334 420.914 668.375H417.267C417.11 668.381 416.954 668.352 416.81 668.291C416.665 668.23 416.536 668.138 416.431 668.021C416.217 667.806 416.096 667.515 416.096 667.211C416.096 666.908 416.217 666.617 416.431 666.402C416.536 666.285 416.665 666.193 416.81 666.132C416.954 666.071 417.11 666.042 417.267 666.048H428.303V659.152H414.994C413.487 659.137 412.002 659.515 410.686 660.248C409.369 660.982 408.267 662.045 407.486 663.334C406.723 664.61 406.329 666.073 406.349 667.56C406.272 669.277 406.705 670.979 407.593 672.45C408.401 673.706 409.577 674.68 410.961 675.239C412.456 675.842 414.057 676.141 415.669 676.118H419.616C419.844 676.11 420.069 676.161 420.27 676.268C420.444 676.37 420.585 676.519 420.678 676.697C420.779 676.878 420.83 677.081 420.828 677.287C420.834 677.491 420.782 677.692 420.678 677.866C420.581 678.051 420.441 678.209 420.27 678.328C420.076 678.454 419.847 678.514 419.616 678.499H407.39V685.385L421.675 685.417ZM386.348 685.417V670.938C386.348 670.308 386.506 669.689 386.809 669.136C387.123 668.568 387.586 668.097 388.149 667.774C388.77 667.411 389.479 667.225 390.198 667.238C390.869 667.219 391.531 667.386 392.113 667.721C392.694 668.056 393.171 668.546 393.49 669.136C393.793 669.689 393.951 670.308 393.951 670.938V685.417H403.636V670.327C403.676 668.201 403.123 666.107 402.038 664.278C400.942 662.475 399.353 661.024 397.459 660.095C395.248 659.039 392.819 658.521 390.369 658.583C387.913 658.547 385.481 659.071 383.259 660.117C381.302 661.045 379.637 662.492 378.443 664.3C377.288 666.103 376.691 668.207 376.727 670.348V685.438L386.348 685.417ZM356.039 676.912C355.326 676.468 354.756 675.827 354.398 675.067C354 674.219 353.802 673.291 353.819 672.354C353.801 671.458 354 670.572 354.398 669.769C354.774 669.041 355.341 668.429 356.039 668C356.765 667.571 357.593 667.346 358.436 667.346C359.279 667.346 360.107 667.571 360.833 668C361.517 668.439 362.076 669.049 362.453 669.769C362.851 670.572 363.05 671.458 363.032 672.354C363.049 673.291 362.851 674.219 362.453 675.067C362.093 675.819 361.532 676.458 360.833 676.912C360.107 677.34 359.279 677.566 358.436 677.566C357.593 677.566 356.765 677.34 356.039 676.912ZM359.031 685.492C360.001 685.144 360.888 684.6 361.638 683.894C362.361 683.206 362.953 682.392 363.386 681.491H363.686V685.385H372.909V672.408C372.962 669.884 372.34 667.392 371.108 665.19C369.927 663.132 368.192 661.449 366.099 660.331C363.787 659.118 361.202 658.516 358.592 658.583C355.904 658.519 353.245 659.147 350.87 660.406C348.719 661.591 346.938 663.347 345.722 665.479C344.443 667.737 343.795 670.296 343.845 672.89C343.794 675.284 344.316 677.656 345.368 679.808C346.312 681.696 347.745 683.296 349.519 684.441C351.292 685.561 353.352 686.142 355.449 686.114C356.67 686.136 357.886 685.947 359.042 685.556M335.212 685.449V668.504C335.202 668.247 335.245 667.991 335.337 667.752C335.429 667.512 335.569 667.294 335.748 667.109C335.929 666.926 336.147 666.781 336.387 666.685C336.627 666.589 336.884 666.544 337.142 666.552H342.151V659.205H333.742C332.638 659.136 331.531 659.29 330.488 659.658C329.445 660.027 328.487 660.602 327.672 661.35C326.931 662.142 326.359 663.076 325.991 664.095C325.622 665.115 325.464 666.199 325.527 667.281V685.352L335.212 685.449ZM322.342 659.216H301.75V666.552H322.363L322.342 659.216ZM322.342 685.449V677.598H316.615C316.298 677.605 315.991 677.49 315.757 677.277C315.64 677.172 315.548 677.042 315.487 676.898C315.426 676.753 315.397 676.597 315.403 676.44V653.114H305.675V677.277C305.614 678.357 305.772 679.439 306.141 680.457C306.51 681.474 307.081 682.406 307.82 683.197C308.628 683.943 309.578 684.518 310.614 684.887C311.65 685.256 312.75 685.41 313.848 685.342L322.342 685.449Z" fill="#B02785"/>
<path d="M264.846 672.354L259.516 666.927L264.052 662.466L269.383 667.892L280.397 657.114H271.549L271.603 649.542L292.055 649.628V670.005L284.601 669.962V661.608L273.844 672.429L279.174 677.856L274.638 682.317L269.307 676.89L263.881 682.221L259.419 677.684L264.846 672.354Z" fill="#B02785"/>
</g>
<defs>
<clipPath id="clip0_1465_30881">
<rect width="21" height="21" fill="white" transform="translate(454.728 12.8742)"/>
</clipPath>
<clipPath id="clip1_1465_30881">
<rect width="21" height="21" fill="white" transform="translate(344.091 121.792)"/>
</clipPath>
<clipPath id="clip2_1465_30881">
<rect width="21" height="21" fill="white" transform="translate(463.525 230.916)"/>
</clipPath>
<clipPath id="clip3_1465_30881">
<rect width="21" height="21" fill="white" transform="translate(198.327 349.795)"/>
</clipPath>
<clipPath id="clip4_1465_30881">
<rect width="18" height="21" fill="white" transform="translate(591.868 457.034)"/>
</clipPath>
</defs>
</svg>
