<svg width="706" height="720" viewBox="0 0 706 720" fill="none" xmlns="http://www.w3.org/2000/svg">
<path d="M6.19637 511.688C6.19637 511.688 -2.59067 527.554 3.89594 532.757C9.47423 537.229 313.911 676.904 398.977 715.863C401.82 717.167 404.895 717.886 408.021 717.978C411.147 718.07 414.259 717.534 417.174 716.4C420.088 715.267 422.745 713.559 424.987 711.379C427.229 709.199 429.01 706.591 430.225 703.709L634.055 220.846L215.051 21.9629L6.19637 511.688Z" fill="#B02785" stroke="#B02785" stroke-width="3" stroke-miterlimit="10"/>
<path d="M88.1887 447.42L415.87 648.338L688.938 239.488C649.856 216.44 558.066 166.336 503.552 150.303C449.039 134.269 345.223 80.825 300.129 56.1069L88.1887 447.42Z" fill="#B02785" stroke="white" stroke-width="3"/>
<path d="M703.468 334.185L438.417 681.908L87.1868 481.992C185.391 399.02 287.77 204.248 326.685 117.234L703.468 334.185Z" fill="white" stroke="#B02785" stroke-width="3"/>
<path d="M658.452 354.191C647.198 344.157 634.924 335.328 621.832 327.85C621.494 327.669 621.099 327.626 620.73 327.73C620.361 327.835 620.047 328.078 619.854 328.409C619.661 328.741 619.604 329.134 619.694 329.507C619.785 329.879 620.017 330.202 620.341 330.407C633.217 337.753 645.288 346.426 656.358 356.284C657.78 357.548 659.873 355.465 658.452 354.191Z" fill="#B02785"/>
<path d="M644.215 370.75C638.857 365.821 633.255 361.165 627.43 356.799C624.534 354.627 621.592 352.53 618.604 350.51C617.116 349.503 615.606 348.515 614.072 347.548L611.782 346.106C611.107 345.591 610.362 345.176 609.57 344.872C609.318 344.801 609.052 344.798 608.798 344.864C608.545 344.93 608.314 345.062 608.129 345.247C607.926 345.474 607.784 345.747 607.713 346.042C607.642 346.337 607.645 346.645 607.723 346.938C607.8 347.231 607.949 347.501 608.156 347.723C608.363 347.945 608.621 348.112 608.909 348.209C609.16 348.284 609.427 348.288 609.681 348.222C609.935 348.156 610.167 348.022 610.35 347.834L610.449 347.745C611.87 346.472 609.767 344.379 608.356 345.652L608.257 345.741L609.698 345.356H609.609L610.498 346.037L610.597 346.393L610.162 347.439L610.222 347.36L608.78 347.745C609.529 348.085 610.23 348.524 610.863 349.048C611.633 349.522 612.394 350.036 613.154 350.49C614.549 351.392 615.932 352.303 617.301 353.225C620.223 355.199 623.099 357.253 625.93 359.386C631.544 363.606 636.941 368.108 642.102 372.872C643.494 374.166 645.597 372.073 644.195 370.779L644.215 370.75Z" fill="#B02785"/>
<path d="M625.555 386.675C616.075 378.141 606.006 370.285 595.422 363.167C593.833 362.1 592.352 364.667 593.922 365.724C604.296 372.7 614.164 380.4 623.452 388.768C624.874 390.041 626.967 387.958 625.555 386.675Z" fill="#B02785"/>
<path d="M614.743 403.982C605.037 394.57 593.574 387.159 581.007 382.172C579.23 381.461 578.46 384.325 580.217 385.026C592.301 389.852 603.321 397.004 612.65 406.075C614.022 407.408 616.116 405.315 614.743 403.982Z" fill="#B02785"/>
<path d="M599.677 420.47C590.514 412.894 580.921 405.853 570.946 399.381C570.721 399.255 570.466 399.19 570.208 399.191C569.95 399.192 569.696 399.26 569.472 399.389C569.247 399.517 569.059 399.701 568.927 399.922C568.794 400.144 568.722 400.397 568.715 400.655C568.694 401.37 568.883 402.075 569.259 402.684C569.634 403.293 570.18 403.778 570.828 404.081C572.546 404.861 574.057 402.304 572.319 401.524C571.875 401.316 571.677 401.158 571.677 400.655L569.446 401.938C579.215 408.254 588.61 415.131 597.584 422.534C599.045 423.738 601.148 421.655 599.677 420.441V420.47Z" fill="#B02785"/>
<path d="M583.841 446.692C577.883 435.445 569.144 425.911 558.457 418.998C556.858 417.962 555.367 420.529 556.966 421.555C567.217 428.217 575.59 437.394 581.284 448.213C582.172 449.901 584.729 448.4 583.841 446.712V446.692Z" fill="#B02785"/>
<path d="M606.266 309.133C568.67 352.1 470.317 568.673 430.4 676.396L45.6003 500.531L255.036 2.49561C292.614 12.3494 378.693 42.4787 422.384 84.1654C466.074 125.852 602.258 179.363 664.888 200.908C664.053 222.286 644.846 265.041 606.266 309.133Z" fill="white" stroke="#B02785" stroke-width="3"/>
<path d="M626.591 228.932C617.775 227.454 609.277 224.479 601.464 220.135L555.614 202.363L550.519 257.337L580.77 265.176C589.23 268.256 597.133 272.691 604.17 278.307C614.043 264.761 612.828 245.045 623.975 232.545" fill="#B02785"/>
<path d="M411.361 686.919L19.546 526.585C10.7277 522.962 8.85715 508.541 12.5315 503.537C71.9884 354.728 192.606 51.9988 199.42 31.5563C206.234 11.1138 219.963 15.022 225.975 19.5313C337.874 64.4581 567.485 156.316 590.733 164.332C613.982 172.349 607.769 190.721 601.756 198.904L510.066 408.841L527.101 416.857C559.969 432.891 552.821 462.953 545.139 475.98C519.753 533.433 466.575 653.85 456.955 675.896C447.335 697.942 422.551 692.43 411.361 686.919Z" fill="white" stroke="#B02785" stroke-width="3"/>
<path d="M421.381 117.234C420.58 133.267 354.242 227.797 321.173 273.058C253.031 273.058 202.259 223.288 185.391 198.403C224.673 172.749 268.564 84.8334 285.599 44.082C331.194 61.7855 422.183 101.201 421.381 117.234Z" fill="#B02785"/>
<path d="M393.323 180.866C386.91 159.221 395.995 86.6704 401.34 53.1006C353.741 79.6558 294.618 81.1589 294.618 81.1589C300.799 85.0785 296.343 171.906 281.591 204.916H350.735C367.603 205.918 399.737 202.511 393.323 180.866Z" fill="white" stroke="#B02785" stroke-width="3"/>
<path d="M229.545 198.464C248.427 211.172 268.502 222.011 289.485 230.828C295.409 233.322 301.415 235.652 307.503 237.818C309.162 238.41 309.952 236.011 308.638 235.113L302.961 231.213C301.392 230.137 299.901 232.704 301.471 233.77L307.148 237.67L308.283 234.965C287.019 227.367 266.547 217.711 247.159 206.135C241.689 202.877 236.321 199.468 231.056 195.907C229.466 194.84 227.985 197.398 229.565 198.464H229.545Z" fill="white"/>
<path d="M247.969 180.406C250.41 174.565 254.556 169.596 259.866 166.149L257.644 164.865L256.371 188.896C256.372 189.156 256.442 189.41 256.572 189.634C256.703 189.858 256.89 190.043 257.115 190.172C257.34 190.301 257.595 190.369 257.854 190.368C258.113 190.368 258.368 190.3 258.592 190.17L269.067 184.068C270.633 182.991 272.284 182.044 274.004 181.235C275.514 180.672 276.048 181.531 276.452 182.844C277.183 185.204 277.617 187.583 279.789 189.074C281.646 190.348 284.035 190.496 286.207 190.446C288.633 190.231 291.07 190.178 293.503 190.289C294.616 190.356 295.686 190.74 296.587 191.396C297.488 192.052 298.182 192.953 298.588 193.991C299.19 195.294 299.575 196.676 300.296 197.94C301.088 199.344 302.214 200.531 303.574 201.396C306.536 203.37 310.337 204.308 313.654 205.552L339.551 215.198C341.338 215.87 342.108 213.006 340.331 212.345L316.794 203.518L311.028 201.376C309.288 200.8 307.59 200.108 305.943 199.303C304.566 198.601 303.446 197.481 302.744 196.104C302.043 194.722 301.619 193.211 300.888 191.839C298.193 186.714 292.536 187.159 287.56 187.415C285.585 187.514 282.998 187.791 281.33 186.497C279.503 185.076 279.72 182.163 278.634 180.257C278.273 179.58 277.734 179.015 277.074 178.624C276.414 178.232 275.66 178.029 274.892 178.036C272.839 178.095 270.943 179.527 269.255 180.514L257.111 187.593L259.342 188.877L260.606 164.846C260.603 164.586 260.531 164.332 260.4 164.109C260.268 163.885 260.08 163.7 259.854 163.571C259.629 163.442 259.374 163.375 259.115 163.375C258.855 163.375 258.6 163.443 258.375 163.572C252.416 167.453 247.789 173.066 245.115 179.655C244.385 181.413 247.248 182.183 247.969 180.435V180.406Z" fill="white"/>
<path d="M262.264 144.497C264.904 140.125 268.445 136.366 272.651 133.469L270.627 132.936C272.453 136.984 271.338 141.822 273.766 145.692C276.393 149.878 281.872 150.717 286.226 152.07C296.89 155.393 307.32 159.427 317.445 164.145C323.191 166.823 328.825 169.713 334.348 172.813C336.016 173.741 337.517 171.184 335.848 170.256C326.287 164.898 316.394 160.156 306.229 156.059C301.2 154.038 296.113 152.175 290.965 150.47C288.372 149.621 285.762 148.808 283.136 148.032C281.023 147.41 278.713 146.778 277.113 145.159C275.514 143.539 275.139 140.953 274.843 138.702C274.681 136.213 274.132 133.764 273.214 131.445C273.117 131.276 272.987 131.128 272.832 131.01C272.678 130.892 272.501 130.805 272.313 130.756C272.125 130.706 271.928 130.694 271.736 130.721C271.543 130.748 271.357 130.813 271.19 130.912C266.538 134.078 262.616 138.201 259.687 143.006C258.7 144.645 261.257 146.126 262.245 144.497H262.264Z" fill="white"/>
<path d="M277.124 106.782C281.656 121.108 299.19 123.892 310.337 131.119C313.64 133.141 316.43 135.898 318.492 139.175C318.697 139.5 319.02 139.731 319.392 139.822C319.765 139.913 320.158 139.856 320.49 139.663C320.821 139.47 321.064 139.156 321.169 138.787C321.273 138.418 321.23 138.023 321.049 137.685C313.427 124.85 296.939 123.596 286.158 114.73C283.293 112.479 281.145 109.443 279.977 105.992C279.405 104.175 276.541 105.005 277.124 106.782Z" fill="white"/>
<path d="M306.851 99.7624C325.956 99.7624 345.218 99.0812 363.927 94.9246C366.475 94.352 369.009 93.7168 371.53 93.0191C372.873 92.644 374.196 92.249 375.479 91.8344C376.071 91.6566 376.654 91.4691 377.246 91.2716C377.503 91.1827 377.868 91.1038 378.125 90.9853L378.392 90.8964C379.162 90.7878 379.507 90.1362 379.428 88.9218L380.109 89.8104V89.7117L379.961 90.8569L380.021 90.7187C380.791 88.9909 378.234 87.4803 377.463 89.2279C377.266 89.6309 377.226 90.0932 377.352 90.524C377.478 90.9548 377.761 91.3227 378.145 91.5555C378.529 91.7882 378.986 91.8689 379.426 91.7817C379.866 91.6944 380.258 91.4455 380.524 91.084C380.839 90.7162 380.998 90.2398 380.967 89.7565C380.935 89.2732 380.716 88.8213 380.356 88.4973C379.958 88.1825 379.485 87.9755 378.984 87.8959C378.483 87.8164 377.969 87.8671 377.493 88.0431C374.768 88.7737 372.112 89.761 369.387 90.4916C366.662 91.2222 363.72 91.9232 360.867 92.4662C349.475 94.7193 337.918 96.0401 326.311 96.4155C319.815 96.6919 313.308 96.761 306.812 96.7512C306.419 96.7512 306.042 96.9072 305.765 97.1849C305.487 97.4626 305.331 97.8393 305.331 98.2321C305.331 98.6249 305.487 99.0016 305.765 99.2793C306.042 99.557 306.419 99.7131 306.812 99.7131L306.851 99.7624Z" fill="#B02785"/>
<path d="M309.201 119.696C329.592 122.064 350.248 120.537 370.069 115.194L372.043 114.641C372.762 114.344 373.51 114.126 374.275 113.989C374.699 113.989 374.857 113.989 374.936 114.591C375.153 116.092 373.85 114.276 374.196 114.019C375.706 112.893 374.196 110.316 372.695 111.462C372.289 111.766 371.952 112.153 371.705 112.595C371.458 113.038 371.306 113.528 371.26 114.033C371.213 114.538 371.273 115.047 371.435 115.527C371.597 116.008 371.858 116.449 372.201 116.823C372.495 117.225 372.88 117.552 373.325 117.777C373.769 118.002 374.26 118.12 374.758 118.12C375.256 118.12 375.748 118.002 376.192 117.777C376.636 117.552 377.021 117.225 377.315 116.823C377.795 116.024 377.985 115.085 377.854 114.162C377.723 113.24 377.278 112.391 376.595 111.758C376.238 111.436 375.812 111.201 375.349 111.073C374.887 110.944 374.4 110.925 373.929 111.017C372.28 111.343 370.641 112.005 368.992 112.419C356.558 115.755 343.764 117.566 330.892 117.81C323.636 117.95 316.379 117.597 309.171 116.754C307.276 116.536 307.296 119.498 309.171 119.716L309.201 119.696Z" fill="#B02785"/>
<path d="M307.266 137.202C324.845 140.527 342.842 141.034 360.581 138.702C365.626 138.031 370.651 137.142 375.617 136.027C377.474 135.612 376.694 132.759 374.828 133.173C357.793 137.007 340.259 138.126 322.875 136.491C317.906 136.017 312.969 135.313 308.066 134.378C306.21 134.032 305.41 136.886 307.276 137.241L307.266 137.202Z" fill="#B02785"/>
<path d="M306.546 155.861C315.767 157.105 324.989 158.419 334.19 159.574C343.175 160.699 352.258 161.351 361.223 159.682C366.061 158.764 370.764 157.242 375.223 155.151C376.951 154.361 375.45 151.804 373.732 152.593C365.972 156.124 357.525 157.888 349 157.757C340.114 157.698 331.228 156.227 322.431 155.042L307.336 152.998C306.957 152.91 306.558 152.968 306.22 153.16C305.882 153.352 305.628 153.664 305.509 154.035C305.406 154.408 305.452 154.806 305.636 155.146C305.82 155.487 306.128 155.743 306.496 155.861H306.546Z" fill="#B02785"/>
<path d="M303.238 184.523C317.972 188.372 333.547 187.438 347.716 181.858C351.671 180.294 355.478 178.377 359.09 176.131C360.699 175.144 359.218 172.567 357.599 173.574C345.219 181.238 330.732 184.79 316.211 183.724C312.093 183.408 308.014 182.707 304.028 181.631C303.653 181.539 303.258 181.596 302.926 181.791C302.594 181.986 302.35 182.303 302.248 182.674C302.145 183.045 302.191 183.442 302.376 183.78C302.56 184.118 302.87 184.37 303.238 184.484V184.523Z" fill="#B02785"/>
<path d="M377.711 201.767C377.711 201.767 380.673 180.391 373.762 174.329C366.85 168.267 394.692 172.187 394.692 172.187C394.692 172.187 396.41 185.022 392.984 188.547C389.558 192.071 384.75 199.249 377.711 201.767Z" fill="white" stroke="#B02785" stroke-width="3" stroke-miterlimit="10"/>
<path d="M323.863 46.7837C322.954 42.4691 322.263 37.9868 320.032 34.1066C318.849 32.1472 317.231 30.4861 315.303 29.2518C313.375 28.0174 311.189 27.2429 308.915 26.9881C303.978 26.3168 298.884 28.2321 296.988 33.1786C296.269 35.3777 296.087 37.7168 296.455 40.0009C296.82 43.0319 297.363 46.0333 297.827 49.0446L300.592 67.1025L301.984 76.1166C302.245 78.6217 302.738 81.0972 303.455 83.5116C305.163 88.3296 309.3 91.9333 314.612 91.7852C317.04 91.7161 321.128 90.4622 321.128 87.441C320.955 85.865 320.624 84.3104 320.14 82.8007L319.153 78.4565C316.211 64.9699 313.272 51.4767 310.336 37.9769C310.233 37.6015 310.057 37.2502 309.819 36.9428C309.58 36.6355 309.283 36.3782 308.944 36.1857C308.606 35.9931 308.233 35.8691 307.847 35.8207C307.461 35.7723 307.069 35.8005 306.693 35.9035C306.318 36.0066 305.967 36.1826 305.659 36.4215C305.352 36.6603 305.095 36.9574 304.902 37.2957C304.71 37.634 304.586 38.0069 304.537 38.3931C304.489 38.7794 304.517 39.1713 304.62 39.5467L315.224 88.2013L315.994 85.3282C315.799 85.5249 315.553 85.6619 315.283 85.7231C315.283 85.7231 314.296 85.8712 314.848 85.8219C314.641 85.8219 314.424 85.8219 314.207 85.8219C313.188 85.7885 312.197 85.4852 311.334 84.9432C310.49 84.3243 309.812 83.5071 309.359 82.5637C308.825 81.3003 308.456 79.9728 308.263 78.6145C307.078 71.3775 306.091 64.032 304.936 56.7259L303.198 45.5199C302.714 42.4494 301.855 39.4282 302.211 36.3577C302.307 35.4807 302.669 34.6541 303.248 33.9881C303.248 33.9881 304.067 33.3267 303.623 33.6327C303.871 33.4657 304.132 33.3172 304.403 33.1884L304.531 33.1292C304.917 32.9939 305.313 32.8883 305.716 32.8133C306.703 32.6355 305.212 32.8133 306.19 32.7639C306.506 32.7639 306.832 32.7639 307.177 32.7639C307.574 32.7652 307.97 32.7983 308.362 32.8626C309.539 33.0635 310.676 33.4536 311.729 34.0178C313.865 35.2881 315.42 37.3431 316.063 39.7442C316.92 42.5659 317.603 45.4378 318.107 48.3436C318.316 49.1017 318.818 49.7455 319.502 50.1334C320.186 50.5213 320.997 50.6215 321.755 50.412C322.513 50.2026 323.157 49.7005 323.544 49.0164C323.932 48.3322 324.033 47.522 323.823 46.7639L323.863 46.7837Z" fill="#B02785"/>
</svg>
