<svg width="411" height="168" viewBox="0 0 411 168" fill="none" xmlns="http://www.w3.org/2000/svg">
<rect x="1.5" y="1.61279" width="177" height="164" fill="white"/>
<rect x="1.5" y="1.61279" width="177" height="164" stroke="#B02785" stroke-width="3"/>
<g clip-path="url(#clip0_2128_13154)">
<rect width="136.7" height="164.4" transform="translate(22 1.39453)" fill="white"/>
<path fill-rule="evenodd" clip-rule="evenodd" d="M54.4999 16.9945C54.4999 8.28016 62.4602 1.39453 70.4999 1.39453C78.7056 1.39453 85.2999 8.44553 85.2999 16.9945V42.4295C87.8465 39.5294 91.7552 37.8945 95.9999 37.8945C103.463 37.8945 109.7 42.8096 109.7 50.6945V50.9974C112.208 47.7148 116.115 45.5945 120.5 45.5945C127.398 45.5945 133.113 50.842 134.062 57.6075C136.551 54.3204 140.45 52.1945 144.9 52.1945C152.46 52.1945 158.6 58.4979 158.6 66.1945V105.095C158.6 138.445 134.696 165.795 104.7 165.795C88.8346 165.795 73.4185 158.081 63.5448 145.752L25.5596 101.469C20.3458 95.3677 20.7825 85.8583 26.6706 80.3034C32.588 74.721 41.6855 75.1589 46.9489 81.4302L55.068 91.128L54.4999 16.9945ZM131.2 59.5945C131.2 53.4912 126.34 48.5945 120.5 48.5945C114.66 48.5945 109.8 53.4912 109.8 59.5945H109.7V96.4945H106.7V50.6945C106.7 44.7795 102.137 40.8945 95.9999 40.8945C89.9543 40.8945 85.2999 44.787 85.2999 50.6945V88.1945H82.2999V16.9945C82.2999 9.94353 76.8943 4.39453 70.4999 4.39453C63.9414 4.39453 57.5033 10.1059 57.4999 16.9892C57.4999 16.991 57.4999 16.9927 57.4999 16.9945L58.1319 99.4611L44.651 83.3588C40.5144 78.4302 33.4119 78.0681 28.7293 82.4856C24.0174 86.9307 23.6541 94.6213 27.8403 99.5201L65.8552 143.837L65.8713 143.857C75.1982 155.516 89.7739 162.795 104.7 162.795C132.704 162.795 155.6 137.144 155.6 105.095V66.1945C155.6 60.0912 150.74 55.1945 144.9 55.1945C138.968 55.1945 134.2 60.0831 134.2 66.1945V106.895H131.2V59.5945Z" fill="#B02785"/>
</g>
<rect x="232.5" y="1.61279" width="177" height="164" fill="white"/>
<rect x="232.5" y="1.61279" width="177" height="164" stroke="#B02785" stroke-width="3"/>
<g clip-path="url(#clip1_2128_13154)">
<rect width="146.7" height="156.9" transform="translate(248 5.39453)" fill="white"/>
<path fill-rule="evenodd" clip-rule="evenodd" d="M321.4 8.39453C297.828 8.39453 278.7 27.523 278.7 51.0945C278.7 73.8838 296.484 92.5133 318.956 93.7312C319.735 93.7068 320.516 93.6945 321.3 93.6945C322.084 93.6945 322.866 93.7068 323.644 93.7312C346.127 92.5132 364 73.8797 364 51.0945C364 27.5185 344.967 8.39453 321.4 8.39453ZM334.46 94.8693C353.279 89.2148 367 71.7488 367 51.0945C367 25.8705 346.633 5.39453 321.4 5.39453C296.172 5.39453 275.7 25.8661 275.7 51.0945C275.7 71.7445 289.35 89.2123 308.145 94.8684C275.442 100.777 250.251 128.318 247.904 162.09L250.896 162.299C253.388 126.459 282.705 97.933 318.925 96.7338C319.711 96.7741 320.503 96.7945 321.3 96.7945C322.097 96.7945 322.888 96.7741 323.675 96.7338C359.895 97.933 389.212 126.459 391.704 162.299L394.696 162.09C392.349 128.32 367.161 100.78 334.46 94.8693Z" fill="#B02785"/>
</g>
<defs>
<clipPath id="clip0_2128_13154">
<rect width="136.7" height="164.4" fill="white" transform="translate(22 1.39453)"/>
</clipPath>
<clipPath id="clip1_2128_13154">
<rect width="146.7" height="156.9" fill="white" transform="translate(248 5.39453)"/>
</clipPath>
</defs>
</svg>
