<svg width="1440" height="112" viewBox="0 0 1440 112" fill="none" xmlns="http://www.w3.org/2000/svg">
<rect x="12.5" y="7.12134" width="714" height="104" rx="52" stroke="black"/>
<path d="M78.88 75.6213C76.288 75.6213 73.984 75.1093 71.968 74.0853C69.952 73.0293 68.368 71.5733 67.216 69.7173C66.064 67.8613 65.488 65.7013 65.488 63.2373C65.488 60.7733 66.064 58.6133 67.216 56.7573C68.368 54.8693 69.952 53.3973 71.968 52.3413C73.984 51.2853 76.288 50.7573 78.88 50.7573H83.776V58.3413H79.696C78.672 58.3413 77.776 58.5653 77.008 59.0133C76.272 59.4293 75.696 60.0053 75.28 60.7413C74.864 61.4773 74.656 62.3093 74.656 63.2373C74.656 64.1653 74.864 65.0133 75.28 65.7813C75.696 66.5173 76.272 67.1093 77.008 67.5573C77.776 67.9733 78.672 68.1813 79.696 68.1813H83.776V75.6213H78.88ZM100.167 76.1973C97.6709 76.1973 95.3829 75.6533 93.3029 74.5653C91.2549 73.4773 89.6069 71.9573 88.3589 70.0053C87.1429 68.0213 86.5349 65.7493 86.5349 63.1893C86.5349 60.6293 87.1429 58.3733 88.3589 56.4213C89.6069 54.4693 91.2709 52.9493 93.3509 51.8613C95.4309 50.7413 97.7189 50.1813 100.215 50.1813C102.711 50.1813 104.983 50.7413 107.031 51.8613C109.079 52.9493 110.711 54.4693 111.927 56.4213C113.143 58.3733 113.751 60.6293 113.751 63.1893C113.751 65.7493 113.143 68.0213 111.927 70.0053C110.711 71.9573 109.063 73.4773 106.983 74.5653C104.935 75.6533 102.663 76.1973 100.167 76.1973ZM100.167 67.9413C101.031 67.9413 101.799 67.7333 102.471 67.3173C103.143 66.9013 103.655 66.3413 104.007 65.6373C104.391 64.9013 104.583 64.0693 104.583 63.1413C104.583 62.2133 104.391 61.3973 104.007 60.6933C103.655 59.9893 103.143 59.4293 102.471 59.0133C101.799 58.5973 101.031 58.3893 100.167 58.3893C99.3029 58.3893 98.5349 58.5973 97.8629 59.0133C97.1909 59.4293 96.6629 59.9893 96.2789 60.6933C95.8949 61.3973 95.7029 62.2133 95.7029 63.1413C95.7029 64.0693 95.8949 64.9013 96.2789 65.6373C96.6629 66.3413 97.1909 66.9013 97.8629 67.3173C98.5349 67.7333 99.3029 67.9413 100.167 67.9413ZM117.298 75.6213V61.3173C117.298 59.1733 117.842 57.2693 118.93 55.6053C120.018 53.9093 121.538 52.5813 123.49 51.6213C125.442 50.6613 127.714 50.1813 130.306 50.1813C132.898 50.1813 135.138 50.6613 137.026 51.6213C138.914 52.5813 140.354 53.9093 141.346 55.6053C142.37 57.2693 142.882 59.1733 142.882 61.3173V75.6213H133.666V61.8933C133.666 61.2853 133.522 60.7253 133.234 60.2133C132.946 59.6693 132.53 59.2373 131.986 58.9173C131.474 58.5653 130.85 58.3893 130.114 58.3893C129.378 58.3893 128.722 58.5653 128.146 58.9173C127.602 59.2373 127.186 59.6693 126.898 60.2133C126.61 60.7253 126.466 61.2853 126.466 61.8933V75.6213H117.298ZM146.97 75.6213V69.0933H158.586C158.842 69.0933 159.05 69.0453 159.21 68.9493C159.37 68.8213 159.498 68.6773 159.594 68.5173C159.69 68.3253 159.738 68.1333 159.738 67.9413C159.738 67.7493 159.69 67.5733 159.594 67.4133C159.498 67.2213 159.37 67.0773 159.21 66.9813C159.05 66.8853 158.842 66.8373 158.586 66.8373H154.842C153.21 66.8373 151.722 66.5653 150.378 66.0213C149.034 65.4453 147.962 64.5653 147.162 63.3813C146.394 62.1653 146.01 60.6133 146.01 58.7253C146.01 57.2533 146.362 55.9253 147.066 54.7413C147.802 53.5253 148.794 52.5653 150.042 51.8613C151.29 51.1253 152.666 50.7573 154.17 50.7573H166.794V57.2853H156.33C156.01 57.2853 155.738 57.3973 155.514 57.6213C155.322 57.8453 155.226 58.1013 155.226 58.3893C155.226 58.6773 155.322 58.9333 155.514 59.1573C155.738 59.3813 156.01 59.4933 156.33 59.4933H159.786C161.642 59.4933 163.242 59.7813 164.586 60.3573C165.962 60.9013 167.018 61.7653 167.754 62.9493C168.49 64.1333 168.858 65.6693 168.858 67.5573C168.858 69.0293 168.474 70.3733 167.706 71.5893C166.97 72.8053 165.978 73.7813 164.73 74.5173C163.482 75.2533 162.074 75.6213 160.506 75.6213H146.97ZM181.426 75.6213C178.994 75.6213 177.09 74.9333 175.714 73.5573C174.338 72.1813 173.65 70.3093 173.65 67.9413V44.9973H182.866V67.0773C182.866 67.3973 182.978 67.6693 183.202 67.8933C183.426 68.0853 183.698 68.1813 184.018 68.1813H189.442V75.6213H181.426ZM169.906 57.7653V50.7573H189.442V57.7653H169.906ZM192.999 75.6213V58.4853C192.999 56.1173 193.687 54.2453 195.063 52.8693C196.439 51.4933 198.359 50.8053 200.823 50.8053H208.791V57.7653H204.039C203.495 57.7653 203.047 57.9413 202.695 58.2933C202.375 58.6133 202.215 59.0453 202.215 59.5893V75.6213H192.999ZM224.525 76.2453C221.933 76.2453 219.661 75.7653 217.709 74.8053C215.757 73.8133 214.237 72.4853 213.149 70.8213C212.061 69.1253 211.517 67.2053 211.517 65.0613V50.7573H220.685V64.4853C220.685 65.0613 220.829 65.6213 221.117 66.1653C221.405 66.7093 221.821 67.1573 222.365 67.5093C222.941 67.8293 223.597 67.9893 224.333 67.9893C225.069 67.9893 225.693 67.8293 226.205 67.5093C226.749 67.1573 227.165 66.7093 227.453 66.1653C227.741 65.6213 227.885 65.0613 227.885 64.4853V50.7573H237.101V65.0613C237.101 67.2053 236.589 69.1253 235.565 70.8213C234.573 72.4853 233.133 73.8133 231.245 74.8053C229.357 75.7653 227.117 76.2453 224.525 76.2453ZM249.349 85.3653V75.5253C247.685 75.0133 246.229 74.2613 244.981 73.2693C243.765 72.2453 242.821 71.0453 242.149 69.6693C241.509 68.2613 241.189 66.7253 241.189 65.0613V50.7573H250.357V64.3893C250.357 64.9973 250.501 65.5733 250.789 66.1173C251.077 66.6613 251.493 67.1093 252.037 67.4613C252.581 67.8133 253.221 67.9893 253.957 67.9893C254.725 67.9893 255.365 67.8133 255.877 67.4613C256.421 67.1093 256.821 66.6613 257.077 66.1173C257.365 65.5733 257.509 64.9973 257.509 64.3893V50.7573H266.725V65.0613C266.725 66.7253 266.405 68.2773 265.765 69.7173C265.125 71.1253 264.197 72.3413 262.981 73.3653C261.765 74.3573 260.293 75.0933 258.565 75.5733V85.3653H249.349ZM281.277 76.2453C279.197 76.2453 277.325 75.7173 275.661 74.6613C273.997 73.6053 272.685 72.1493 271.725 70.2933C270.765 68.4053 270.285 66.2133 270.285 63.7173C270.285 61.0613 270.877 58.7253 272.061 56.7093C273.245 54.6613 274.877 53.0613 276.957 51.9093C279.069 50.7573 281.517 50.1813 284.301 50.1813C287.021 50.1813 289.389 50.7413 291.405 51.8613C293.421 52.9493 294.989 54.4853 296.109 56.4693C297.261 58.4213 297.837 60.6933 297.837 63.2853V75.6213H289.101V71.9253H288.813C288.397 72.7893 287.837 73.5573 287.133 74.2293C286.461 74.8693 285.645 75.3653 284.685 75.7173C283.725 76.0693 282.589 76.2453 281.277 76.2453ZM284.109 68.1813C284.973 68.1813 285.725 67.9733 286.365 67.5573C287.037 67.1413 287.549 66.5653 287.901 65.8293C288.285 65.0613 288.477 64.1973 288.477 63.2373C288.477 62.3093 288.285 61.4933 287.901 60.7893C287.549 60.0853 287.037 59.5253 286.365 59.1093C285.725 58.6933 284.973 58.4853 284.109 58.4853C283.277 58.4853 282.525 58.6933 281.853 59.1093C281.181 59.5253 280.653 60.0853 280.269 60.7893C279.917 61.4933 279.741 62.3093 279.741 63.2373C279.741 64.1973 279.917 65.0613 280.269 65.8293C280.653 66.5653 281.181 67.1413 281.853 67.5573C282.525 67.9733 283.277 68.1813 284.109 68.1813ZM301.986 75.6213V61.1253C301.986 58.8853 302.482 56.9493 303.474 55.3173C304.466 53.6853 305.842 52.4213 307.602 51.5253C309.394 50.6293 311.49 50.1813 313.89 50.1813C315.138 50.1813 316.29 50.3093 317.346 50.5653C318.402 50.7893 319.346 51.1093 320.178 51.5253C321.01 51.9093 321.714 52.3573 322.29 52.8693H322.434C323.042 52.3573 323.746 51.9093 324.546 51.5253C325.378 51.1093 326.322 50.7893 327.378 50.5653C328.434 50.3093 329.586 50.1813 330.834 50.1813C333.266 50.1813 335.378 50.6293 337.17 51.5253C338.962 52.4213 340.354 53.6853 341.346 55.3173C342.338 56.9493 342.834 58.8853 342.834 61.1253V75.6213H333.57V61.7493C333.57 61.1413 333.442 60.5973 333.186 60.1173C332.93 59.6053 332.562 59.1893 332.082 58.8693C331.602 58.5493 331.01 58.3893 330.306 58.3893C329.602 58.3893 328.994 58.5493 328.482 58.8693C328.002 59.1893 327.634 59.6053 327.378 60.1173C327.122 60.5973 326.994 61.1413 326.994 61.7493V75.6213H317.826V61.7493C317.826 61.1413 317.682 60.5973 317.394 60.1173C317.138 59.6053 316.754 59.1893 316.242 58.8693C315.73 58.5493 315.122 58.3893 314.418 58.3893C313.746 58.3893 313.154 58.5493 312.642 58.8693C312.162 59.1893 311.794 59.6053 311.538 60.1173C311.282 60.5973 311.154 61.1413 311.154 61.7493V75.6213H301.986ZM359.948 76.1973C357.452 76.1973 355.164 75.6533 353.084 74.5653C351.036 73.4773 349.388 71.9573 348.14 70.0053C346.924 68.0213 346.316 65.7493 346.316 63.1893C346.316 60.6293 346.924 58.3733 348.14 56.4213C349.388 54.4693 351.052 52.9493 353.132 51.8613C355.212 50.7413 357.5 50.1813 359.996 50.1813C362.492 50.1813 364.764 50.7413 366.812 51.8613C368.86 52.9493 370.492 54.4693 371.708 56.4213C372.924 58.3733 373.532 60.6293 373.532 63.1893C373.532 65.7493 372.924 68.0213 371.708 70.0053C370.492 71.9573 368.844 73.4773 366.764 74.5653C364.716 75.6533 362.444 76.1973 359.948 76.1973ZM359.948 67.9413C360.812 67.9413 361.58 67.7333 362.252 67.3173C362.924 66.9013 363.436 66.3413 363.788 65.6373C364.172 64.9013 364.364 64.0693 364.364 63.1413C364.364 62.2133 364.172 61.3973 363.788 60.6933C363.436 59.9893 362.924 59.4293 362.252 59.0133C361.58 58.5973 360.812 58.3893 359.948 58.3893C359.084 58.3893 358.316 58.5973 357.644 59.0133C356.972 59.4293 356.444 59.9893 356.06 60.6933C355.676 61.3973 355.484 62.2133 355.484 63.1413C355.484 64.0693 355.676 64.9013 356.06 65.6373C356.444 66.3413 356.972 66.9013 357.644 67.3173C358.316 67.7333 359.084 67.9413 359.948 67.9413ZM377.08 75.6213V69.0933H388.696C388.952 69.0933 389.16 69.0453 389.32 68.9493C389.48 68.8213 389.608 68.6773 389.704 68.5173C389.8 68.3253 389.848 68.1333 389.848 67.9413C389.848 67.7493 389.8 67.5733 389.704 67.4133C389.608 67.2213 389.48 67.0773 389.32 66.9813C389.16 66.8853 388.952 66.8373 388.696 66.8373H384.952C383.32 66.8373 381.832 66.5653 380.488 66.0213C379.144 65.4453 378.072 64.5653 377.272 63.3813C376.504 62.1653 376.12 60.6133 376.12 58.7253C376.12 57.2533 376.472 55.9253 377.176 54.7413C377.912 53.5253 378.904 52.5653 380.152 51.8613C381.4 51.1253 382.776 50.7573 384.28 50.7573H396.904V57.2853H386.44C386.12 57.2853 385.848 57.3973 385.624 57.6213C385.432 57.8453 385.336 58.1013 385.336 58.3893C385.336 58.6773 385.432 58.9333 385.624 59.1573C385.848 59.3813 386.12 59.4933 386.44 59.4933H389.896C391.752 59.4933 393.352 59.7813 394.696 60.3573C396.072 60.9013 397.128 61.7653 397.864 62.9493C398.6 64.1333 398.968 65.6693 398.968 67.5573C398.968 69.0293 398.584 70.3733 397.816 71.5893C397.08 72.8053 396.088 73.7813 394.84 74.5173C393.592 75.2533 392.184 75.6213 390.616 75.6213H377.08ZM427.63 75.6213C425.038 75.6213 422.734 75.1093 420.718 74.0853C418.702 73.0293 417.118 71.5733 415.966 69.7173C414.814 67.8613 414.238 65.7013 414.238 63.2373C414.238 60.7733 414.814 58.6133 415.966 56.7573C417.118 54.8693 418.702 53.3973 420.718 52.3413C422.734 51.2853 425.038 50.7573 427.63 50.7573H432.526V58.3413H428.446C427.422 58.3413 426.526 58.5653 425.758 59.0133C425.022 59.4293 424.446 60.0053 424.03 60.7413C423.614 61.4773 423.406 62.3093 423.406 63.2373C423.406 64.1653 423.614 65.0133 424.03 65.7813C424.446 66.5173 425.022 67.1093 425.758 67.5573C426.526 67.9733 427.422 68.1813 428.446 68.1813H432.526V75.6213H427.63ZM448.917 76.1973C446.421 76.1973 444.133 75.6533 442.053 74.5653C440.005 73.4773 438.357 71.9573 437.109 70.0053C435.893 68.0213 435.285 65.7493 435.285 63.1893C435.285 60.6293 435.893 58.3733 437.109 56.4213C438.357 54.4693 440.021 52.9493 442.101 51.8613C444.181 50.7413 446.469 50.1813 448.965 50.1813C451.461 50.1813 453.733 50.7413 455.781 51.8613C457.829 52.9493 459.461 54.4693 460.677 56.4213C461.893 58.3733 462.501 60.6293 462.501 63.1893C462.501 65.7493 461.893 68.0213 460.677 70.0053C459.461 71.9573 457.813 73.4773 455.733 74.5653C453.685 75.6533 451.413 76.1973 448.917 76.1973ZM448.917 67.9413C449.781 67.9413 450.549 67.7333 451.221 67.3173C451.893 66.9013 452.405 66.3413 452.757 65.6373C453.141 64.9013 453.333 64.0693 453.333 63.1413C453.333 62.2133 453.141 61.3973 452.757 60.6933C452.405 59.9893 451.893 59.4293 451.221 59.0133C450.549 58.5973 449.781 58.3893 448.917 58.3893C448.053 58.3893 447.285 58.5973 446.613 59.0133C445.941 59.4293 445.413 59.9893 445.029 60.6933C444.645 61.3973 444.453 62.2133 444.453 63.1413C444.453 64.0693 444.645 64.9013 445.029 65.6373C445.413 66.3413 445.941 66.9013 446.613 67.3173C447.285 67.7333 448.053 67.9413 448.917 67.9413ZM466.048 75.6213V61.1253C466.048 58.8853 466.544 56.9493 467.536 55.3173C468.528 53.6853 469.904 52.4213 471.664 51.5253C473.456 50.6293 475.552 50.1813 477.952 50.1813C479.2 50.1813 480.352 50.3093 481.408 50.5653C482.464 50.7893 483.408 51.1093 484.24 51.5253C485.072 51.9093 485.776 52.3573 486.352 52.8693H486.496C487.104 52.3573 487.808 51.9093 488.608 51.5253C489.44 51.1093 490.384 50.7893 491.44 50.5653C492.496 50.3093 493.648 50.1813 494.896 50.1813C497.328 50.1813 499.44 50.6293 501.232 51.5253C503.024 52.4213 504.416 53.6853 505.408 55.3173C506.4 56.9493 506.896 58.8853 506.896 61.1253V75.6213H497.632V61.7493C497.632 61.1413 497.504 60.5973 497.248 60.1173C496.992 59.6053 496.624 59.1893 496.144 58.8693C495.664 58.5493 495.072 58.3893 494.368 58.3893C493.664 58.3893 493.056 58.5493 492.544 58.8693C492.064 59.1893 491.696 59.6053 491.44 60.1173C491.184 60.5973 491.056 61.1413 491.056 61.7493V75.6213H481.888V61.7493C481.888 61.1413 481.744 60.5973 481.456 60.1173C481.2 59.6053 480.816 59.1893 480.304 58.8693C479.792 58.5493 479.184 58.3893 478.48 58.3893C477.808 58.3893 477.216 58.5493 476.704 58.8693C476.224 59.1893 475.856 59.6053 475.6 60.1173C475.344 60.5973 475.216 61.1413 475.216 61.7493V75.6213H466.048ZM523.963 76.2453C521.371 76.2453 519.099 75.7653 517.147 74.8053C515.195 73.8133 513.675 72.4853 512.587 70.8213C511.499 69.1253 510.955 67.2053 510.955 65.0613V50.7573H520.123V64.4853C520.123 65.0613 520.267 65.6213 520.555 66.1653C520.843 66.7093 521.259 67.1573 521.803 67.5093C522.379 67.8293 523.035 67.9893 523.771 67.9893C524.507 67.9893 525.131 67.8293 525.643 67.5093C526.187 67.1573 526.603 66.7093 526.891 66.1653C527.179 65.6213 527.323 65.0613 527.323 64.4853V50.7573H536.539V65.0613C536.539 67.2053 536.027 69.1253 535.003 70.8213C534.011 72.4853 532.571 73.8133 530.683 74.8053C528.795 75.7653 526.555 76.2453 523.963 76.2453ZM540.627 75.6213V61.3173C540.627 59.1733 541.171 57.2693 542.259 55.6053C543.347 53.9093 544.867 52.5813 546.819 51.6213C548.771 50.6613 551.043 50.1813 553.635 50.1813C556.227 50.1813 558.467 50.6613 560.355 51.6213C562.243 52.5813 563.683 53.9093 564.675 55.6053C565.699 57.2693 566.211 59.1733 566.211 61.3173V75.6213H556.995V61.8933C556.995 61.2853 556.851 60.7253 556.563 60.2133C556.275 59.6693 555.859 59.2373 555.315 58.9173C554.803 58.5653 554.179 58.3893 553.443 58.3893C552.707 58.3893 552.051 58.5653 551.475 58.9173C550.931 59.2373 550.515 59.6693 550.227 60.2133C549.939 60.7253 549.795 61.2853 549.795 61.8933V75.6213H540.627ZM570.298 75.6213V50.7573H579.514V75.6213H570.298ZM574.906 48.2133C573.562 48.2133 572.41 47.7333 571.45 46.7733C570.49 45.7813 570.01 44.6293 570.01 43.3173C570.01 41.9733 570.49 40.8213 571.45 39.8613C572.41 38.8693 573.562 38.3733 574.906 38.3733C576.25 38.3733 577.402 38.8693 578.362 39.8613C579.322 40.8213 579.802 41.9733 579.802 43.3173C579.802 44.6293 579.322 45.7813 578.362 46.7733C577.402 47.7333 576.25 48.2133 574.906 48.2133ZM596.859 76.2453C594.779 76.2453 592.891 75.9253 591.195 75.2853C589.531 74.6453 588.091 73.7333 586.875 72.5493C585.659 71.3333 584.715 69.9093 584.043 68.2773C583.403 66.6453 583.083 64.8373 583.083 62.8533C583.083 60.2933 583.611 58.0693 584.667 56.1813C585.723 54.2933 587.131 52.8213 588.891 51.7653C590.683 50.7093 592.683 50.1813 594.891 50.1813C595.787 50.1813 596.603 50.2773 597.339 50.4693C598.107 50.6293 598.811 50.9013 599.451 51.2853C600.091 51.6693 600.651 52.1493 601.131 52.7253H601.419V40.5813H610.635V62.7573C610.635 65.4773 610.059 67.8453 608.907 69.8613C607.755 71.8773 606.139 73.4453 604.059 74.5653C602.011 75.6853 599.611 76.2453 596.859 76.2453ZM596.859 68.1813C597.723 68.1813 598.475 67.9733 599.115 67.5573C599.787 67.1413 600.299 66.5653 600.651 65.8293C601.035 65.0613 601.227 64.1973 601.227 63.2373C601.227 62.3093 601.035 61.4933 600.651 60.7893C600.299 60.0853 599.787 59.5253 599.115 59.1093C598.475 58.6933 597.723 58.4853 596.859 58.4853C596.027 58.4853 595.275 58.6933 594.603 59.1093C593.931 59.5253 593.403 60.0853 593.019 60.7893C592.667 61.4933 592.491 62.3093 592.491 63.2373C592.491 64.1973 592.667 65.0613 593.019 65.8293C593.403 66.5653 593.931 67.1413 594.603 67.5573C595.275 67.9733 596.027 68.1813 596.859 68.1813ZM625.105 76.2453C623.025 76.2453 621.153 75.7173 619.489 74.6613C617.825 73.6053 616.513 72.1493 615.553 70.2933C614.593 68.4053 614.113 66.2133 614.113 63.7173C614.113 61.0613 614.705 58.7253 615.889 56.7093C617.073 54.6613 618.705 53.0613 620.785 51.9093C622.897 50.7573 625.345 50.1813 628.129 50.1813C630.849 50.1813 633.217 50.7413 635.233 51.8613C637.249 52.9493 638.817 54.4853 639.937 56.4693C641.089 58.4213 641.665 60.6933 641.665 63.2853V75.6213H632.929V71.9253H632.641C632.225 72.7893 631.665 73.5573 630.961 74.2293C630.289 74.8693 629.473 75.3653 628.513 75.7173C627.553 76.0693 626.417 76.2453 625.105 76.2453ZM627.937 68.1813C628.801 68.1813 629.553 67.9733 630.193 67.5573C630.865 67.1413 631.377 66.5653 631.729 65.8293C632.113 65.0613 632.305 64.1973 632.305 63.2373C632.305 62.3093 632.113 61.4933 631.729 60.7893C631.377 60.0853 630.865 59.5253 630.193 59.1093C629.553 58.6933 628.801 58.4853 627.937 58.4853C627.105 58.4853 626.353 58.6933 625.681 59.1093C625.009 59.5253 624.481 60.0853 624.097 60.7893C623.745 61.4933 623.569 62.3093 623.569 63.2373C623.569 64.1973 623.745 65.0613 624.097 65.8293C624.481 66.5653 625.009 67.1413 625.681 67.5573C626.353 67.9733 627.105 68.1813 627.937 68.1813ZM659.062 76.2453C656.982 76.2453 655.094 75.9253 653.398 75.2853C651.734 74.6453 650.294 73.7333 649.078 72.5493C647.862 71.3333 646.918 69.9093 646.246 68.2773C645.606 66.6453 645.286 64.8373 645.286 62.8533C645.286 60.2933 645.814 58.0693 646.87 56.1813C647.926 54.2933 649.334 52.8213 651.094 51.7653C652.886 50.7093 654.886 50.1813 657.094 50.1813C657.99 50.1813 658.806 50.2773 659.542 50.4693C660.31 50.6293 661.014 50.9013 661.654 51.2853C662.294 51.6693 662.854 52.1493 663.334 52.7253H663.622V40.5813H672.838V62.7573C672.838 65.4773 672.262 67.8453 671.11 69.8613C669.958 71.8773 668.342 73.4453 666.262 74.5653C664.214 75.6853 661.814 76.2453 659.062 76.2453ZM659.062 68.1813C659.926 68.1813 660.678 67.9733 661.318 67.5573C661.99 67.1413 662.502 66.5653 662.854 65.8293C663.238 65.0613 663.43 64.1973 663.43 63.2373C663.43 62.3093 663.238 61.4933 662.854 60.7893C662.502 60.0853 661.99 59.5253 661.318 59.1093C660.678 58.6933 659.926 58.4853 659.062 58.4853C658.23 58.4853 657.478 58.6933 656.806 59.1093C656.134 59.5253 655.606 60.0853 655.222 60.7893C654.87 61.4933 654.694 62.3093 654.694 63.2373C654.694 64.1973 654.87 65.0613 655.222 65.8293C655.606 66.5653 656.134 67.1413 656.806 67.5573C657.478 67.9733 658.23 68.1813 659.062 68.1813Z" fill="black"/>
<rect x="767" y="0.621338" width="225" height="111" rx="55.5" fill="#B02785"/>
<circle cx="877.823" cy="54.4447" r="20.3021" stroke="white" stroke-width="5"/>
<line y1="-1.5" x2="26.6951" y2="-1.5" transform="matrix(0.707107 -0.707107 -0.707107 -0.707107 892.458 40.5874)" stroke="white" stroke-width="3"/>
<line y1="-1.5" x2="14.1572" y2="-1.5" transform="matrix(1 0 0 -1 899.536 20.9246)" stroke="white" stroke-width="3"/>
<line x1="912.194" y1="35.0818" x2="912.194" y2="20.9246" stroke="white" stroke-width="3"/>
<line x1="862.254" y1="39.4235" x2="843.377" y2="20.5472" stroke="white" stroke-width="3"/>
<line x1="856.236" y1="20.2" x2="842.078" y2="20.2" stroke="white" stroke-width="3"/>
<line y1="-1.5" x2="14.1572" y2="-1.5" transform="matrix(0 -1 -1 0 842.079 32.8572)" stroke="white" stroke-width="3"/>
<line x1="861.643" y1="26.0294" x2="849.408" y2="38.2647" stroke="white" stroke-width="3"/>
<line x1="878.767" y1="73.9099" x2="878.767" y2="100.605" stroke="white" stroke-width="3"/>
<path d="M869.728 90.8738H887.031" stroke="white" stroke-width="3"/>
<circle cx="1084.5" cy="59.1213" r="45" stroke="#E3AFD1" stroke-width="15"/>
<rect x="1177" y="0.621338" width="225" height="111" rx="55.5" fill="#B02785"/>
<circle cx="1287.82" cy="54.4447" r="20.3021" stroke="white" stroke-width="5"/>
<line y1="-1.5" x2="26.6951" y2="-1.5" transform="matrix(0.707107 -0.707107 -0.707107 -0.707107 1302.46 40.5874)" stroke="white" stroke-width="3"/>
<line y1="-1.5" x2="14.1572" y2="-1.5" transform="matrix(1 0 0 -1 1309.54 20.9246)" stroke="white" stroke-width="3"/>
<line x1="1322.19" y1="35.0818" x2="1322.19" y2="20.9246" stroke="white" stroke-width="3"/>
<line x1="1272.25" y1="39.4235" x2="1253.38" y2="20.5472" stroke="white" stroke-width="3"/>
<line x1="1266.24" y1="20.2" x2="1252.08" y2="20.2" stroke="white" stroke-width="3"/>
<line y1="-1.5" x2="14.1572" y2="-1.5" transform="matrix(0 -1 -1 0 1252.08 32.8572)" stroke="white" stroke-width="3"/>
<line x1="1271.64" y1="26.0294" x2="1259.41" y2="38.2647" stroke="white" stroke-width="3"/>
<line x1="1288.77" y1="73.9099" x2="1288.77" y2="100.605" stroke="white" stroke-width="3"/>
<path d="M1279.73 90.8738H1297.03" stroke="white" stroke-width="3"/>
</svg>
