<svg width="339" height="529" viewBox="0 0 339 529" fill="none" xmlns="http://www.w3.org/2000/svg">
<path d="M94.3545 528.308C98.0605 492.212 94.7229 455.965 98.5698 419.944C99.2633 397.036 96.706 373.467 102.319 351.057C69.0515 349.768 36.2172 345.271 2.9494 343.689C0.261974 343.58 -0.2365 343.169 0.316156 340.568C0.467866 335.41 0.42452 330.23 0.478702 325.072C-0.908357 281.119 1.18307 237.232 0.955504 193.301C1.0747 184.459 52.7318 191.437 61.4118 190.928C66.0823 191.437 69.5174 186.442 74.3071 188.858C76.7887 189.942 76.7887 185.726 79.9962 185.976C82.3056 185.698 84.6452 186.117 86.7148 187.178C87.0765 187.405 87.5101 187.487 87.9296 187.409C88.3491 187.331 88.7239 187.098 88.9796 186.756C92.4581 183.223 97.031 185.282 101.322 185.542C101.669 175.616 104.692 166.037 106.74 156.381C108.561 148.157 116.58 144.461 121.911 138.686C122.12 138.403 122.26 138.075 122.318 137.729C122.376 137.382 122.352 137.027 122.247 136.692C119.798 130.591 121.424 123.851 123.006 117.706C126.203 99.8046 99.6968 87.5269 111.617 67.3496C115.475 58.2903 114.044 47.7682 120.958 39.8251C124.572 34.9652 127.003 29.3289 128.056 23.3646C130.039 12.3006 138.036 0.228876 150.292 0.207203C160.131 -0.984802 168.605 3.1547 176.581 7.79269C189.054 1.77848 203.239 5.90715 214.346 12.9291C247.809 35.9348 220.555 55.0828 231.381 76.6039C248.21 103.554 243.236 98.5584 247.343 127.611C259.826 137.71 279.05 140.81 288.088 155.114C294.21 166.015 304.852 173.47 313.011 182.822C316.674 187.244 324.108 190.05 325.116 195.945C321.507 208.949 316.046 203.086 325.267 216.534C332.853 229.213 344.329 246.941 336.223 261.549C332.029 266.967 328.15 272.602 324.01 278.053C310.454 290.959 295.554 303.182 279.635 313.076C276.384 315.503 267.184 316.771 266.361 320.347C267.358 326.383 268.864 332.571 272.581 337.523C275.171 340.557 269.883 341.857 268.073 342.8C272.667 353.214 273.794 364.321 276.796 375.136C278.441 381.09 278.73 387.337 277.641 393.417C275.68 406.052 276.699 418.752 276.384 431.42C275.355 463.724 276.081 496.038 275.181 528.341H176.809C172.073 492.581 176.549 456.745 177.892 420.974C178.499 410.387 179.138 399.789 179.995 389.212C180.276 385.701 178.369 384 175.736 382.288C174.739 388.411 176.592 395.79 174.316 401.306C167.814 398.25 164.564 382.635 159.514 377.737C159.947 387.489 174.457 399.561 174.631 410.04C173.894 449.485 170.675 488.896 172.908 528.341H95.8932V521.005C95.8065 523.443 95.4814 525.892 95.3731 528.341L94.3545 528.308ZM187.645 308.6C173.493 299.465 194.873 285.4 198.59 300.755C200.649 305.089 211.94 301.145 216.264 301.307C217.153 301.199 217.348 300.809 217.423 299.985C217.759 291.024 217.944 282.062 218.973 273.133C222.137 249.65 221.01 225.648 225.713 202.404C221.91 198.318 209.285 201.233 203.369 200.139C180.244 199.326 157.346 195.598 134.265 194.569C134.018 194.598 133.781 194.684 133.573 194.819C133.364 194.955 133.19 195.136 133.062 195.349C132.417 196.773 131.233 197.883 129.77 198.436C128.308 198.988 126.686 198.938 125.26 198.297C122.702 196.953 121.088 193.615 117.826 193.702C111.324 193.474 128.663 214.465 119.159 214.172C117.566 214.4 114.824 211.604 114.543 214.172C114.098 217.553 109.84 217.813 107.586 215.884C105.18 214.259 104.757 211.355 103.013 209.382C102.265 211.094 102.471 214.139 99.6968 213.717C96.1966 213.717 93.8126 210.899 90.8976 209.881C80.473 212.796 78.3166 197.538 70.8828 193.8C62.9722 193.8 -1.00588 186.008 2.8302 195.674C4.55319 234.87 0.370338 274 2.08249 313.228C1.95245 321.561 2.3534 329.894 2.64598 338.227C2.711 340.589 2.64598 340.644 5.00832 340.936C22.5199 343.104 40.0749 345.043 57.6732 346.517C93.8126 349.161 130.071 350.288 166.037 355.045C182.834 356.768 199.63 358.209 216.492 359.239C217.25 359.293 217.705 359.087 217.727 358.155C218.215 350.862 217.727 343.537 217.727 336.233C216.99 332.787 203.401 337.902 200.074 335.529C194.754 333.654 194.656 327.109 190.517 324.053C187.667 321.886 184.372 317.996 188.544 315.492C188.035 313.379 184.112 309.847 187.645 308.6ZM217.109 197.982C219.472 199.424 228.661 197.581 228.119 201.006C223.264 224.076 223.849 247.949 220.783 271.312C220.783 271.551 221.379 272.125 221.595 272.071C234.426 271.583 231.153 284.164 219.883 279.526C220.403 282.431 218.691 286.548 220.794 288.195C233.082 288.347 245.024 284.403 255.633 278.356C258.472 274.292 255.123 267.704 255.708 262.784C254.625 252.825 256.716 242.845 256.9 233.049C253.259 224.38 245.739 216.123 245.62 206.478C251.255 217.315 254.625 230.372 263.619 239.627L264.031 239.475C264.919 232.594 264.789 225.453 269.319 219.178C265.927 219.742 265.331 217.445 263.977 215.353C260.336 207.291 273.058 208.678 271.801 215.993C280.784 200.442 305.783 192.152 322.916 194.536C310.541 182.761 298.53 170.512 286.885 157.79C285.216 165.376 272.288 163.338 277.457 156.078C279.419 154.767 280.285 151.906 283.634 152.253C280.422 148.936 276.594 146.278 272.364 144.429C270.381 156.056 257.009 148.373 265.18 140.745C254.343 133.235 242.499 128.033 230.135 122.919C231.912 127.697 226.992 130.743 223.633 127.329C221.791 140.463 213.988 152.914 202.621 159.502C206.359 150.075 213.512 142.164 211.702 130.862C207.426 138.355 201.822 145.009 195.166 150.497C193.399 151.765 191.102 152.491 190.397 154.832C180.016 156.284 170.025 162.352 159.189 159.687C154.735 159.513 152.763 155.287 149.978 152.545C141.59 144.776 145.231 132.866 148.244 123.406C140.843 126.397 141.894 141.709 133.17 133.636C127.557 136.811 121.619 140.311 117.696 145.783C122.237 152.372 115.529 160.478 112.213 150.378C109.796 152.881 104.692 165.917 106.643 168.226C107.783 168.405 108.814 169.01 109.525 169.919C110.237 170.828 110.578 171.973 110.479 173.124C109.265 178.314 103.685 175.508 103.977 177.859C104.638 180.958 102.655 185.943 105.158 188.002C107.586 187.926 110.826 190.614 112.657 188.641C114.196 186.739 116.347 185.428 118.743 184.932C121.14 184.436 123.634 184.786 125.802 185.921C129.053 186.951 131.025 191.762 134.384 191.99C136.844 190.202 138.719 190.202 141.276 191.86C156.23 194.862 172.116 195.447 187.439 196.747C184.893 194.927 184.871 191.004 188.024 189.898C191.384 189.129 195.783 193.713 193.215 197.126C200.064 197.831 207.064 197.831 213.967 198.21C217.597 196.368 218.464 190.82 220.772 187.536C221.216 186.669 221.628 186.355 222.69 187.048L217.109 197.982ZM195.588 327.542C197.506 336.645 206.143 334.673 213.046 333.817C230.07 332.094 245.024 323.674 261.213 318.808C285.053 310.345 304.429 293.191 322.916 276.481C327.554 268.137 338.271 261.159 337.458 250.94C336.732 237.102 329.266 226.135 322.493 214.714C318.05 209.436 314.225 199.283 308.406 196.346C293.462 200.161 278.931 206.001 271.356 220.435C272.44 230.622 278.584 240.58 285.888 247.787L287.676 245.619L288.218 245.933C277.598 262.546 269.687 274.975 250.594 283.297C241.003 287.372 231.088 290.439 220.62 290.818C219.797 290.905 219.287 291.045 219.136 291.999C218.193 295.662 222.896 295.434 225.377 295.987C219.407 306.964 203.705 302.868 193.475 303.442C190.159 304.277 193.117 307.56 194.45 308.969C200.302 312.686 208.895 312.371 215.44 310.443C216.968 310.204 219.114 309.24 220.447 310.291C212.699 313.314 201.353 315.081 194.353 309.511C193.429 308.66 192.246 308.145 190.993 308.048C190.701 309.001 190.072 308.449 189.563 308.405C185.586 308.405 187.634 313.26 189.422 314.68C199.121 323.945 212.059 319.101 223.394 316.923L223.459 317.432C216.134 321.42 207.01 321.528 198.872 321.138C195.491 320.217 191.514 315.211 188.176 317.356C185.89 320.369 191.839 323.381 193.594 325.408C202.014 330.826 213.219 326.589 221.769 323.966C220.349 329.027 199.89 331.064 195.588 327.542ZM187.84 67.4688C187.548 59.4281 175.422 45.7959 168.335 42.545C168.042 42.48 167.587 41.8298 167.663 41.6023C168.66 30.4624 170.524 20.5905 176.05 10.621C171.716 9.82993 172.268 15.5515 170.09 17.8164C165.756 24.0906 167.143 31.7411 166.666 38.8607C166.352 47.2697 160.283 34.3744 152.904 35.0137C147.312 34.7862 139.9 36.2382 137.96 42.3283C141.038 43.7479 147.03 44.4956 147.93 47.844C143.595 48.2883 137.028 41.1146 135.023 48.0499C134.492 50.5423 145.968 49.7296 148.872 56.2531C149.393 57.0658 149.338 57.5318 148.461 57.9327C142.815 61.3137 136.942 62.4515 131.892 57.5209C125.39 81.9679 132.163 68.1189 134.492 80.2774C134.488 81.2728 134.18 82.2431 133.611 83.0598C133.042 83.8766 132.239 84.501 131.307 84.8504C131.14 84.977 131.007 85.1413 130.916 85.3296C130.826 85.518 130.781 85.7251 130.786 85.934C137.538 114.585 177.09 106.404 189.184 86.5625C191.048 83.7667 194.602 91.7098 200.605 86.6817C204.821 82.9431 210.683 73.3529 204.593 69.1484C202.047 67.6638 199.587 69.4735 197.127 68.1623C198.525 65.1606 203.022 67.653 203.791 64.5538C203.455 55.4945 204.333 44.0296 196.997 37.3327C192.89 31.0801 187.32 26.4205 179.409 27.1465C173.883 32.7489 170.589 33.6483 180.179 36.1624C200.595 40.2477 200.237 70.9473 185.413 80.9601C191.535 56.8166 184.849 80.6567 165.842 71.0665C156.219 65.8758 160.175 58.0628 170.253 60.3167C176.451 61.9964 181.988 64.7922 187.84 67.4579V67.4688ZM219.905 50.228C206.359 82.4338 227.805 69.7336 212.211 101.994C206.511 118.584 220.989 133.712 209.296 151.57C215.072 148.027 217.434 141.037 220.241 135.261C225.204 124.642 218.876 113.318 221.671 102.438C225.876 95.3075 225.659 87.1043 223.839 79.1938C220.273 66.461 229.549 56.4373 229.831 44.0946C230.915 20.7964 204.561 3.77238 183.159 7.57596L182.996 8.15029C185.066 9.64571 186.746 12.1056 189.108 13.005C203.271 14.4029 214.032 26.7022 216.697 40.1719L216.188 40.3236C212.569 23.1154 193.161 7.81436 176.093 17.643C177.177 17.7188 189 18.7266 186.605 21.1648C185.521 22.1618 186.063 22.6711 187.092 23.0937C199.012 26.9406 203.163 40.3344 208.494 50.4123C210.196 62.9825 212.612 87.6353 195.967 90.507C195.382 110.576 210.228 122.16 199.457 142.988C220.046 126.733 202.133 116.395 211.908 98.1033C226.179 76.7122 204.561 74.3174 219.905 50.2172V50.228ZM155.97 127.643C157.607 138.794 170.805 149.197 182.108 144.982C190.452 140.766 199.944 133.993 201.96 124.555C200.66 113.318 192.749 103.402 195.122 91.764C195.382 89.5967 192.24 89.9651 191.08 88.8165C190.43 88.4047 190.094 88.4155 189.574 88.9573C185.857 92.7393 182.053 96.4453 178.055 99.9021C167.825 110.012 154.356 109.622 155.927 127.632L155.97 127.643ZM134.297 130.439C128.381 118.953 137.754 104.573 131.22 93.5953C123.374 77.0915 128.467 59.2439 134.547 43.141C114.499 59.2331 132.618 78.2185 121.738 91.9048C121.196 84.1725 118.874 76.6701 114.954 69.9828C105.581 86.8334 124.09 99.1327 125.184 114.878C125.336 121.38 119.387 131.295 125.021 136.182C128.164 134.373 131.252 132.346 134.297 130.428V130.439ZM259.057 237.264C257.02 242.097 256.326 271.388 258.223 276.395C268.81 269.687 277.88 261.224 283.634 249.965C284.652 247.656 281.402 245.814 280.47 243.831C278.161 242.054 276.558 234.87 273.123 237.47C268.571 241.1 262.568 243.246 259.057 237.254V237.264ZM263.912 320.39C250.052 322.709 238.034 330.587 224.5 333.936C220.718 335.16 220.685 334.846 220.599 338.769C220.599 340.102 221.151 340.427 222.289 340.579C230.958 342.334 239.356 343.277 248.231 342.139C255.448 342.432 263.066 343.71 269.72 339.972C269.884 339.846 270.013 339.68 270.097 339.491C270.18 339.301 270.214 339.094 270.197 338.888C267.661 332.744 265.039 326.957 263.912 320.38V320.39ZM122.757 40.6161C130.169 33.5291 138.231 25.857 149.111 24.9467C152.123 24.3399 157.043 26.0845 158.571 22.5844C158.365 19.1059 152.004 18.9975 149.36 17.7513C143.508 16.451 139.347 21.4249 135.11 24.6866C140.528 11.5529 167.37 17.1012 154.009 9.38564C157.054 7.21836 160.662 7.83603 164.542 6.75239C155.125 -2.23099 139.076 1.83266 133.799 13.2542C129.475 22.1943 127.958 31.882 122.757 40.6161ZM122.757 89.5208H123.223C127.048 80.0823 122.139 70.4921 123.038 60.9778C126.289 46.4136 137.202 32.8031 152.795 31.7195C154.431 31.3944 156.176 31.1668 156.783 29.4221C157.097 27.9484 157.011 25.5102 154.757 25.7378C140.398 25.391 127.08 35.6964 118.53 46.3269C110.143 64.1528 121.37 73.4288 122.713 89.5208H122.757ZM227.48 83.3224C222.928 95.9793 231.337 106.967 231.348 119.473C231.348 121.076 231.738 121.705 233.169 122.193C236.62 123.116 239.999 124.289 243.279 125.704C240.808 104.258 244.905 100.509 227.436 83.3224H227.48ZM172.496 35.7614C172.138 52.3195 191.102 50.0005 190.322 71.955C197.755 61.8772 194.656 43.9863 182.931 39.1857C179.529 38.4922 176.288 36.9968 172.496 35.7614ZM89.814 188.555C98.9166 194.45 101.095 206.619 108.55 214.345C116.667 218.496 109.428 203.043 109.211 199.738C107.282 191.426 98.2556 182.606 89.814 188.555ZM77.3088 189.985C85.6095 193.464 90.4317 201.353 94.0402 209.144C94.0895 209.553 94.2652 209.937 94.543 210.242C94.8207 210.547 95.1867 210.758 95.5898 210.845C106.426 215.093 97.2478 199.164 94.5062 195.577C91.8621 191.069 80.7548 183.949 77.3088 190.007V189.985ZM137.657 101.127C133.821 111.02 129.519 142.988 146.239 122.106C139.076 120.589 136.4 112.353 140.496 106.512C142.544 103.814 140.344 102.351 137.624 101.159L137.657 101.127ZM70.2435 190.484C77.6339 195.035 79.8662 207.399 88.6653 208.548C92.9999 208.017 89.1421 203.834 88.1452 201.818C84.6884 195.804 77.493 189.107 70.2435 190.484ZM105.245 189.53C111.454 194.363 111.823 202.469 114.088 209.382C113.979 211.04 121.391 214.367 120.524 211.181C117.804 203.249 115.355 190.245 105.245 189.53ZM114.066 193.03C118.964 189.497 122.226 195.197 126.257 196.985C134.558 197.354 129.735 191.361 125.888 188.728C121.185 183.288 109.114 189.443 114.066 193.03ZM230.015 120.697C231.229 118.01 225.269 90.3552 223.113 102.47C223.113 107.498 223.362 112.527 223.546 117.555C224.315 119.874 227.913 119.559 229.983 120.697H230.015ZM150.249 118.357C147.453 114.65 146.337 110.771 149.165 106.772L143.194 103.901C142.436 108.615 137.776 115.626 143.422 118.768C146.098 120.415 147.518 120.004 150.216 118.357H150.249ZM159.449 146.596C157.379 144.353 156.707 138.61 153.261 140.029C151.668 141.817 147.074 142.457 147.745 145.328C152.373 155.081 153.164 153.531 159.416 146.596H159.449ZM181.642 155.482C184.6 153.889 189.888 153.9 191.394 150.692C190.484 148.948 190.43 142.879 187.916 143.627C179.691 147.626 178.943 145.881 181.609 155.482H181.642ZM192.706 150.064C194.992 149.078 201.071 134.568 201.158 130.136C196.39 138.707 187.06 138.837 192.673 150.096L192.706 150.064ZM166.969 69.1592C171.304 71.9334 175.53 70.7197 180.103 69.8094C188.078 67.3821 173.904 63.3076 171.195 62.419C171.217 65.5507 170.708 68.1406 166.969 69.1592ZM146.954 141.622C154.182 138.144 155.374 138.61 154.973 130.179C154.865 126.928 151.105 130.244 149.447 130.179C146.293 132.065 147.214 138.155 146.954 141.622ZM154.139 154.799C154.941 156.967 160.196 160.218 161.941 157.216C162.299 154.398 166.276 149.63 162.017 148.352C159.774 145.361 156.295 153.293 154.139 154.799ZM172.496 157.844C180.699 155.59 180.677 156.761 178.651 148.352C177.426 147.214 175.302 148.915 173.774 148.937C171.011 150.389 173.113 154.962 172.496 157.844ZM171.195 149.999C164.629 149.414 165.43 152.935 163.382 157.736C164.412 159.719 168.205 158.094 170.209 158.365C172.301 156.609 170.719 152.578 171.217 149.999H171.195ZM137.743 58.2036C140.247 59.6232 143.313 59.0705 146.954 56.7624C146.109 54.4976 142.002 52.0919 139.629 52.5687C140.03 54.7143 139.878 56.7407 137.743 58.2036ZM149.035 128.369C150.877 128.033 153.532 127.567 154.67 126.083C154.67 123.341 155.981 120.48 154.583 117.934C151.705 120.76 149.768 124.403 149.035 128.369ZM133.29 80.3966C132.661 79.0962 132.574 76.398 130.808 76.2896C128.077 77.5466 129.909 80.6892 129.941 82.9431C130.732 85.0237 133.539 82.0004 133.29 80.3966ZM153.998 107.683C151.3 108.842 149.317 116.352 153.348 115.452C154.767 113.274 153.716 110.446 154.02 107.683H153.998ZM168.497 62.289C168.053 64.2178 165.452 66.0925 165.246 63.1234C165.246 62.9066 164.921 62.7116 164.748 62.5165C160.597 66.9161 172.821 69.6685 168.519 62.289H168.497ZM134.048 52.3195C130.591 53.5982 134.514 57.3584 136.671 56.2964C138.123 55.8738 138.61 53.1647 137.072 51.9619C136.623 52.8205 136.109 53.6429 135.533 54.4217C135.002 53.7065 134.276 53.3056 134.07 52.3195H134.048ZM219.19 296.626V299.736L221.769 297.396L219.19 296.626ZM223.676 120.589C223.676 121.423 223.741 121.954 223.774 122.756L226.038 121.326L223.676 120.589Z" fill="#B02785"/>
<path d="M33.6814 258.992C58.3233 249.651 60.2631 271.779 58.3775 291.75C57.9657 293.202 59.2986 296.648 57.1855 296.713C54.0213 295.738 45.8615 297.309 44.6153 294.329C43.1199 286.863 49.7517 269.329 38.3627 268.766C28.404 268.452 36.7481 294.058 31.6224 294.524C28.7941 293.44 20.0058 295.293 19.7024 292.01C19.9119 275.105 20.0889 258.204 20.2334 241.307C20.2334 240.342 20.5693 240.017 21.5121 240.093C40.1832 240.808 32.381 241.242 33.6814 258.992Z" fill="#B02785"/>
<path d="M155.484 265.711C174.382 265.841 178.999 282.334 176.073 298.22C175.217 300.68 177.319 306.683 173.732 306.738C170.124 306.337 166.515 306.033 162.896 305.741C160.728 305.134 163.004 301.688 161.942 300.073C133.919 323.892 117.112 264.638 155.484 265.711ZM147.681 285.791C147.14 296.096 162.343 296.573 162.191 286.246C162.766 276.396 147.573 275.453 147.681 285.791Z" fill="#B02785"/>
<path d="M64.5324 278.399C63.9798 259.619 90.5398 254.298 101.474 267.443C124.696 300.061 66.2121 315.34 64.5324 278.399ZM85.6959 287.685C95.3295 288.065 94.4301 272.146 85.1974 272.514C75.9215 272.244 76.2899 287.945 85.6959 287.685Z" fill="#B02785"/>
<path d="M114.531 247.202C117.923 248.155 127.535 246.573 128.695 249.369C127.806 266.512 126.863 283.645 126.148 300.788C126.148 302.153 125.866 302.717 124.23 302.489C121.413 301.286 112.245 303.345 112.126 299.812C113.079 282.247 113.589 264.789 114.531 247.202Z" fill="#B02785"/>
<path d="M200.91 257.735C200.119 268.42 199.328 278.942 198.58 289.475C197.367 291.87 189.033 289.063 186.108 289.529C185.143 289.453 184.796 289.085 184.872 288.066C185.652 277.446 186.404 266.83 187.126 256.218C187.798 253.379 197.009 256.424 199.816 255.871C201.387 255.969 200.91 257.02 200.91 257.735Z" fill="#B02785"/>
<path d="M237.699 255.263C236.442 263.683 224.391 260.616 227.339 253.367C230.091 249.433 238.013 248.155 237.699 255.263Z" fill="#B02785"/>
<path d="M280.524 186.659C280.871 193.02 270.88 193.052 271.173 186.757C270.772 179.312 280.969 178.998 280.524 186.659Z" fill="#B02785"/>
<path d="M243.637 264.616C244.092 256.857 253.271 259.75 252.306 266.35C251.71 273.339 242.738 270.814 243.637 264.616Z" fill="#B02785"/>
<path d="M222.223 164.292C222.472 169.938 212.21 170.111 212.568 164.119C212.514 158.126 222.494 157.931 222.223 164.292Z" fill="#B02785"/>
<path d="M237.45 145.383C237.35 144.33 237.623 143.274 238.222 142.401C238.821 141.528 239.707 140.893 240.726 140.607C241.745 140.321 242.832 140.401 243.798 140.834C244.764 141.268 245.547 142.026 246.011 142.978C248.817 149.382 237.255 153.652 237.45 145.383Z" fill="#B02785"/>
<path d="M139.003 149.154C139.176 155.06 129.629 155.157 129.824 149.154C129.607 143.096 139.198 143.14 139.003 149.154Z" fill="#B02785"/>
<path d="M242.229 193.616C242.154 199.663 233.203 199.088 233.376 193.616C233.181 187.862 242.381 187.894 242.229 193.616Z" fill="#B02785"/>
<path d="M169.146 183.873C176.363 184.61 169.243 194.97 164.746 191.383C161.246 188.403 165.288 183.83 169.146 183.873Z" fill="#B02785"/>
<path d="M293.917 171.77C299.477 171.477 299.791 180.049 294.264 179.897C289.334 179.94 287.979 171.531 293.917 171.77Z" fill="#B02785"/>
<path d="M210.597 179.452C217.619 179.81 214.693 187.677 209.514 187.352C203.185 186.81 206.642 180.427 210.597 179.452Z" fill="#B02785"/>
<path d="M251.74 195.804C246.224 196.302 246.181 187.427 251.654 188.457C257.624 188.218 257.559 196.064 251.74 195.804Z" fill="#B02785"/>
<path d="M181.955 172.16C181.955 176.495 173.514 178.77 173.492 173.049C173.384 168.779 181.977 166.406 181.955 172.16Z" fill="#B02785"/>
<path d="M157.888 175.78C153.726 174.61 150.996 169.094 157.042 168.086C162.677 167.869 164.53 175.813 157.888 175.78Z" fill="#B02785"/>
<path d="M263.218 168.941C263.294 169.812 263.055 170.682 262.544 171.391C262.033 172.101 261.285 172.604 260.434 172.809C259.584 173.013 258.689 172.906 257.911 172.507C257.133 172.107 256.525 171.442 256.196 170.631C254.31 164.552 262.318 160.814 263.218 168.941Z" fill="#B02785"/>
<path d="M236.029 209.254C241.068 209.254 241.035 217.36 236.029 217.327C231.023 217.295 230.752 209.07 236.029 209.254Z" fill="#B02785"/>
<path d="M149.677 183.028C154.402 182.779 156.666 191.361 150.934 190.755C146.296 190.007 143.554 183.57 149.677 183.028Z" fill="#B02785"/>
<path d="M128.263 177.914C128.155 172.994 135.524 173.07 135.621 177.816C135.719 182.563 128.252 182.844 128.263 177.914Z" fill="#B02785"/>
<path d="M240.138 165.083C240.073 169.818 233.755 169.623 234.167 164.552C234.405 160.38 240.192 160.943 240.138 165.083Z" fill="#B02785"/>
<path d="M138.708 165.711C138.794 169.818 132.206 169.774 132.39 165.711C132.368 161.56 138.892 161.571 138.708 165.711Z" fill="#B02785"/>
<path d="M117.794 176.289C114.402 176.289 114.955 170.112 118.336 170.545C122.193 170.903 121.294 176.429 117.794 176.289Z" fill="#B02785"/>
<path d="M245.816 235.521C245.816 239.042 240.214 238.912 240.398 235.391C240.582 231.869 245.903 231.966 245.816 235.521Z" fill="#B02785"/>
<path d="M181.155 161.225C181.307 164.541 175.91 164.552 176.051 161.225C175.845 157.823 181.372 157.833 181.155 161.225Z" fill="#B02785"/>
<path d="M194.515 167.609C197.885 167.717 197.148 171.802 194.168 171.64C191.502 171.542 191.697 167.294 194.515 167.609Z" fill="#B02785"/>
<path d="M149.987 61.9302C138.49 76.9495 137.092 70.5994 145.934 79.8645L145.599 80.1896C142.857 78.4016 142.716 81.1432 144.612 82.2052C148.384 82.5953 148.069 79.9729 147.278 77.2963C147.705 77.3244 148.12 77.445 148.495 77.6497C148.87 77.8543 149.197 78.1381 149.451 78.4814C149.706 78.8247 149.883 79.2192 149.97 79.6377C150.057 80.0561 150.052 80.4885 149.955 80.9048C149.348 85.3586 140.202 85.1635 141.394 79.7453C142.218 76.7328 135.857 76.6678 137.515 73.7203C141.665 69.8842 144.775 63.7508 149.781 61.3884L149.987 61.9302Z" fill="#B02785"/>
<path d="M166.514 82.8885C171.38 76.2349 180.374 81.0896 177.004 89.1086C173.753 96.4123 160.132 89.1085 166.547 82.8451C163.296 89.1736 173.504 94.4184 176.05 88.1658C178.326 81.3497 171.271 78.6189 166.514 82.8885Z" fill="#B02785"/>
<path d="M176.33 56.6326C173.274 55.5489 170.912 52.5581 167.423 53.891C166.578 54.1294 165.613 54.4436 165.385 53.1974C166.978 48.9821 176.168 52.3739 176.818 56.1883L176.33 56.6326Z" fill="#B02785"/>
<path d="M148.321 96.6728C144.094 95.7409 142.902 88.2204 147.02 93.216C149.112 95.9468 149.957 90.6478 151.897 91.8939C153.587 94.0179 149.545 95.47 148.321 96.6728Z" fill="#B02785"/>
<path d="M201.06 81.9571C203.357 78.9771 203.336 77.3733 201.992 74.1116C205.406 75.2169 204.43 80.6459 201.06 81.9571Z" fill="#B02785"/>
<path d="M257.14 340.536C249.923 340.45 251.776 331.423 257.985 331.976C265.278 331.596 263.685 341.186 257.14 340.536Z" fill="#B02785"/>
</svg>
