<svg width="384" height="43" viewBox="0 0 384 43" fill="none" xmlns="http://www.w3.org/2000/svg">
<mask id="mask0_2140_13460" style="mask-type:luminance" maskUnits="userSpaceOnUse" x="0" y="0" width="384" height="43">
<path d="M383.115 0.112793H0.708252V42.4728H383.115V0.112793Z" fill="white"/>
</mask>
<g mask="url(#mask0_2140_13460)">
<path d="M34.6478 23.4363C34.2391 25.9109 33.1496 28.2259 31.4991 30.1267C29.8486 32.0276 27.701 33.4408 25.2924 34.2109C22.8838 34.9809 20.3076 35.078 17.8469 34.4916C15.3862 33.9051 13.1364 32.6577 11.3448 30.8866C9.56489 29.1181 8.30902 26.8994 7.71407 24.4725C7.11912 22.0455 7.20791 19.5033 7.97078 17.1229C8.73364 14.7425 10.1413 12.6152 12.0404 10.9728C13.9395 9.33041 16.2571 8.23593 18.7408 7.80862V1.19873C14.9337 1.63379 11.328 3.12465 8.33815 5.49984C5.34833 7.87503 3.09592 11.0381 1.83995 14.6252C0.583978 18.2124 0.375471 22.0779 1.23841 25.7772C2.10134 29.4765 4.00067 32.8594 6.71795 35.5368C9.43523 38.2141 12.8601 40.0772 16.5987 40.9118C20.3372 41.7464 24.2376 41.5185 27.8513 40.2545C31.4649 38.9904 34.6451 36.7414 37.0259 33.7662C39.4068 30.791 40.8917 27.2105 41.3099 23.4363H34.6478Z" fill="#B02785"/>
<path d="M375.738 32.6618C377.047 32.6868 378.338 32.3605 379.475 31.7175C380.569 31.0931 381.484 30.2026 382.134 29.1302C382.781 28.0448 383.111 26.8025 383.087 25.542C383.163 24.1145 382.833 22.6945 382.134 21.4439C381.471 20.4061 380.493 19.6029 379.341 19.1493C377.977 18.6294 376.523 18.3792 375.062 18.4128H370.744C370.521 18.4173 370.299 18.378 370.091 18.2969C369.884 18.2159 369.694 18.0948 369.534 17.9406C369.371 17.7905 369.242 17.6075 369.157 17.4038C369.071 17.2002 369.031 16.9807 369.038 16.7603C369.032 16.541 369.075 16.3231 369.164 16.1223C369.253 15.9214 369.386 15.7426 369.553 15.5988C369.881 15.3107 370.306 15.1526 370.744 15.155H380.914V9.92376H370.163C368.892 9.90799 367.64 10.2344 366.541 10.868C365.47 11.4846 364.572 12.3581 363.93 13.4081C363.288 14.4649 362.958 15.6784 362.977 16.9114C362.909 18.3305 363.278 19.7365 364.035 20.9434C364.728 21.9652 365.728 22.7449 366.894 23.1719C368.162 23.6518 369.511 23.8889 370.868 23.8706H375.195C375.53 23.8637 375.86 23.9487 376.148 24.1161C376.426 24.2687 376.659 24.4899 376.825 24.7582C376.995 25.0437 377.081 25.3709 377.073 25.7025C377.074 26.0184 376.989 26.3286 376.825 26.5996C376.661 26.8644 376.427 27.0799 376.148 27.2228C375.852 27.3683 375.526 27.4427 375.195 27.44H363.949V32.6618H375.738ZM345.392 17.4118C345.618 16.8539 345.941 16.3394 346.345 15.8915C346.75 15.4344 347.251 15.0702 347.813 14.8245C348.443 14.5507 349.126 14.4154 349.814 14.4279C350.347 14.4239 350.876 14.4971 351.387 14.6451C351.839 14.7814 352.264 14.9921 352.645 15.2683C353.009 15.5338 353.33 15.8521 353.598 16.2126C353.874 16.6194 354.086 17.0651 354.227 17.5346C354.377 18.0505 354.482 18.578 354.542 19.1115H344.916C345.004 18.5156 345.164 17.9323 345.392 17.3741M357.782 32.624V27.44H351.444C350.427 27.4566 349.415 27.3001 348.452 26.9773C347.599 26.7121 346.826 26.2417 346.202 25.6081C345.597 24.954 345.171 24.1577 344.963 23.2946H360.489C360.563 22.9847 360.608 22.6686 360.622 22.3504C360.622 21.9443 360.67 21.5949 360.67 21.3022C360.695 19.2498 360.313 17.2125 359.546 15.3061C358.829 13.5522 357.597 12.0521 356.01 11.0002C354.124 9.85662 351.937 9.2976 349.729 9.39497C347.696 9.36623 345.693 9.8747 343.924 10.868C342.213 11.8519 340.811 13.2869 339.874 15.0134C338.845 16.9499 338.334 19.1147 338.387 21.3022C338.369 23.344 338.93 25.3496 340.007 27.0906C341.1 28.8339 342.657 30.2453 344.506 31.1698C346.623 32.2035 348.961 32.7153 351.32 32.6618L357.782 32.624ZM320.05 27.0528C319.167 26.4556 318.468 25.629 318.029 24.6638C317.552 23.5971 317.315 22.4405 317.333 21.2739C317.315 20.1073 317.552 18.9507 318.029 17.884C318.465 16.9119 319.165 16.0784 320.05 15.4761C320.979 14.8707 322.073 14.561 323.185 14.5885C324.301 14.5541 325.4 14.8643 326.33 15.4761C327.207 16.0821 327.9 16.915 328.332 17.884C328.809 18.9507 329.046 20.1073 329.028 21.2739C329.046 22.4405 328.809 23.5971 328.332 24.6638C327.9 25.6328 327.207 26.4657 326.33 27.0717C325.4 27.6835 324.301 27.9936 323.185 27.9593C322.073 27.9868 320.979 27.6771 320.05 27.0717M329.58 31.6609C331.371 30.6627 332.826 29.1654 333.765 27.355C334.799 25.3548 335.322 23.1339 335.289 20.8867V0.112793H329.123V12.7282H329.075C328.61 12.0286 328.015 11.423 327.322 10.9436C326.585 10.4348 325.771 10.0459 324.91 9.79156C324.015 9.51682 323.083 9.37987 322.146 9.38553C320.106 9.33877 318.091 9.84833 316.323 10.8586C314.677 11.8195 313.334 13.2157 312.444 14.8906C311.491 16.7453 311.019 18.8061 311.072 20.8867C311.058 22.5603 311.331 24.224 311.882 25.8064C312.412 27.2469 313.225 28.5692 314.274 29.6968C315.331 30.8341 316.634 31.7188 318.086 32.2841C319.728 32.9247 321.478 33.2453 323.242 33.2284C325.483 33.2894 327.701 32.7685 329.676 31.7175M292.572 27.1284C291.652 26.5254 290.929 25.6687 290.494 24.6638C290.015 23.5908 289.775 22.4282 289.789 21.255C289.771 20.0967 290.012 18.9488 290.494 17.8934C290.929 16.9256 291.629 16.0979 292.515 15.5044C293.457 14.8949 294.564 14.5852 295.689 14.6168C296.792 14.5878 297.877 14.8979 298.796 15.5044C299.67 16.1057 300.362 16.9316 300.797 17.8934C301.276 18.9495 301.514 20.0974 301.493 21.255C301.51 22.4276 301.273 23.5901 300.797 24.6638C300.371 25.6439 299.678 26.4874 298.796 27.1C297.877 27.7065 296.792 28.0166 295.689 27.9877C294.564 28.0192 293.457 27.7095 292.515 27.1M297.357 32.624C298.267 32.2653 299.098 31.7363 299.806 31.066C300.474 30.4222 301.043 29.684 301.493 28.8753H301.579V32.6523H307.745V21.3211C307.767 19.2354 307.29 17.1743 306.354 15.3061C305.444 13.5139 304.039 12.0143 302.303 10.9813C300.318 9.86002 298.058 9.30446 295.774 9.37608C293.482 9.31331 291.214 9.86115 289.208 10.9625C287.423 11.9725 285.962 13.462 284.995 15.2589C284.009 17.1286 283.508 19.2118 283.537 21.3211C283.512 23.3774 283.952 25.4132 284.824 27.2794C285.617 29.0091 286.869 30.4938 288.445 31.5759C290.06 32.6676 291.981 33.2291 293.935 33.1811C295.102 33.2088 296.264 33.0132 297.357 32.6051M280.211 0.112793H274.044V32.6618H280.211V0.112793ZM255.573 17.4118C255.8 16.8542 256.122 16.3397 256.526 15.8915C256.928 15.4346 257.426 15.0703 257.985 14.8245C258.615 14.5507 259.298 14.4154 259.986 14.4279C260.518 14.4239 261.048 14.4971 261.559 14.6451C262.013 14.7814 262.442 14.992 262.826 15.2683C263.188 15.5359 263.509 15.8539 263.779 16.2126C264.055 16.6194 264.267 17.0651 264.408 17.5346C264.567 18.0483 264.672 18.5766 264.723 19.1115H255.097C255.189 18.5165 255.349 17.9337 255.573 17.3741M267.963 32.624V27.44H261.568C260.551 27.4559 259.539 27.2994 258.576 26.9773C257.744 26.7038 256.991 26.2339 256.383 25.6081C255.778 24.954 255.352 24.1577 255.144 23.2946H270.67C270.744 22.9847 270.789 22.6686 270.804 22.3504C270.804 21.9443 270.851 21.5949 270.851 21.3022C270.877 19.2498 270.494 17.2125 269.727 15.3061C269.01 13.5522 267.778 12.0521 266.191 11.0002C264.318 9.85955 262.145 9.29741 259.948 9.38553C257.915 9.35679 255.912 9.86526 254.144 10.8586C252.432 11.8425 251.03 13.2775 250.093 15.0039C249.072 16.943 248.564 19.1065 248.616 21.2928C248.591 23.3345 249.143 25.3424 250.207 27.0906C251.3 28.8339 252.857 30.2453 254.706 31.1698C256.826 32.2042 259.167 32.7161 261.53 32.6618L267.963 32.624ZM237.636 15.495C238.518 16.0979 239.215 16.9314 239.647 17.9028C240.107 18.9751 240.343 20.128 240.343 21.2928C240.343 22.4576 240.107 23.6105 239.647 24.6827C239.215 25.6541 238.518 26.4877 237.636 27.0906C236.695 27.6705 235.609 27.9778 234.501 27.9778C233.392 27.9778 232.306 27.6705 231.365 27.0906C230.472 26.4863 229.768 25.6453 229.335 24.6638C228.858 23.5971 228.62 22.4405 228.639 21.2739C228.62 20.1073 228.858 18.9507 229.335 17.884C229.772 16.9175 230.471 16.0903 231.355 15.495C232.297 14.9151 233.383 14.6078 234.491 14.6078C235.599 14.6078 236.686 14.9151 237.627 15.495M228.096 10.9058C226.29 11.9006 224.821 13.4019 223.874 15.2211C222.838 17.2499 222.327 19.5017 222.387 21.7744V42.5483H228.553V29.8479C229.06 30.545 229.686 31.149 230.402 31.6325C231.124 32.1512 231.93 32.544 232.785 32.794C233.685 33.0608 234.619 33.1945 235.559 33.1906C237.604 33.2408 239.625 32.7346 241.401 31.727C243.028 30.7507 244.348 29.3447 245.213 27.6666C246.161 25.8328 246.638 23.7964 246.605 21.7366C246.624 20.0595 246.35 18.3918 245.795 16.8075C245.286 15.3607 244.493 14.0286 243.46 12.8888C242.404 11.7507 241.1 10.8659 239.647 10.3015C238.002 9.65284 236.243 9.33197 234.472 9.3572C232.237 9.30366 230.026 9.8276 228.058 10.8775M202.696 27.0906C201.805 26.4869 201.104 25.6455 200.676 24.6638C200.2 23.5901 199.962 22.4276 199.98 21.255C199.959 20.0974 200.197 18.9495 200.676 17.8934C201.11 16.9256 201.81 16.0979 202.696 15.5044C203.638 14.8949 204.745 14.5852 205.87 14.6168C206.973 14.5866 208.059 14.8968 208.977 15.5044C209.851 16.1057 210.543 16.9316 210.978 17.8934C211.457 18.9495 211.695 20.0974 211.674 21.255C211.692 22.4276 211.454 23.5901 210.978 24.6638C210.552 25.6439 209.859 26.4874 208.977 27.1C208.059 27.7077 206.973 28.0178 205.87 27.9877C204.745 28.0192 203.638 27.7095 202.696 27.1M207.528 32.6146C208.439 32.2582 209.271 31.729 209.978 31.0565C210.646 30.4128 211.214 29.6745 211.665 28.8658H211.76V32.6429H217.926V21.3117C217.951 19.2245 217.471 17.1619 216.525 15.2967C215.618 13.5024 214.213 12.002 212.475 10.9719C210.492 9.85227 208.236 9.29677 205.956 9.36664C203.66 9.30263 201.389 9.85049 199.379 10.953C197.595 11.9608 196.137 13.451 195.176 15.2494C194.187 17.1183 193.683 19.2016 193.708 21.3117C193.684 23.368 194.123 25.4037 194.995 27.27C195.792 28.9977 197.043 30.4815 198.617 31.5664C200.233 32.6558 202.153 33.2171 204.107 33.1717C205.274 33.2001 206.436 33.0045 207.528 32.5957M182.748 15.495C183.625 16.101 184.317 16.9339 184.749 17.9028C185.226 18.9696 185.464 20.1262 185.445 21.2928C185.464 22.4593 185.226 23.616 184.749 24.6827C184.317 25.6517 183.625 26.4845 182.748 27.0906C181.818 27.7023 180.719 28.0125 179.603 27.9782C178.491 28.0056 177.397 27.696 176.467 27.0906C175.593 26.4779 174.907 25.6381 174.485 24.6638C174.008 23.5971 173.77 22.4405 173.789 21.2739C173.77 20.1073 174.008 18.9507 174.485 17.884C174.921 16.9119 175.62 16.0784 176.505 15.4761C177.435 14.8707 178.529 14.561 179.641 14.5885C180.757 14.5541 181.856 14.8643 182.786 15.4761M173.255 10.8869C171.44 11.8838 169.963 13.3922 169.014 15.2211C167.975 17.236 167.454 19.4742 167.499 21.7366V42.5105H173.656V29.8479H173.703C174.187 30.5415 174.791 31.1456 175.485 31.6325C176.207 32.1512 177.013 32.544 177.868 32.794C178.765 33.0599 179.696 33.1936 180.632 33.1906C182.707 33.2545 184.759 32.7479 186.56 31.727C188.187 30.7507 189.507 29.3447 190.373 27.6666C191.313 25.8311 191.785 23.7948 191.745 21.7366C191.76 20.0599 191.486 18.3929 190.935 16.8075C190.423 15.3602 189.626 14.0281 188.59 12.8888C187.535 11.7497 186.231 10.8647 184.778 10.3015C183.132 9.65379 181.374 9.33296 179.603 9.3572C177.375 9.31641 175.174 9.85005 173.217 10.9058" fill="#E3AFD1"/>
<path d="M156.529 32.6618C157.917 32.6849 159.286 32.3288 160.484 31.6325C161.651 30.9772 162.634 30.0421 163.343 28.913C164.054 27.7805 164.421 26.4694 164.401 25.136C164.444 23.6483 164.071 22.1777 163.324 20.8868C162.627 19.7886 161.596 18.9386 160.379 18.46C158.936 17.9089 157.398 17.6427 155.852 17.6762H152.611C152.472 17.6813 152.333 17.6561 152.205 17.6023C152.076 17.5484 151.961 17.4673 151.868 17.3646C151.684 17.1718 151.582 16.9168 151.582 16.6517C151.582 16.3866 151.684 16.1316 151.868 15.9388C151.961 15.8361 152.076 15.755 152.205 15.7011C152.333 15.6473 152.472 15.6221 152.611 15.6272H162.419V9.55551H150.591C149.251 9.54061 147.931 9.87255 146.761 10.5185C145.591 11.1644 144.611 12.1019 143.919 13.2382C143.241 14.3616 142.891 15.6497 142.909 16.9586C142.845 18.4671 143.23 19.9609 144.014 21.255C144.734 22.3582 145.779 23.2153 147.007 23.7101C148.335 24.2446 149.758 24.5111 151.191 24.4939H154.699C154.901 24.4812 155.103 24.5272 155.28 24.6261C155.434 24.7158 155.56 24.8467 155.642 25.0038C155.735 25.1578 155.781 25.3346 155.776 25.5137C155.778 25.6954 155.732 25.8745 155.642 26.033C155.556 26.1924 155.431 26.3285 155.28 26.4296C155.109 26.5441 154.905 26.6004 154.699 26.5901H143.833V32.6524L156.529 32.6618ZM125.143 32.6618V19.9425C125.141 19.3919 125.279 18.8497 125.544 18.3655C125.815 17.8452 126.228 17.4102 126.735 17.1097C127.287 16.7929 127.917 16.6328 128.555 16.647C128.991 16.6382 129.424 16.7157 129.829 16.8752C130.234 17.0346 130.603 17.2726 130.914 17.5752C131.224 17.8779 131.471 18.239 131.639 18.6374C131.807 19.0359 131.893 19.4635 131.891 19.8953V32.6618H140.526V19.3759C140.559 17.503 140.071 15.6572 139.116 14.0408C138.138 12.4555 136.722 11.1809 135.036 10.3676C133.073 9.43437 130.914 8.97489 128.737 9.02672C126.532 8.98151 124.347 9.44034 122.351 10.3676C120.611 11.18 119.131 12.4507 118.071 14.0408C117.046 15.6324 116.515 17.4878 116.547 19.3759V32.6618H125.143ZM98.2092 25.1737C97.568 24.7845 97.0573 24.2162 96.7414 23.5401C96.3884 22.7964 96.2123 21.9823 96.2267 21.1606C96.2087 20.3718 96.3853 19.5906 96.7414 18.8849C97.002 18.3991 97.36 17.9712 97.7933 17.6273C98.2267 17.2834 98.7264 17.0308 99.2618 16.8849C99.7971 16.7391 100.357 16.703 100.907 16.779C101.457 16.855 101.985 17.0414 102.46 17.3269C103.07 17.711 103.567 18.2486 103.899 18.8849C104.255 19.5906 104.432 20.3718 104.414 21.1606C104.428 21.9823 104.252 22.7964 103.899 23.5401C103.582 24.2068 103.084 24.7726 102.46 25.1737C101.816 25.5509 101.082 25.7499 100.335 25.7499C99.5868 25.7499 98.8527 25.5509 98.2092 25.1737ZM100.859 32.7279C101.724 32.4297 102.514 31.9498 103.175 31.3209C103.82 30.7168 104.347 29.9997 104.728 29.2058H104.995V32.6429H113.173V21.1984C113.22 18.9766 112.667 16.7826 111.571 14.8434C110.522 13.0385 108.988 11.5576 107.14 10.5659C105.083 9.5016 102.787 8.97201 100.468 9.02672C98.08 8.97514 95.7182 9.52763 93.6057 10.632C91.6866 11.6645 90.0908 13.1998 88.9928 15.07C87.8607 17.0623 87.288 19.3186 87.3344 21.6044C87.2874 23.7085 87.7481 25.7933 88.6783 27.6855C89.5173 29.3477 90.791 30.7564 92.3667 31.7647C93.9426 32.751 95.7735 33.2627 97.6373 33.2378C98.7225 33.2627 99.8036 33.0964 100.83 32.7468M79.6621 32.6618V17.7707C79.6483 17.5447 79.6829 17.3184 79.7636 17.1066C79.8444 16.8949 79.9694 16.7024 80.1305 16.5419C80.2916 16.3814 80.4852 16.2564 80.6985 16.1753C80.9118 16.0941 81.14 16.0586 81.3681 16.071H85.819V9.61216H78.385C77.4021 9.54793 76.4162 9.6822 75.4873 10.0068C74.5583 10.3315 73.7057 10.8397 72.981 11.5007C72.3239 12.1966 71.8162 13.0174 71.4885 13.9133C71.1609 14.8092 71.0201 15.7617 71.0748 16.7131V32.6618H79.6621ZM68.2346 9.55551H49.9163V16.071H68.2346V9.55551ZM68.2346 32.6524V25.7497H63.1451C63.0048 25.753 62.8653 25.7288 62.7345 25.6786C62.6036 25.6284 62.4841 25.5531 62.3826 25.457C62.279 25.3645 62.1971 25.2506 62.1428 25.1234C62.0884 24.9961 62.0629 24.8586 62.0681 24.7205V4.21094H53.4236V25.5231C53.3699 26.4758 53.511 27.4295 53.8386 28.3268C54.1662 29.2242 54.6734 30.0467 55.3298 30.7449C56.0485 31.4005 56.8933 31.9056 57.8137 32.2301C58.734 32.5546 59.711 32.6918 60.6861 32.6335L68.2346 32.6524Z" fill="#B02785"/>
<path d="M17.1587 21.1511L12.4218 16.3825L16.4629 12.4544L21.1998 17.2324L30.9784 7.74248H23.1155L23.1631 1.07593L41.348 1.14203V19.0832L34.7145 19.0548V11.699L25.1551 21.2267L29.8919 25.9952L25.8603 29.9234L21.1235 25.1548L16.3009 29.8384L12.3456 25.8441L17.1587 21.1511Z" fill="#B02785"/>
</g>
</svg>
