<svg width="147" height="147" viewBox="0 0 147 147" fill="none" xmlns="http://www.w3.org/2000/svg">
<path d="M81.0896 0.780187L80.9395 24.8879H109.33L74.8851 59.7336L57.162 43.0813L42.5913 57.2918L59.6939 73.944L42.9115 90.9065L57.2321 105.367L74.4447 88.5347L91.7274 105.677L106.298 91.4669L89.2056 74.1942L122.81 39.1984V65.818L146.758 65.9381V0.419922L81.0896 0.780187Z" fill="black"/>
<mask id="mask0_2111_24164" style="mask-type:luminance" maskUnits="userSpaceOnUse" x="-1" y="0" width="149" height="148">
<path d="M147.168 0.370117H-0.940674V147.358H147.168V0.370117Z" fill="white"/>
</mask>
<g mask="url(#mask0_2111_24164)">
<path d="M122.57 81.6699C120.916 91.9033 116.043 101.343 108.66 108.62C99.3104 117.872 86.6878 123.062 73.5341 123.062C60.3803 123.062 47.7578 117.872 38.4082 108.62C33.7986 104.06 30.1391 98.6305 27.6415 92.6467C25.144 86.6629 23.858 80.2432 23.858 73.7591C23.858 67.275 25.144 60.8552 27.6415 54.8714C30.1391 48.8876 33.7986 43.4585 38.4082 38.8984C42.4112 34.8955 55.0405 26.8896 65.1079 25.1583V1.26074C28.4609 5.37377 0 36.2765 0 73.7641C0 114.064 32.9242 146.738 73.5341 146.738C111.452 146.738 142.665 118.257 146.638 81.6899L122.57 81.6699Z" fill="black"/>
</g>
</svg>
