<svg width="531" height="522" viewBox="0 0 531 522" fill="none" xmlns="http://www.w3.org/2000/svg">
<path d="M455.22 60.4799C455.22 60.4799 486.731 59.137 493.49 60.4799C500.249 61.8227 517.677 461.611 517.677 461.611L228.238 493.504" fill="#E3AFD1"/>
<path d="M125.752 494.376L133.976 521.126C133.976 521.126 531.463 413.404 530.778 403.211C530.093 393.019 447.198 27.6207 446.822 21.0676C446.446 14.5146 16.5 129.894 16.5 129.894" fill="#B02785"/>
<path d="M105.327 494.014C177.768 487.998 309.063 445.457 356.604 431.236C423.441 411.268 504.118 346.047 489.122 289.688C485.279 275.535 406.456 4.79248 406.456 4.79248L2.0083 99.4757L105.327 494.014Z" fill="white"/>
<path d="M105.327 496.028C138.517 493.248 171.331 485.567 203.554 477.483C238.02 468.835 272.151 458.966 306.161 448.706C319.396 444.678 332.619 440.649 345.841 436.621C360.394 432.189 374.691 427.557 388.477 421.044C405.554 412.957 421.694 403.028 436.61 391.434C450.934 380.316 464.183 367.559 474.758 352.774C483.774 340.192 490.883 325.729 492.562 310.193C493.315 301.933 492.457 293.606 490.036 285.673C486.274 272.352 482.404 259.085 478.561 245.791C472.129 223.526 465.679 201.262 459.211 178.998C451.919 153.887 444.623 128.78 437.322 103.678C431.141 82.399 424.951 61.1106 418.752 39.8132C415.5 28.4618 412.199 17.1104 408.848 5.75894L408.405 4.22811C408.238 3.73108 407.889 3.31593 407.427 3.06664C406.966 2.81735 406.426 2.75252 405.919 2.88528L395.062 5.36952L365.701 12.2448L322.097 22.4504L269.114 34.8582L210.85 48.5014L152.264 62.2251L97.4129 75.0626L51.2425 85.8724L17.9046 93.6877C12.6641 94.9097 7.35637 95.984 2.15615 97.3671C1.94115 97.3671 1.69928 97.4745 1.47085 97.5282C0.971578 97.6922 0.554107 98.0411 0.3042 98.5031C0.0542934 98.9651 -0.00907154 99.5052 0.127123 100.012L2.82801 110.54L10.3663 139.331L21.5058 181.764L35.0506 233.504L49.8987 290.185L64.9082 347.645L78.8829 400.928L90.6943 446.007L99.1866 478.45C100.53 483.566 101.74 488.75 103.218 493.826C103.218 494.054 103.325 494.282 103.392 494.497C103.554 494.987 103.898 495.397 104.353 495.641C104.808 495.885 105.34 495.946 105.838 495.81C106.337 495.673 106.764 495.351 107.031 494.91C107.299 494.468 107.386 493.94 107.276 493.436L104.588 482.908L97.0501 454.104L85.8703 411.738L72.3121 359.985L57.5311 303.304L42.4814 245.858L28.4663 192.507L16.655 147.428L8.16261 114.999C6.81888 109.963 5.94546 104.498 4.13143 99.6096C4.06066 99.3893 4.00234 99.1651 3.95674 98.9382L2.54583 101.476L13.4434 98.8711L42.8039 91.9958L86.4078 81.7902L139.351 69.3824L197.628 55.7392L256.214 42.0155L311.065 29.178L357.236 18.4353L390.574 10.62L400.907 8.2029C402.667 7.78662 404.589 7.53148 406.282 6.94064C406.507 6.87276 406.736 6.81894 406.967 6.7795L404.495 5.43666C406.752 13.2161 408.992 20.9912 411.213 28.7617L428.037 86.5841L449.348 159.93C456.165 183.411 462.974 206.893 469.773 230.375C474.512 246.731 479.233 263.091 483.936 279.455C484.957 282.974 485.992 286.492 486.932 290.024C490.48 303.197 488.491 316.88 483.358 329.382C476.975 344.932 466.279 358.535 454.508 370.365C441.114 383.648 426.162 395.263 409.977 404.957C394.217 414.65 377.378 422.469 359.802 428.255C348.313 431.948 336.69 435.305 325.148 438.823C293.033 448.639 260.864 458.24 228.399 466.955C194.846 475.872 160.77 484.399 126.222 489.555C119.289 490.589 112.315 491.449 105.327 492.026C102.761 492.241 102.747 496.269 105.327 496.028Z" fill="#B02785"/>
<path d="M488.673 308.971C463.62 317.891 437.327 321.025 410.876 319.685C403.294 319.31 395.726 318.627 388.197 317.743C387.808 317.75 387.431 317.872 387.11 318.093C386.789 318.315 386.538 318.627 386.39 318.992C386.241 319.356 386.201 319.757 386.274 320.144C386.346 320.531 386.529 320.889 386.799 321.172C386.992 321.351 387.173 321.543 387.339 321.748C387.115 321.373 387.643 322.083 387.339 321.748C387.419 321.882 387.511 322.016 387.59 322.163C387.669 322.31 387.999 323.047 387.775 322.471C387.895 322.777 387.997 323.09 388.078 323.409C388.157 323.717 388.21 324.011 388.262 324.319C388.262 323.891 388.315 324.627 388.262 324.319V324.909C388.315 325.653 388.315 326.401 388.262 327.145C388.262 327.333 388.262 327.507 388.262 327.694C388.262 327.882 388.262 327.467 388.262 327.962C388.262 328.458 388.117 328.846 388.025 329.302C387.827 330.266 387.59 331.23 387.313 332.168C386.703 334.203 385.981 336.202 385.151 338.155C380.259 349.619 373.178 360.173 365.86 370.164C356.406 382.99 346.068 395.119 334.925 406.46C323.656 418.171 311.418 428.88 298.348 438.469C287.179 446.505 275.022 453.938 261.757 457.769C260.346 458.171 258.935 458.532 257.498 458.84C255.006 459.389 256.06 463.26 258.553 462.711C272.055 459.778 284.595 452.746 295.961 445.005C309.601 435.543 322.357 424.828 334.068 412.996C345.804 401.337 356.714 388.85 366.717 375.629C374.628 365.169 382.21 354.133 387.695 342.146C389.696 338.104 391.151 333.806 392.02 329.369C392.548 326.248 392.706 322.672 390.992 319.913C390.631 319.312 390.187 318.766 389.673 318.292L388.276 321.721C414.647 324.855 441.52 325.056 467.615 319.203C475.128 317.506 482.534 315.355 489.794 312.761C492.181 311.904 491.113 308.02 488.739 308.89L488.673 308.971Z" fill="#B02785"/>
<path d="M98.3939 181.939C97.3861 189.298 104.36 192.36 110.568 193.018C114.325 193.274 118.098 192.962 121.761 192.091C126.841 191.098 131.911 190.073 136.972 189.016C157.236 184.746 177.351 179.822 197.319 174.245C237.238 163.159 276.41 149.546 314.599 133.49C335.992 124.556 356.99 114.856 377.593 104.391C379.905 103.223 377.862 99.7446 375.551 100.913C339.857 118.985 303.081 134.838 265.432 148.382C227.819 161.913 189.411 173.124 150.423 181.953C139.525 184.41 128.574 186.814 117.582 188.788C114.112 189.442 110.537 189.276 107.142 188.304C104.723 187.566 101.767 185.968 102.237 183C102.359 182.486 102.282 181.945 102.02 181.486C101.758 181.028 101.331 180.686 100.826 180.529C100.318 180.39 99.7764 180.452 99.3132 180.702C98.85 180.952 98.5014 181.371 98.3402 181.872L98.3939 181.939Z" fill="#B02785"/>
<path d="M112.503 245.872C144.641 233.556 178.022 224.763 212.06 219.646C229.085 216.96 246.19 214.597 262.772 209.763C278.473 205.042 293.733 198.963 308.378 191.594C325.188 183.389 341.313 173.99 357.437 164.59C357.666 164.456 357.866 164.278 358.025 164.067C358.185 163.856 358.302 163.615 358.369 163.359C358.435 163.103 358.451 162.836 358.414 162.573C358.378 162.311 358.29 162.059 358.156 161.83C358.022 161.602 357.844 161.402 357.633 161.242C357.422 161.083 357.181 160.966 356.924 160.9C356.668 160.833 356.401 160.817 356.138 160.854C355.876 160.89 355.623 160.978 355.395 161.112C326.975 177.615 298.219 194.32 266.709 204.297C250.423 209.467 233.626 212.234 216.776 214.812C199.926 217.39 182.914 220.385 166.225 224.547C147.62 229.213 129.327 235.043 111.455 242.004C109.063 242.931 110.111 246.825 112.53 245.885L112.503 245.872Z" fill="#B02785"/>
<path d="M120.834 285.136C154.427 273.453 189.445 267.37 224.382 261.677C259.009 256.023 293.866 250.746 327.513 240.54C346.248 234.986 364.355 227.502 381.544 218.209C383.815 216.96 381.786 213.469 379.501 214.731C348.864 231.57 315.003 241.024 280.832 247.819C246.365 254.694 211.455 259.031 177.015 266.027C157.608 269.805 138.478 274.893 119.759 281.255C117.327 282.101 118.415 285.995 120.834 285.136Z" fill="#B02785"/>
<path d="M128.668 337.399L194.847 321.702L260.689 306.058L298.139 297.155L295.666 295.812L298.004 311.295C298.088 311.592 298.238 311.867 298.444 312.098C298.65 312.329 298.906 312.509 299.193 312.626C299.48 312.742 299.789 312.792 300.098 312.771C300.406 312.75 300.706 312.658 300.974 312.503C304.235 309.929 307.29 307.105 310.111 304.057C312.799 301.371 315.97 298.242 319.773 297.074C321.305 296.675 322.907 296.616 324.464 296.901C326.022 297.186 327.498 297.809 328.789 298.726C331.06 300.257 332.82 302.754 331.342 305.44C331.167 305.746 331.074 306.093 331.074 306.446C331.074 306.799 331.166 307.146 331.341 307.452C331.516 307.759 331.768 308.014 332.072 308.194C332.377 308.373 332.722 308.47 333.076 308.475C341.138 308.475 347.601 303.103 352.882 297.504C358.163 291.904 362.664 285.338 369.222 281.47C370.719 280.523 372.408 279.919 374.167 279.703C375.926 279.487 377.712 279.664 379.394 280.221C381.866 281.027 382.914 277.146 380.469 276.327C372.944 273.856 366.266 277.804 360.958 282.88C355.153 288.44 350.504 295.275 344.081 300.189C340.983 302.784 337.114 304.28 333.076 304.446L334.822 307.481C339.391 299.33 329.367 292.455 322.03 292.629C312.019 292.884 306.201 303.681 298.932 308.985L301.901 310.18L299.55 294.711C299.405 294.198 299.065 293.763 298.602 293.5C298.14 293.236 297.592 293.164 297.077 293.301L230.952 309.012L165.11 324.656L127.66 333.505C125.134 334.109 126.209 337.99 128.735 337.399H128.668Z" fill="#B02785"/>
<path d="M145.801 388.615C139.971 401.803 137.844 416.328 139.646 430.632C139.661 431.067 139.814 431.485 140.085 431.825C140.355 432.166 140.727 432.411 141.147 432.523C141.567 432.636 142.013 432.611 142.417 432.452C142.822 432.293 143.165 432.008 143.395 431.639C154.4 413.985 166.878 397.293 180.697 381.74C184.675 377.263 188.75 372.895 192.925 368.633L189.472 367.197C191.204 381.836 192.039 396.568 191.971 411.309C191.983 411.701 192.109 412.082 192.332 412.405C192.556 412.728 192.868 412.98 193.231 413.13C193.594 413.281 193.993 413.323 194.38 413.252C194.766 413.182 195.124 413.001 195.411 412.732L216.346 391.529L221.452 386.345C222.906 384.702 224.483 383.171 226.169 381.766C226.794 381.176 227.569 380.767 228.41 380.585C229.25 380.402 230.125 380.454 230.939 380.732C232.439 381.556 233.716 382.731 234.661 384.157C236.731 387.086 239.201 389.712 241.998 391.959C244.895 394.016 248.134 395.543 251.565 396.47C259.038 398.411 266.905 398.221 274.274 395.92C283.68 393.127 292.213 387.863 300.531 382.747C302.734 381.404 300.705 377.899 298.502 379.269C284.796 387.782 268.94 397.384 252.17 392.455C248.634 391.459 245.362 389.694 242.589 387.285C239.982 384.949 238.303 381.834 235.87 379.39C233.183 376.704 229.568 375.549 225.981 377.214C222.151 378.987 219.262 382.908 216.319 385.849L192.656 409.899L196.096 411.322C196.133 396.575 195.267 381.839 193.503 367.197C193.49 366.804 193.365 366.423 193.141 366.1C192.918 365.777 192.606 365.525 192.243 365.375C191.88 365.225 191.481 365.182 191.094 365.253C190.707 365.324 190.349 365.504 190.063 365.773C175.276 380.896 161.791 397.238 149.751 414.626C146.338 419.54 143.032 424.536 139.902 429.612L143.664 430.632C141.875 417.041 143.811 403.22 149.267 390.643C150.302 388.293 146.835 386.238 145.787 388.615H145.801Z" fill="#B02785"/>
<path d="M231.826 37.6113C228.749 25.8481 226.129 12.6883 214.868 5.90702C209.307 2.63733 202.991 0.865268 196.54 0.763967C190.479 0.669969 183.774 2.34851 179.743 7.16929C175.161 12.6346 175.43 19.6308 176.612 26.251C178.117 34.6168 179.864 42.9424 181.49 51.268L186.502 76.8892C188.047 84.7985 189.284 92.8555 191.232 100.671C193.18 108.486 197.655 115.16 205.314 118.289C211.804 120.974 220.095 121.256 225.712 116.503C226.216 115.999 226.577 115.371 226.759 114.682C226.941 113.993 226.937 113.268 226.747 112.582L207.558 41.049L202.089 20.6379C200.746 15.6291 192.979 17.7508 194.323 22.773L213.511 94.3192L219.034 114.717L220.068 110.796C220.552 110.393 220.068 110.796 219.988 110.796C219.907 110.796 219.437 111.132 219.168 111.279C218.59 111.588 219.665 111.105 219.047 111.346C218.798 111.452 218.542 111.542 218.281 111.615C217.273 111.969 216.204 112.12 215.137 112.058C212.661 112.103 210.204 111.613 207.934 110.621C205.808 109.742 203.954 108.315 202.56 106.485C200.963 104.306 199.837 101.818 199.254 99.1803C197.4 92.2378 196.365 85.0268 194.981 77.9635L190.493 54.9742L185.924 32.052C185.293 28.8023 184.581 25.5527 184.083 22.2627C183.752 20.032 183.807 17.7609 184.245 15.5486C184.506 14.5492 184.962 13.6113 185.587 12.7886C186.212 11.9659 186.993 11.2747 187.886 10.7547C189.656 9.78497 191.602 9.17781 193.61 8.96869C198.55 8.5443 203.516 9.39992 208.029 11.4529C209.369 12.0654 210.659 12.7839 211.885 13.6015C212.953 14.3041 213.921 15.1489 214.761 16.1126C216.621 18.2571 218.123 20.6875 219.208 23.3102C221.372 28.2115 222.621 34.3348 224.046 39.8002C225.389 44.8089 233.129 42.6873 231.826 37.6516V37.6113Z" fill="#B02785"/>
</svg>
