<svg width="254" height="1328" viewBox="0 0 254 1328" fill="none" xmlns="http://www.w3.org/2000/svg">
<path d="M61.386 71.7418C64.9684 72.1952 68.5423 71.1233 71.95 68.5847C76.8799 64.9158 80.0828 59.9854 82.6111 52.1798C83.0342 50.8859 83.8687 47.0952 84.0578 45.6322C84.4523 42.5384 84.6639 39.6822 84.8533 34.6581C84.8945 33.5459 84.9141 32.4422 84.8921 32.2066C84.8456 31.6559 84.6864 31.2919 84.3943 31.0247C84.1797 30.8269 84.1054 30.8043 83.2152 30.6196C82.629 30.4936 81.6685 30.3598 80.6874 30.261C76.221 29.8089 74.9134 29.6334 70.2022 28.8781C67.4177 28.4248 64.5235 27.8687 64.4136 27.766C64.3425 27.698 62.4811 27.4298 62.2253 27.454C61.7101 27.4883 61.3943 27.8227 60.9105 28.8465C59.6236 31.5507 56.7387 37.9475 55.8878 39.9739C54.2354 43.9185 53.3043 46.686 52.526 50.0008C51.0876 56.1413 51.1137 60.7764 52.6209 64.5955C53.7643 67.4989 55.5193 69.5511 57.8386 70.6959C58.8645 71.1999 60.1981 71.5921 61.386 71.7418Z" fill="#E3AFD1"/>
<path d="M67.2109 24.2322C67.7219 24.3091 69.9949 24.6261 72.2693 24.9369C74.545 25.2413 76.9895 25.5886 77.7099 25.7038C78.429 25.8254 79.615 26.0144 80.353 26.14C82.8889 26.5531 83.5077 26.5278 83.9633 25.9728C84.1435 25.7478 84.2709 25.1552 84.2447 24.6022C84.1945 23.3319 83.7514 18.7654 83.5062 16.9915C82.6355 10.6713 81.1422 6.94088 78.6937 4.92427C75.8865 2.61293 72.0666 2.4053 68.9348 4.39651C67.1405 5.53428 65.4903 7.47459 64.5412 9.55898C64.0438 10.6457 63.8268 11.3179 63.5301 12.6984L63.2524 13.9906L63.2175 18.2038C63.1942 20.9817 63.2127 22.5223 63.2666 22.7317C63.3838 23.1987 63.5441 23.3123 64.5503 23.6011C66.0289 24.0244 66.2608 24.0808 67.2109 24.2322Z" fill="#E3AFD1"/>
<path d="M16.3954 126.51C12.943 125.451 10.125 123.006 8.06123 119.291C5.07391 113.921 4.17946 108.11 5.08137 99.9547C5.22718 98.6012 6.02381 94.8024 6.45245 93.3909C7.36387 90.4081 8.34446 87.7172 10.2359 83.0589C10.6553 82.0279 11.0909 81.0136 11.2076 80.8079C11.4763 80.3249 11.771 80.0585 12.1471 79.9349C12.4241 79.8427 12.5011 79.8527 13.3885 80.05C13.9747 80.176 14.9054 80.4485 15.8405 80.7616C20.0983 82.1844 21.3625 82.5617 25.968 83.8086C28.6929 84.5393 31.5601 85.2215 31.7024 85.1729C31.7952 85.1401 33.6024 85.6604 33.8257 85.7875C34.2813 86.0305 34.4319 86.4651 34.4524 87.5972C34.5145 90.5914 34.5166 97.6087 34.4599 99.8057C34.3457 104.081 34.0575 106.987 33.4053 110.328C32.1938 116.518 30.2658 120.733 27.3226 123.596C25.0873 125.773 22.6441 126.923 20.0593 127.014C18.9168 127.052 17.5399 126.861 16.3954 126.51Z" fill="#E3AFD1"/>
<path d="M30.604 80.8018C30.1065 80.6619 27.9039 80.0171 25.7027 79.3659C23.5029 78.7085 21.1315 78.0208 20.4273 77.8299C19.7218 77.6453 18.5629 77.3303 17.8384 77.1416C15.3567 76.4764 14.803 76.1991 14.6156 75.506C14.5437 75.2267 14.6711 74.6342 14.9222 74.1408C15.4898 73.0032 17.7699 69.022 18.7223 67.5055C22.1128 62.101 25.0069 59.3135 28.0677 58.4809C31.5766 57.527 35.1446 58.9071 37.1817 62.0092C38.3501 63.7837 39.0575 66.2306 39.0664 68.5209C39.0734 69.7161 38.9951 70.4181 38.6984 71.7985L38.4207 73.0908L36.7216 76.9462C35.6015 79.4885 34.9517 80.8854 34.8165 81.0542C34.5177 81.4319 34.325 81.4696 33.2889 81.3194C31.767 81.0979 31.5324 81.0541 30.604 80.8018Z" fill="#E3AFD1"/>
<path d="M62.5327 178.05C66.1017 177.501 69.2434 175.488 71.822 172.111C75.5537 167.228 77.2781 161.607 77.5635 153.407C77.6147 152.047 77.3751 148.173 77.1548 146.714C76.6838 143.631 76.1021 140.827 74.9034 135.944C74.6373 134.863 74.3527 133.797 74.2669 133.576C74.0708 133.06 73.8177 132.753 73.4634 132.577C73.2027 132.446 73.125 132.444 72.2184 132.511C71.6201 132.551 70.6599 132.687 69.6893 132.861C65.2707 133.654 63.9652 133.845 59.2279 134.414C56.4261 134.743 53.4904 135.004 53.3566 134.935C53.2695 134.89 51.4061 135.143 51.1668 135.237C50.6809 135.412 50.4691 135.82 50.2853 136.937C49.7914 139.891 48.7757 146.834 48.5145 149.016C48.0101 153.263 47.8755 156.18 48.0382 159.581C48.343 165.881 49.6421 170.33 52.1409 173.588C54.0383 176.065 56.2898 177.556 58.8344 178.019C59.9594 178.222 61.3494 178.232 62.5327 178.05Z" fill="#E3AFD1"/>
<path d="M55.0748 130.769C55.5873 130.702 57.8599 130.382 60.1321 130.056C62.4038 129.723 64.8496 129.385 65.574 129.298C66.2988 129.217 67.4911 129.073 68.2352 128.991C70.7869 128.691 71.3749 128.497 71.6604 127.838C71.7719 127.572 71.7315 126.967 71.5542 126.443C71.1569 125.235 69.4757 120.966 68.7523 119.328C66.178 113.491 63.7169 110.314 60.8084 109.048C57.474 107.598 53.7442 108.448 51.2804 111.223C49.8679 112.81 48.8146 115.13 48.4749 117.395C48.2954 118.576 48.2715 119.282 48.3657 120.691L48.4538 122.01L49.5783 126.07C50.3194 128.748 50.7606 130.224 50.87 130.41C51.1111 130.827 51.2964 130.892 52.3433 130.893C53.8813 130.894 54.1197 130.885 55.0748 130.769Z" fill="#E3AFD1"/>
<path d="M34.327 243.075C30.7167 243.007 27.3351 241.43 24.3298 238.426C19.9814 234.083 17.5243 228.742 16.1499 220.653C15.9181 219.311 15.6399 215.44 15.6641 213.965C15.7206 210.847 15.9238 207.99 16.4619 202.991C16.5818 201.885 16.7219 200.79 16.7776 200.56C16.9032 200.021 17.1132 199.684 17.4409 199.462C17.6819 199.297 17.7586 199.286 18.6661 199.232C19.2644 199.192 20.2341 199.198 21.2193 199.242C25.7041 199.44 27.0234 199.455 31.7942 199.388C34.615 199.341 37.5592 199.209 37.6827 199.123C37.7629 199.066 39.6436 199.07 39.8932 199.131C40.398 199.239 40.6623 199.616 40.9931 200.699C41.8759 203.56 43.8066 210.307 44.356 212.435C45.4212 216.577 45.9429 219.45 46.2343 222.842C46.7706 229.126 46.0754 233.709 44.0324 237.27C42.4817 239.978 40.4487 241.755 37.9883 242.553C36.9003 242.903 35.5241 243.099 34.327 243.075Z" fill="#E3AFD1"/>
<path d="M35.4252 195.223C34.9084 195.225 32.6135 195.21 30.3181 195.189C28.0223 195.162 25.5532 195.153 24.8237 195.163C24.0946 195.179 22.8937 195.195 22.1453 195.212C19.5764 195.255 18.9677 195.14 18.5971 194.525C18.4512 194.277 18.4108 193.672 18.5166 193.129C18.7497 191.879 19.8477 187.424 20.3466 185.704C22.121 179.576 24.1374 176.101 26.8515 174.459C29.9632 172.577 33.773 172.923 36.5843 175.346C38.1955 176.731 39.5481 178.889 40.1863 181.089C40.5214 182.236 40.6391 182.933 40.7332 184.341L40.8214 185.66L40.2475 189.834C39.8693 192.586 39.6285 194.108 39.5449 194.308C39.3614 194.753 39.1865 194.842 38.149 194.983C36.6248 195.188 36.3872 195.21 35.4252 195.223Z" fill="#E3AFD1"/>
<path d="M90.6056 278.166C94.0086 276.958 96.7174 274.392 98.6174 270.591C101.368 265.096 102.008 259.251 100.752 251.143C100.548 249.797 99.5862 246.037 99.0964 244.645C98.056 241.705 96.9591 239.059 94.8666 234.488C94.4026 233.476 93.9233 232.482 93.7977 232.281C93.5082 231.811 93.2022 231.557 92.8211 231.45C92.5403 231.37 92.4639 231.383 91.5858 231.619C91.0057 231.771 90.0878 232.083 89.1672 232.437C84.9754 234.044 83.7288 234.476 79.182 235.922C76.4916 236.771 73.6568 237.577 73.5125 237.535C73.4184 237.506 71.6355 238.105 71.418 238.242C70.9734 238.504 70.8419 238.945 70.8707 240.077C70.9391 243.071 71.2426 250.082 71.395 252.274C71.6954 256.54 72.1098 259.431 72.907 262.741C74.3869 268.872 76.4967 272.999 79.5618 275.73C81.8898 277.808 84.3808 278.851 86.9672 278.829C88.1102 278.817 89.4775 278.567 90.6056 278.166Z" fill="#E3AFD1"/>
<path d="M74.4194 233.12C74.9104 232.959 77.0828 232.219 79.2535 231.472C81.4226 230.72 83.7618 229.929 84.457 229.708C85.1538 229.493 86.2979 229.128 87.0134 228.908C89.4638 228.135 90.005 227.834 90.1619 227.133C90.2216 226.851 90.0686 226.265 89.7962 225.783C89.1796 224.671 86.7282 220.793 85.7106 219.319C82.088 214.068 79.0752 211.409 75.9811 210.71C72.4339 209.91 68.9295 211.444 67.0294 214.632C65.9394 216.456 65.3393 218.931 65.4301 221.22C65.4752 222.414 65.584 223.112 65.9406 224.478L66.2743 225.757L68.1397 229.535C69.3695 232.026 70.0795 233.393 70.2219 233.556C70.5369 233.92 70.7311 233.95 71.7596 233.755C73.2705 233.467 73.5029 233.413 74.4194 233.12Z" fill="#E3AFD1"/>
<path d="M75.0877 347.325C71.5284 347.934 67.9112 347.019 64.3962 344.631C59.311 341.18 55.8964 336.394 53.0306 328.706C52.5515 327.432 51.5527 323.681 51.3 322.227C50.7711 319.154 50.4353 316.309 50.0272 311.298C49.9376 310.189 49.87 309.087 49.8816 308.851C49.9041 308.299 50.0473 307.928 50.3275 307.649C50.5333 307.442 50.6066 307.416 51.4878 307.192C52.068 307.041 53.0217 306.865 53.9977 306.724C58.4401 306.078 59.7388 305.846 64.4126 304.886C67.1747 304.312 70.042 303.63 70.1473 303.523C70.2154 303.451 72.0633 303.102 72.3199 303.115C72.8361 303.127 73.1663 303.448 73.6942 304.449C75.0976 307.095 78.2584 313.36 79.1968 315.347C81.0194 319.216 82.0702 321.941 82.9922 325.218C84.6967 331.29 84.8725 335.922 83.5332 339.803C82.5173 342.754 80.8534 344.881 78.5861 346.125C77.5831 346.673 76.2678 347.123 75.0877 347.325Z" fill="#E3AFD1"/>
<path d="M67.1988 300.114C66.6916 300.213 64.4345 300.629 62.1759 301.038C59.9156 301.442 57.4885 301.895 56.7738 302.042C56.0607 302.194 54.884 302.435 54.1522 302.592C51.6367 303.116 51.0174 303.117 50.5381 302.583C50.3482 302.366 50.1952 301.779 50.1973 301.226C50.192 299.954 50.4358 295.373 50.6035 293.59C51.1981 287.238 52.5275 283.446 54.8858 281.325C57.5897 278.893 61.3969 278.519 64.6124 280.372C66.4546 281.431 68.1877 283.297 69.2268 285.338C69.771 286.402 70.0171 287.065 70.3736 288.431L70.7073 289.71L70.9258 293.917C71.07 296.692 71.1187 298.231 71.074 298.443C70.9772 298.915 70.822 299.035 69.8293 299.368C68.3706 299.855 68.1414 299.921 67.1988 300.114Z" fill="#E3AFD1"/>
<path d="M139.485 372.577C142.425 370.48 144.324 367.268 145.106 363.092C146.24 357.052 145.25 351.256 141.813 343.806C141.246 342.568 139.289 339.217 138.435 338.013C136.627 335.472 134.845 333.23 131.576 329.41C130.852 328.565 130.118 327.74 129.942 327.582C129.534 327.209 129.171 327.05 128.775 327.051C128.483 327.052 128.413 327.085 127.634 327.553C127.117 327.858 126.321 328.412 125.533 329.004C121.944 331.702 120.864 332.46 116.89 335.1C114.537 336.656 112.033 338.21 111.882 338.209C111.784 338.207 110.234 339.273 110.063 339.464C109.707 339.839 109.702 340.299 110.041 341.379C110.93 344.239 113.148 350.896 113.897 352.962C115.359 356.982 116.552 359.647 118.228 362.61C121.336 368.098 124.499 371.486 128.197 373.271C131.006 374.628 133.688 374.946 136.169 374.214C137.264 373.889 138.51 373.272 139.485 372.577Z" fill="#E3AFD1"/>
<path d="M111.541 333.715C111.969 333.425 113.854 332.116 115.736 330.802C117.615 329.482 119.646 328.079 120.254 327.675C120.865 327.277 121.864 326.611 122.492 326.203C124.636 324.787 125.073 324.348 125.031 323.632C125.011 323.344 124.703 322.822 124.309 322.434C123.41 321.534 119.987 318.479 118.604 317.342C113.677 313.288 110.05 311.56 106.883 311.739C103.252 311.945 100.304 314.383 99.3538 317.97C98.807 320.023 98.9105 322.568 99.6268 324.744C99.9984 325.88 100.295 326.521 101.013 327.736L101.686 328.874L104.518 331.994C106.385 334.051 107.443 335.17 107.625 335.288C108.028 335.551 108.222 335.526 109.158 335.056C110.531 334.364 110.74 334.248 111.541 333.715Z" fill="#E3AFD1"/>
<path d="M143.575 443.338C140.32 444.902 136.59 445.016 132.555 443.686C126.717 441.766 122.118 438.103 117.25 431.499C116.439 430.405 114.447 427.073 113.805 425.746C112.452 422.936 111.347 420.293 109.577 415.587C109.186 414.545 108.818 413.504 108.765 413.274C108.634 412.737 108.67 412.341 108.863 411.995C109.004 411.74 109.067 411.695 109.853 411.238C110.369 410.933 111.238 410.502 112.138 410.098C116.231 408.255 117.416 407.675 121.646 405.468C124.144 404.156 126.714 402.713 126.785 402.581C126.831 402.494 128.512 401.65 128.762 401.592C129.262 401.462 129.667 401.679 130.45 402.497C132.527 404.655 137.288 409.81 138.736 411.463C141.552 414.682 143.311 417.012 145.099 419.91C148.406 425.28 149.849 429.685 149.628 433.785C149.462 436.901 148.447 439.403 146.609 441.223C145.795 442.026 144.654 442.82 143.575 443.338Z" fill="#E3AFD1"/>
<path d="M123.013 400.114C122.553 400.348 120.497 401.369 118.438 402.383C116.376 403.392 114.167 404.495 113.52 404.832C112.876 405.175 111.811 405.73 111.151 406.083C108.876 407.277 108.281 407.449 107.673 407.067C107.431 406.91 107.122 406.388 106.972 405.856C106.618 404.635 105.593 400.163 105.264 398.402C104.09 392.131 104.326 388.12 106.01 385.432C107.942 382.351 111.499 380.945 115.1 381.843C117.163 382.355 119.342 383.673 120.902 385.35C121.718 386.223 122.136 386.792 122.855 388.008L123.527 389.146L124.894 393.131C125.795 395.759 126.265 397.226 126.28 397.442C126.317 397.922 126.201 398.081 125.337 398.673C124.069 399.543 123.867 399.669 123.013 400.114Z" fill="#E3AFD1"/>
<path d="M199.831 468.576C203.196 467.266 205.826 464.619 207.611 460.763C210.194 455.187 210.657 449.326 209.157 441.259C208.912 439.92 207.837 436.19 207.305 434.814C206.177 431.907 205 429.296 202.77 424.789C202.276 423.792 201.767 422.813 201.635 422.616C201.332 422.154 201.018 421.91 200.634 421.815C200.351 421.743 200.275 421.759 199.405 422.021C198.829 422.19 197.921 422.53 197.012 422.912C192.87 424.645 191.637 425.114 187.136 426.697C184.473 427.627 181.664 428.518 181.518 428.48C181.423 428.455 179.659 429.107 179.446 429.25C179.01 429.526 178.891 429.97 178.955 431.101C179.113 434.092 179.629 441.09 179.847 443.277C180.276 447.532 180.778 450.408 181.675 453.693C183.339 459.776 185.573 463.838 188.719 466.476C191.109 468.482 193.63 469.449 196.215 469.349C197.357 469.302 198.716 469.011 199.831 468.576Z" fill="#E3AFD1"/>
<path d="M182.291 424.04C182.777 423.864 184.926 423.059 187.073 422.247C189.219 421.429 191.533 420.569 192.221 420.326C192.911 420.09 194.044 419.69 194.752 419.449C197.178 418.602 197.71 418.285 197.846 417.58C197.897 417.296 197.726 416.715 197.439 416.241C196.789 415.149 194.222 411.346 193.16 409.904C189.381 404.764 186.289 402.198 183.175 401.593C179.605 400.901 176.149 402.54 174.346 405.784C173.312 407.64 172.787 410.132 172.946 412.417C173.028 413.609 173.158 414.304 173.555 415.658L173.927 416.927L175.906 420.646C177.211 423.099 177.962 424.444 178.109 424.603C178.435 424.957 178.63 424.981 179.652 424.755C181.153 424.421 181.384 424.36 182.291 424.04Z" fill="#E3AFD1"/>
<path d="M167.308 535.403C163.697 535.451 160.266 533.985 157.165 531.08C152.678 526.88 150.049 521.621 148.413 513.581C148.138 512.248 147.735 508.388 147.711 506.913C147.666 503.794 147.777 500.932 148.153 495.919C148.237 494.809 148.341 493.71 148.389 493.478C148.497 492.936 148.696 492.593 149.017 492.36C149.252 492.187 149.329 492.173 150.234 492.09C150.831 492.03 151.8 492.005 152.786 492.017C157.275 492.069 158.594 492.042 163.36 491.82C166.178 491.683 169.116 491.455 169.237 491.365C169.315 491.306 171.195 491.248 171.447 491.301C171.955 491.393 172.231 491.761 172.597 492.832C173.572 495.664 175.72 502.344 176.338 504.453C177.537 508.559 178.152 511.413 178.553 514.794C179.293 521.057 178.746 525.66 176.82 529.286C175.358 532.043 173.383 533.885 170.95 534.762C169.874 535.148 168.505 535.388 167.308 535.403Z" fill="#E3AFD1"/>
<path d="M166.854 487.54C166.338 487.559 164.044 487.619 161.749 487.672C159.453 487.719 156.985 487.789 156.256 487.823C155.528 487.863 154.328 487.918 153.581 487.96C151.015 488.085 150.403 487.991 150.012 487.388C149.858 487.144 149.798 486.541 149.887 485.995C150.079 484.738 151.032 480.25 151.475 478.515C153.05 472.333 154.953 468.793 157.612 467.064C160.661 465.083 164.48 465.306 167.368 467.636C169.024 468.968 170.446 471.081 171.155 473.259C171.527 474.395 171.667 475.087 171.807 476.492L171.938 477.807L171.499 481.998C171.21 484.761 171.019 486.29 170.942 486.492C170.773 486.942 170.601 487.037 169.569 487.211C168.052 487.466 167.815 487.496 166.854 487.54Z" fill="#E3AFD1"/>
<path d="M223.584 581.466C227.059 580.482 229.929 578.098 232.073 574.429C235.175 569.125 236.195 563.334 235.47 555.162C235.353 553.805 234.639 549.99 234.241 548.57C233.394 545.568 232.472 542.856 230.682 538.158C230.285 537.119 229.871 536.095 229.759 535.887C229.501 535.398 229.212 535.125 228.839 534.994C228.564 534.896 228.487 534.904 227.595 535.082C227.006 535.195 226.07 535.448 225.128 535.74C220.841 537.071 219.569 537.421 214.937 538.568C212.197 539.239 209.316 539.859 209.175 539.808C209.083 539.773 207.265 540.254 207.039 540.376C206.578 540.609 206.418 541.041 206.373 542.172C206.246 545.164 206.092 552.18 206.101 554.377C206.123 558.654 206.348 561.565 206.928 564.921C208.006 571.135 209.842 575.39 212.723 578.316C214.91 580.541 217.328 581.744 219.91 581.89C221.052 581.953 222.432 581.793 223.584 581.466Z" fill="#E3AFD1"/>
<path d="M210.367 535.461C210.868 535.332 213.084 534.735 215.299 534.132C217.512 533.522 219.898 532.886 220.606 532.71C221.315 532.541 222.481 532.251 223.209 532.078C225.705 531.467 226.264 531.202 226.467 530.513C226.544 530.235 226.43 529.64 226.19 529.141C225.647 527.992 223.453 523.962 222.534 522.425C219.261 516.949 216.428 514.099 213.386 513.201C209.898 512.171 206.301 513.474 204.198 516.531C202.991 518.28 202.231 520.711 202.173 523C202.14 524.195 202.203 524.899 202.47 526.285L202.719 527.583L204.335 531.475C205.4 534.04 206.019 535.451 206.15 535.623C206.441 536.007 206.633 536.049 207.672 535.921C209.198 535.732 209.434 535.694 210.367 535.461Z" fill="#E3AFD1"/>
<path d="M195.105 653.137C191.514 653.518 187.963 652.374 184.607 649.768C179.752 646 176.65 641.006 174.28 633.151C173.883 631.848 173.125 628.042 172.965 626.575C172.633 623.474 172.48 620.614 172.392 615.587C172.373 614.474 172.376 613.371 172.402 613.135C172.46 612.586 172.627 612.225 172.924 611.964C173.143 611.77 173.217 611.749 174.111 611.583C174.7 611.469 175.663 611.354 176.646 611.275C181.12 610.913 182.431 610.764 187.157 610.104C189.95 609.707 192.855 609.21 192.966 609.109C193.039 609.043 194.905 608.812 195.161 608.842C195.675 608.886 195.984 609.227 196.447 610.26C197.679 612.99 200.434 619.444 201.244 621.487C202.816 625.464 203.691 628.25 204.403 631.58C205.717 637.748 205.597 642.382 204.013 646.17C202.811 649.049 201.015 651.066 198.673 652.163C197.637 652.647 196.296 653.012 195.105 653.137Z" fill="#E3AFD1"/>
<path d="M190.241 605.52C189.729 605.586 187.45 605.857 185.17 606.122C182.888 606.381 180.437 606.678 179.714 606.779C178.993 606.886 177.803 607.051 177.063 607.162C174.519 607.524 173.901 607.486 173.457 606.922C173.281 606.693 173.166 606.098 173.203 605.546C173.279 604.277 173.814 599.72 174.095 597.951C175.094 591.65 176.662 587.951 179.151 585.984C182.004 583.73 185.827 583.599 188.918 585.653C190.689 586.827 192.3 588.8 193.207 590.904C193.682 592 193.885 592.677 194.154 594.063L194.406 595.36L194.355 599.573C194.323 602.351 194.273 603.891 194.215 604.099C194.088 604.564 193.926 604.674 192.914 604.943C191.427 605.336 191.194 605.388 190.241 605.52Z" fill="#E3AFD1"/>
<path d="M223.567 695.519C227.155 695.927 230.715 694.81 234.09 692.229C238.974 688.498 242.114 683.528 244.544 675.691C244.95 674.392 245.737 670.591 245.908 669.126C246.263 666.027 246.439 663.168 246.565 658.142C246.592 657.03 246.598 655.926 246.573 655.691C246.519 655.14 246.356 654.779 246.06 654.515C245.843 654.32 245.768 654.298 244.876 654.125C244.288 654.006 243.326 653.884 242.344 653.798C237.872 653.402 236.562 653.243 231.842 652.548C229.052 652.129 226.151 651.61 226.04 651.508C225.968 651.441 224.103 651.197 223.848 651.224C223.333 651.265 223.021 651.603 222.551 652.633C221.298 655.353 218.494 661.786 217.669 663.823C216.066 667.788 215.17 670.567 214.434 673.891C213.073 680.049 213.157 684.684 214.712 688.484C215.892 691.372 217.673 693.402 220.007 694.518C221.039 695.009 222.377 695.384 223.567 695.519Z" fill="#E3AFD1"/>
<path d="M228.792 647.94C229.304 648.01 231.581 648.298 233.859 648.581C236.139 648.856 238.587 649.173 239.309 649.279C240.03 649.391 241.218 649.565 241.958 649.682C244.498 650.063 245.117 650.03 245.565 649.469C245.743 649.242 245.863 648.648 245.829 648.095C245.763 646.825 245.263 642.265 244.995 640.494C244.045 634.185 242.505 630.474 240.031 628.489C237.195 626.213 233.373 626.053 230.266 628.084C228.486 629.244 226.861 631.205 225.938 633.301C225.454 634.394 225.246 635.069 224.967 636.453L224.705 637.749L224.723 641.962C224.735 644.74 224.773 646.28 224.829 646.489C224.953 646.955 225.114 647.066 226.124 647.342C227.608 647.747 227.84 647.8 228.792 647.94Z" fill="#E3AFD1"/>
<path d="M179.27 750.852C175.804 749.837 172.956 747.427 170.845 743.739C167.791 738.406 166.823 732.607 167.622 724.441C167.751 723.086 168.499 719.278 168.91 717.861C169.784 714.867 170.731 712.164 172.563 707.482C172.969 706.446 173.392 705.426 173.506 705.219C173.769 704.732 174.06 704.462 174.435 704.334C174.711 704.238 174.788 704.247 175.678 704.433C176.265 704.552 177.199 704.813 178.138 705.114C182.414 706.483 183.683 706.844 188.303 708.033C191.037 708.73 193.913 709.375 194.055 709.325C194.147 709.291 195.961 709.789 196.185 709.913C196.644 710.15 196.8 710.583 196.835 711.715C196.935 714.708 197.025 721.724 196.996 723.922C196.936 728.198 196.685 731.107 196.074 734.457C194.941 740.661 193.066 744.9 190.16 747.8C187.952 750.005 185.523 751.186 182.94 751.309C181.798 751.362 180.419 751.189 179.27 750.852Z" fill="#E3AFD1"/>
<path d="M192.901 704.968C192.402 704.835 190.191 704.218 187.982 703.594C185.774 702.965 183.394 702.307 182.688 702.125C181.98 701.949 180.817 701.649 180.09 701.469C177.601 700.836 177.043 700.565 176.847 699.875C176.772 699.596 176.892 699.002 177.137 698.506C177.69 697.361 179.92 693.351 180.853 691.823C184.175 686.376 187.034 683.552 190.084 682.681C193.58 681.683 197.165 683.018 199.241 686.094C200.432 687.854 201.17 690.292 201.208 692.582C201.23 693.777 201.161 694.48 200.881 695.864L200.62 697.159L198.97 701.036C197.882 703.592 197.25 704.997 197.117 705.168C196.823 705.549 196.63 705.589 195.592 705.452C194.068 705.25 193.833 705.209 192.901 704.968Z" fill="#E3AFD1"/>
<path d="M204.204 807.244C207.582 808.521 211.307 808.313 215.213 806.64C220.863 804.224 225.129 800.177 229.409 793.178C230.123 792.018 231.819 788.527 232.344 787.149C233.45 784.232 234.323 781.504 235.68 776.663C235.979 775.591 236.256 774.523 236.29 774.289C236.373 773.742 236.303 773.351 236.082 773.023C235.919 772.781 235.852 772.741 235.03 772.354C234.489 772.095 233.586 771.74 232.655 771.415C228.418 769.933 227.187 769.457 222.783 767.623C220.181 766.532 217.496 765.316 217.414 765.19C217.36 765.107 215.613 764.412 215.358 764.376C214.85 764.289 214.464 764.541 213.755 765.423C211.872 767.752 207.574 773.299 206.273 775.071C203.746 778.521 202.195 780.994 200.664 784.036C197.832 789.671 196.775 794.184 197.349 798.249C197.783 801.339 199.011 803.745 200.999 805.399C201.879 806.129 203.084 806.821 204.204 807.244Z" fill="#E3AFD1"/>
<path d="M220.958 762.407C221.437 762.601 223.574 763.44 225.713 764.273C227.854 765.1 230.15 766.009 230.824 766.289C231.495 766.575 232.604 767.035 233.292 767.33C235.662 768.324 236.269 768.443 236.842 768.01C237.069 767.833 237.332 767.287 237.435 766.743C237.683 765.496 238.318 760.952 238.494 759.17C239.122 752.821 238.541 748.845 236.631 746.313C234.441 743.41 230.775 742.317 227.265 743.522C225.255 744.209 223.197 745.711 221.788 747.516C221.05 748.457 220.682 749.06 220.072 750.333L219.5 751.524L218.483 755.613C217.811 758.309 217.47 759.811 217.473 760.027C217.478 760.509 217.608 760.657 218.519 761.172C219.858 761.929 220.07 762.038 220.958 762.407Z" fill="#E3AFD1"/>
<path d="M135.326 835.161C132.61 832.782 131.041 829.397 130.679 825.163C130.153 819.04 131.717 813.373 135.879 806.302C136.567 805.127 138.849 801.987 139.818 800.875C141.871 798.527 143.868 796.474 147.501 792.999C148.306 792.23 149.119 791.483 149.309 791.343C149.752 791.013 150.13 790.89 150.524 790.932C150.814 790.961 150.88 791.001 151.609 791.545C152.093 791.9 152.83 792.53 153.555 793.198C156.856 796.24 157.855 797.102 161.546 800.126C163.733 801.908 166.069 803.705 166.219 803.719C166.317 803.727 167.753 804.941 167.904 805.149C168.221 805.557 168.18 806.015 167.735 807.056C166.566 809.814 163.694 816.216 162.742 818.197C160.887 822.051 159.434 824.584 157.471 827.365C153.831 832.516 150.346 835.572 146.488 836.978C143.557 838.049 140.858 838.097 138.462 837.122C137.404 836.688 136.226 835.951 135.326 835.161Z" fill="#E3AFD1"/>
<path d="M167.007 799.281C166.61 798.95 164.865 797.459 163.124 795.964C161.386 794.463 159.504 792.865 158.94 792.402C158.372 791.945 157.444 791.183 156.86 790.714C154.868 789.091 154.477 788.611 154.59 787.902C154.638 787.618 154.997 787.13 155.428 786.782C156.412 785.977 160.123 783.279 161.613 782.285C166.919 778.743 170.701 777.385 173.834 777.879C177.426 778.446 180.116 781.166 180.704 784.83C181.043 786.928 180.686 789.45 179.757 791.543C179.274 792.636 178.915 793.244 178.079 794.382L177.296 795.448L174.167 798.269C172.104 800.13 170.939 801.138 170.747 801.237C170.32 801.459 170.128 801.414 169.244 800.853C167.947 800.028 167.751 799.891 167.007 799.281Z" fill="#E3AFD1"/>
<path d="M146.342 907.045C149.583 908.638 153.311 908.786 157.359 907.493C163.214 905.625 167.845 902.004 172.773 895.444C173.594 894.358 175.615 891.044 176.269 889.722C177.648 886.924 178.777 884.292 180.589 879.602C180.989 878.564 181.366 877.526 181.422 877.296C181.557 876.76 181.525 876.365 181.336 876.017C181.197 875.76 181.134 875.715 180.352 875.251C179.839 874.941 178.974 874.502 178.078 874.09C174.001 872.211 172.822 871.62 168.612 869.374C166.126 868.04 163.569 866.574 163.499 866.441C163.454 866.353 161.78 865.495 161.531 865.435C161.032 865.3 160.625 865.513 159.835 866.324C157.739 868.463 152.931 873.575 151.468 875.215C148.623 878.408 146.843 880.723 145.03 883.605C141.674 888.944 140.192 893.336 140.376 897.438C140.513 900.555 141.506 903.066 143.327 904.903C144.134 905.713 145.268 906.517 146.342 907.045Z" fill="#E3AFD1"/>
<path d="M167.293 864.008C167.751 864.247 169.798 865.286 171.847 866.319C173.901 867.346 176.1 868.469 176.743 868.812C177.384 869.161 178.444 869.725 179.101 870.084C181.365 871.299 181.959 871.476 182.57 871.099C182.813 870.945 183.126 870.426 183.281 869.894C183.647 868.677 184.712 864.214 185.057 862.457C186.287 856.197 186.088 852.184 184.428 849.481C182.524 846.382 178.979 844.944 175.37 845.81C173.304 846.302 171.112 847.601 169.537 849.264C168.714 850.13 168.29 850.695 167.561 851.904L166.878 853.036L165.476 857.009C164.551 859.629 164.067 861.091 164.05 861.307C164.009 861.787 164.124 861.946 164.982 862.547C166.242 863.427 166.443 863.556 167.293 864.008Z" fill="#E3AFD1"/>
<path d="M77.2286 941.27C74.3047 939.151 72.43 935.925 71.6795 931.742C70.5913 925.694 71.6258 919.906 75.1188 912.482C75.6949 911.249 77.6782 907.912 78.5406 906.716C80.3684 904.188 82.1672 901.96 85.4645 898.164C86.1951 897.325 86.9355 896.506 87.1126 896.349C87.5231 895.979 87.8882 895.822 88.284 895.827C88.5759 895.83 88.6456 895.864 89.4214 896.338C89.9353 896.647 90.7276 897.206 91.511 897.805C95.0791 900.529 96.1532 901.295 100.107 903.966C102.449 905.539 104.941 907.113 105.091 907.113C105.19 907.112 106.731 908.189 106.901 908.381C107.254 908.759 107.256 909.219 106.908 910.297C105.998 913.15 103.729 919.79 102.964 921.85C101.472 925.858 100.259 928.514 98.5603 931.465C95.4108 936.929 92.2221 940.293 88.5108 942.049C85.6911 943.386 83.0073 943.683 80.5322 942.932C79.4389 942.599 78.1977 941.973 77.2286 941.27Z" fill="#E3AFD1"/>
<path d="M105.467 902.621C105.041 902.328 103.166 901.005 101.294 899.677C99.4255 898.342 97.4043 896.924 96.7998 896.516C96.192 896.113 95.1975 895.439 94.5731 895.027C92.4403 893.594 92.0061 893.152 92.0532 892.436C92.0755 892.148 92.3878 891.629 92.7851 891.243C93.6904 890.351 97.1363 887.322 98.5284 886.195C103.486 882.179 107.126 880.478 110.292 880.681C113.92 880.914 116.85 883.375 117.773 886.97C118.304 889.027 118.181 891.571 117.449 893.741C117.068 894.874 116.767 895.513 116.04 896.723L115.358 897.856L112.503 900.954C110.62 902.996 109.553 904.108 109.371 904.224C108.966 904.484 108.771 904.458 107.84 903.98C106.471 903.278 106.264 903.161 105.467 902.621Z" fill="#E3AFD1"/>
<path d="M86.1969 1014.75C89.555 1016.07 93.2831 1015.92 97.2139 1014.31C102.9 1011.98 107.225 1007.99 111.61 1001.06C112.341 999.91 114.089 996.444 114.635 995.074C115.785 992.175 116.698 989.46 118.128 984.64C118.443 983.573 118.736 982.508 118.773 982.275C118.865 981.73 118.801 981.338 118.584 981.006C118.425 980.761 118.359 980.721 117.542 980.321C117.006 980.054 116.108 979.686 115.182 979.347C110.968 977.802 109.744 977.307 105.368 975.407C102.783 974.278 100.117 973.021 100.036 972.894C99.9836 972.811 98.2468 972.089 97.9931 972.049C97.4854 971.955 97.0965 972.2 96.374 973.072C94.4567 975.373 90.0755 980.854 88.7487 982.606C86.1697 986.018 84.5814 988.468 83.0053 991.486C80.0891 997.078 78.9649 1001.58 79.4778 1005.65C79.8655 1008.75 81.0568 1011.17 83.0198 1012.85C83.8887 1013.6 85.0834 1014.31 86.1969 1014.75Z" fill="#E3AFD1"/>
<path d="M103.622 970.165C104.098 970.366 106.221 971.237 108.347 972.102C110.477 972.961 112.759 973.904 113.428 974.194C114.094 974.49 115.197 974.967 115.88 975.272C118.235 976.301 118.84 976.43 119.419 976.005C119.65 975.832 119.92 975.29 120.032 974.747C120.298 973.504 121.001 968.971 121.204 967.191C121.928 960.852 121.406 956.868 119.534 954.307C117.388 951.372 113.739 950.224 110.211 951.376C108.191 952.033 106.111 953.504 104.674 955.288C103.923 956.217 103.546 956.815 102.916 958.078L102.327 959.261L101.248 963.334C100.537 966.02 100.173 967.517 100.173 967.733C100.171 968.214 100.298 968.364 101.201 968.893C102.528 969.67 102.739 969.782 103.622 970.165Z" fill="#E3AFD1"/>
<path d="M47.4353 1047.97C43.869 1047.4 40.7375 1045.37 38.1756 1041.98C34.4683 1037.08 32.7719 1031.45 32.5272 1023.25C32.4827 1021.89 32.7416 1018.02 32.9691 1016.56C33.4555 1013.48 34.0511 1010.68 35.2741 1005.8C35.5455 1004.72 35.8354 1003.66 35.9223 1003.44C36.1209 1002.92 36.3756 1002.62 36.7307 1002.44C36.9922 1002.31 37.0698 1002.31 37.9761 1002.38C38.5742 1002.43 39.5337 1002.57 40.5034 1002.74C44.918 1003.56 46.2225 1003.76 50.957 1004.35C53.7571 1004.69 56.6914 1004.97 56.8256 1004.9C56.9129 1004.85 58.7751 1005.12 59.0139 1005.21C59.4989 1005.39 59.7087 1005.8 59.8869 1006.92C60.3662 1009.87 61.3473 1016.82 61.5976 1019.01C62.081 1023.25 62.201 1026.17 62.0214 1029.57C61.6853 1035.87 60.3641 1040.31 57.8491 1043.56C55.9395 1046.03 53.6806 1047.51 51.1337 1047.96C50.0077 1048.15 48.6177 1048.16 47.4353 1047.97Z" fill="#E3AFD1"/>
<path d="M55.1281 1000.73C54.616 1000.66 52.345 1000.32 50.0745 999.987C47.8045 999.643 45.3603 999.293 44.6364 999.202C43.912 999.118 42.7205 998.967 41.9768 998.882C39.4265 998.569 38.8395 998.372 38.5573 997.712C38.4472 997.445 38.4906 996.841 38.6704 996.317C39.0738 995.111 40.7761 990.851 41.5076 989.216C44.111 983.392 46.5878 980.228 49.5025 978.976C52.8441 977.542 56.5697 978.411 59.0197 981.199C60.4242 982.793 61.466 985.117 61.7945 987.384C61.9681 988.566 61.9885 989.272 61.8873 990.681L61.7926 991.999L60.648 996.054C59.8935 998.727 59.445 1000.2 59.3347 1000.39C59.0915 1000.8 58.9059 1000.87 57.859 1000.86C56.3211 1000.86 56.0826 1000.85 55.1281 1000.73Z" fill="#E3AFD1"/>
<path d="M75.3166 1113.13C78.9272 1113.08 82.3166 1111.52 85.3368 1108.53C89.7067 1104.21 92.1904 1098.88 93.6049 1090.8C93.8434 1089.46 94.1408 1085.59 94.124 1084.12C94.083 1081 93.894 1078.14 93.3807 1073.14C93.2663 1072.03 93.1317 1070.94 93.0771 1070.71C92.9542 1070.17 92.7458 1069.83 92.4193 1069.61C92.1791 1069.44 92.1024 1069.43 91.1952 1069.37C90.5971 1069.33 89.6274 1069.33 88.642 1069.37C84.1563 1069.54 82.8369 1069.55 78.0665 1069.46C75.246 1069.4 72.3024 1069.25 72.1794 1069.17C72.0995 1069.11 70.2188 1069.1 69.9689 1069.16C69.4635 1069.27 69.1974 1069.64 68.8612 1070.72C67.9642 1073.58 65.9999 1080.32 65.44 1082.44C64.3542 1086.58 63.8183 1089.45 63.5101 1092.84C62.9424 1099.12 63.6149 1103.71 65.6401 1107.28C67.1774 1110 69.2016 1111.78 71.6579 1112.59C72.7442 1112.95 74.1194 1113.15 75.3166 1113.13Z" fill="#E3AFD1"/>
<path d="M74.4562 1065.28C74.973 1065.28 77.268 1065.28 79.5634 1065.27C81.8594 1065.25 84.3285 1065.26 85.0579 1065.27C85.7869 1065.29 86.9877 1065.31 87.736 1065.33C90.3048 1065.39 90.9139 1065.28 91.2876 1064.66C91.4347 1064.42 91.4782 1063.81 91.375 1063.27C91.1482 1062.02 90.0723 1057.56 89.582 1055.83C87.838 1049.7 85.8389 1046.21 83.133 1044.56C80.0308 1042.66 76.2193 1042.99 73.3959 1045.39C71.778 1046.77 70.4146 1048.92 69.7655 1051.12C69.4246 1052.26 69.3035 1052.96 69.2024 1054.37L69.1076 1055.69L69.6608 1059.86C70.0253 1062.62 70.2585 1064.14 70.3411 1064.34C70.5224 1064.79 70.6969 1064.88 71.7337 1065.02C73.2568 1065.24 73.4943 1065.26 74.4562 1065.28Z" fill="#E3AFD1"/>
<path d="M36.2066 1160.8C32.6105 1161.13 29.0765 1159.93 25.7603 1157.28C20.9625 1153.44 17.9351 1148.4 15.6831 1140.51C15.3057 1139.2 14.6051 1135.38 14.4676 1133.91C14.1822 1130.81 14.0713 1127.94 14.0588 1122.92C14.0567 1121.8 14.076 1120.7 14.1062 1120.46C14.1721 1119.92 14.344 1119.56 14.6453 1119.3C14.8668 1119.11 14.9418 1119.09 15.8379 1118.94C16.4282 1118.83 17.3928 1118.73 18.3768 1118.67C22.8564 1118.37 24.1693 1118.24 28.9042 1117.66C31.7029 1117.3 34.6149 1116.85 34.7283 1116.75C34.8018 1116.68 36.6715 1116.48 36.9263 1116.51C37.4399 1116.57 37.7438 1116.91 38.1913 1117.95C39.3821 1120.7 42.0402 1127.19 42.8193 1129.25C44.3318 1133.25 45.1649 1136.05 45.8261 1139.39C47.0476 1145.57 46.8584 1150.21 45.2178 1153.97C43.9729 1156.83 42.1468 1158.82 39.7886 1159.88C38.7456 1160.35 37.399 1160.69 36.2066 1160.8Z" fill="#E3AFD1"/>
<path d="M32.0572 1113.12C31.5437 1113.18 29.261 1113.41 26.9771 1113.64C24.6921 1113.87 22.2368 1114.13 21.5128 1114.22C20.7899 1114.32 19.598 1114.46 18.856 1114.56C16.3071 1114.89 15.6897 1114.84 15.2539 1114.27C15.0816 1114.04 14.9752 1113.44 15.0209 1112.89C15.1157 1111.62 15.7192 1107.07 16.0267 1105.31C17.1193 1099.02 18.7429 1095.35 21.2609 1093.42C24.1477 1091.21 27.9725 1091.13 31.0323 1093.23C32.7854 1094.43 34.3663 1096.43 35.2415 1098.55C35.7003 1099.65 35.8935 1100.33 36.1415 1101.72L36.3735 1103.02L36.2602 1107.23C36.1857 1110.01 36.1131 1111.55 36.0518 1111.76C35.9182 1112.22 35.7541 1112.33 34.7383 1112.58C33.2457 1112.95 33.012 1113 32.0572 1113.12Z" fill="#E3AFD1"/>
<path d="M95.1067 1206.13C98.3604 1204.56 100.778 1201.72 102.259 1197.74C104.404 1191.98 104.413 1186.1 102.294 1178.17C101.946 1176.85 100.586 1173.22 99.9502 1171.89C98.6001 1169.08 97.2255 1166.56 94.6544 1162.24C94.0845 1161.29 93.5012 1160.35 93.3548 1160.16C93.0164 1159.73 92.685 1159.51 92.2946 1159.44C92.0069 1159.39 91.9323 1159.41 91.0846 1159.74C90.5241 1159.96 89.6451 1160.37 88.7677 1160.82C84.7727 1162.86 83.5797 1163.43 79.2144 1165.35C76.6306 1166.49 73.8988 1167.59 73.7508 1167.57C73.6541 1167.55 71.9458 1168.33 71.7442 1168.49C71.3304 1168.8 71.247 1169.25 71.3971 1170.38C71.7865 1173.35 72.8409 1180.28 73.2277 1182.45C73.9843 1186.66 74.7066 1189.48 75.8545 1192.69C77.984 1198.63 80.5247 1202.5 83.8653 1204.89C86.4029 1206.71 88.9914 1207.48 91.5604 1207.18C92.6956 1207.04 94.0282 1206.65 95.1067 1206.13Z" fill="#E3AFD1"/>
<path d="M74.1786 1163.08C74.6494 1162.87 76.7297 1161.9 78.8078 1160.92C80.8836 1159.94 83.1244 1158.9 83.7918 1158.61C84.4615 1158.32 85.5598 1157.83 86.2476 1157.54C88.6009 1156.51 89.1065 1156.15 89.1874 1155.44C89.2164 1155.15 89.0013 1154.58 88.6788 1154.13C87.9464 1153.09 85.0929 1149.5 83.923 1148.14C79.7575 1143.31 76.4768 1140.99 73.3255 1140.63C69.7129 1140.22 66.3935 1142.12 64.8466 1145.49C63.9586 1147.42 63.6278 1149.95 63.9637 1152.21C64.1368 1153.39 64.3199 1154.08 64.821 1155.4L65.2901 1156.63L67.5503 1160.19C69.0404 1162.53 69.893 1163.82 70.0521 1163.96C70.4043 1164.29 70.6005 1164.3 71.6022 1163.99C73.0734 1163.55 73.2988 1163.47 74.1786 1163.08Z" fill="#E3AFD1"/>
<path d="M65.2621 1272.45C61.7134 1273.11 58.0815 1272.26 54.5272 1269.93C49.3853 1266.56 45.8914 1261.84 42.8979 1254.2C42.3976 1252.93 41.3365 1249.2 41.0597 1247.75C40.4797 1244.68 40.0966 1241.84 39.605 1236.84C39.497 1235.73 39.411 1234.63 39.4187 1234.4C39.432 1233.84 39.569 1233.47 39.8444 1233.19C40.0468 1232.98 40.1196 1232.95 40.997 1232.71C41.5746 1232.55 42.5253 1232.36 43.4987 1232.2C47.9298 1231.48 49.2245 1231.23 53.8816 1230.19C56.6338 1229.57 59.4893 1228.84 59.5928 1228.73C59.6596 1228.66 61.5016 1228.28 61.7583 1228.29C62.2747 1228.29 62.6101 1228.61 63.1546 1229.6C64.6019 1232.22 67.8667 1238.43 68.838 1240.4C70.7248 1244.24 71.8208 1246.95 72.7973 1250.21C74.6026 1256.25 74.8557 1260.88 73.5811 1264.78C72.6146 1267.75 70.9863 1269.91 68.7401 1271.19C67.7463 1271.75 66.4387 1272.22 65.2621 1272.45Z" fill="#E3AFD1"/>
<path d="M56.5879 1225.37C56.0824 1225.48 53.8326 1225.93 51.5811 1226.38C49.3278 1226.82 46.9086 1227.31 46.1964 1227.47C45.486 1227.64 44.3135 1227.9 43.5844 1228.07C41.0779 1228.63 40.4588 1228.64 39.9706 1228.12C39.7771 1227.9 39.6144 1227.32 39.6073 1226.77C39.5808 1225.5 39.7482 1220.91 39.8863 1219.13C40.375 1212.76 41.641 1208.95 43.9636 1206.79C46.6266 1204.31 50.4271 1203.88 53.673 1205.68C55.5326 1206.7 57.2966 1208.54 58.3695 1210.57C58.9313 1211.62 59.1884 1212.28 59.5677 1213.64L59.9227 1214.91L60.2111 1219.11C60.4016 1221.89 60.4759 1223.42 60.4347 1223.64C60.3458 1224.11 60.1927 1224.23 59.2056 1224.58C57.7552 1225.09 57.5271 1225.16 56.5879 1225.37Z" fill="#E3AFD1"/>
<path d="M122.7 1323.91C126.084 1322.65 128.753 1320.04 130.595 1316.21C133.262 1310.68 133.813 1304.82 132.434 1296.74C132.209 1295.39 131.19 1291.65 130.679 1290.26C129.594 1287.34 128.457 1284.71 126.295 1280.17C125.816 1279.17 125.321 1278.18 125.193 1277.98C124.896 1277.52 124.586 1277.27 124.204 1277.17C123.922 1277.09 123.845 1277.1 122.971 1277.35C122.393 1277.51 121.48 1277.84 120.565 1278.21C116.398 1279.88 115.159 1280.33 110.634 1281.84C107.957 1282.73 105.135 1283.58 104.99 1283.54C104.895 1283.52 103.122 1284.14 102.906 1284.28C102.466 1284.55 102.341 1284.99 102.387 1286.13C102.501 1289.12 102.911 1296.12 103.097 1298.31C103.462 1302.57 103.921 1305.46 104.768 1308.76C106.341 1314.86 108.514 1318.96 111.62 1321.64C113.98 1323.68 116.486 1324.69 119.072 1324.63C120.215 1324.6 121.578 1324.33 122.7 1323.91Z" fill="#E3AFD1"/>
<path d="M105.83 1279.12C106.318 1278.95 108.479 1278.17 110.638 1277.39C112.795 1276.61 115.122 1275.78 115.814 1275.55C116.507 1275.32 117.646 1274.94 118.358 1274.71C120.796 1273.9 121.333 1273.59 121.479 1272.89C121.534 1272.61 121.373 1272.02 121.093 1271.54C120.459 1270.44 117.949 1266.6 116.909 1265.14C113.207 1259.95 110.154 1257.34 107.05 1256.68C103.491 1255.94 100.01 1257.53 98.1588 1260.74C97.0967 1262.58 96.5344 1265.07 96.6601 1267.35C96.7234 1268.55 96.8428 1269.24 97.2201 1270.6L97.5733 1271.88L99.496 1275.63C100.764 1278.1 101.494 1279.45 101.639 1279.61C101.96 1279.97 102.154 1280 103.18 1279.79C104.686 1279.48 104.918 1279.42 105.83 1279.12Z" fill="#E3AFD1"/>
</svg>
