<svg width="1360" height="172" viewBox="0 0 1360 172" fill="none" xmlns="http://www.w3.org/2000/svg">
<path d="M0 59.2416V33.6262H74.0346V59.2416H0ZM44.6423 130.673C35.4791 130.673 28.2911 128.067 23.0784 122.854C17.8657 117.641 15.2594 110.504 15.2594 101.442V10.4531H47.8513V98.9899C47.8363 99.6447 47.963 100.295 48.2228 100.896C48.4826 101.498 48.8693 102.036 49.3564 102.473C50.315 103.399 51.6021 103.907 52.9346 103.884H74.0346V130.673H44.6423Z" fill="#B02785"/>
<path d="M82.3555 130.674V62.8205C82.3555 53.7835 84.9492 46.6587 90.1366 41.446C95.3241 36.2333 102.581 33.627 111.909 33.627H141.49V59.2423H121.706C120.803 59.196 119.9 59.3399 119.056 59.6647C118.212 59.9895 117.446 60.488 116.807 61.1279C116.168 61.7678 115.671 62.5348 115.347 63.3791C115.023 64.2235 114.881 65.1265 114.928 66.0295V130.674H82.3555Z" fill="#B02785"/>
<path d="M185.735 133.087C177.813 133.192 170.04 130.927 163.414 126.584C156.806 122.242 151.5 116.19 148.06 109.071C144.412 101.726 142.591 93.2061 142.598 83.5127C142.445 74.1112 144.728 64.8302 149.224 56.5721C153.543 48.7351 160.013 42.2972 167.872 38.0185C175.9 33.601 185.318 31.3733 196.129 31.3354C206.939 31.2976 216.191 33.4874 223.883 37.9049C231.473 42.1068 237.711 48.3809 241.869 55.9947C246.135 63.7191 248.271 72.5541 248.278 82.4999V130.673H216.822V115.527H215.875C214.26 118.899 212.061 121.96 209.381 124.567C206.542 127.293 203.176 129.409 199.489 130.787C195.085 132.393 190.422 133.173 185.735 133.087ZM195.532 104.641C199.158 104.723 202.727 103.733 205.793 101.797C208.859 99.8608 211.286 97.0635 212.77 93.7551C214.384 90.1419 215.188 86.2198 215.127 82.2632C215.215 78.3792 214.374 74.5303 212.676 71.0364C211.113 67.9221 208.776 65.2621 205.888 63.312C202.813 61.308 199.201 60.2877 195.532 60.387C191.906 60.3172 188.337 61.3039 185.262 63.2268C182.304 65.1206 179.926 67.7934 178.389 70.9512C176.696 74.4739 175.856 78.346 175.937 82.2538C175.869 86.2242 176.707 90.1579 178.389 93.7551C179.916 97.0241 182.33 99.7988 185.356 101.763C188.394 103.697 191.932 104.697 195.532 104.641Z" fill="#B02785"/>
<path d="M259.77 130.673V74.8799C259.652 67.0104 261.772 59.2694 265.885 52.5588C270.108 45.8552 276.108 40.4549 283.217 36.9586C290.67 33.1027 299.445 31.1748 309.542 31.1748C319.64 31.1748 328.289 33.1027 335.489 36.9586C342.417 40.4596 348.195 45.8736 352.14 52.5588C356.021 59.3499 358.005 67.0591 357.886 74.8799V130.673H325.322V76.3851C325.336 73.5512 324.622 70.7613 323.249 68.282C321.911 65.817 319.924 63.7647 317.503 62.3468C314.954 60.8821 312.056 60.1362 309.116 60.1885C306.197 60.1241 303.314 60.8403 300.765 62.2632C298.215 63.6861 296.092 65.7639 294.614 68.282C293.199 70.7456 292.47 73.5439 292.503 76.3851V130.673H259.77Z" fill="#B02785"/>
<path d="M369.586 130.673V106.336H415.563C416.648 106.379 417.723 106.12 418.668 105.588C419.494 105.077 420.175 104.363 420.647 103.515C421.144 102.651 421.405 101.672 421.404 100.675C421.385 99.733 421.088 98.8176 420.552 98.0433C420.026 97.2047 419.317 96.496 418.479 95.9702C417.66 95.4653 416.715 95.2028 415.753 95.2129H399.916C393.992 95.3019 388.107 94.2477 382.583 92.108C377.561 90.1377 373.282 86.6457 370.344 82.1213C367.327 77.5397 365.819 71.5445 365.819 64.1356C365.777 58.7684 367.212 53.4931 369.965 48.8857C372.758 44.1925 376.734 40.3137 381.494 37.6362C386.254 34.9588 391.633 33.5762 397.095 33.6263H445.126V57.9259H403.475C402.791 57.9015 402.11 58.0231 401.476 58.2826C400.843 58.5422 400.272 58.9336 399.802 59.431C398.88 60.3918 398.373 61.6774 398.392 63.0092C398.345 64.4079 398.851 65.7686 399.802 66.7956C400.272 67.293 400.843 67.6844 401.476 67.944C402.11 68.2035 402.791 68.3251 403.475 68.3007H418.545C424.888 68.1538 431.196 69.2771 437.099 71.6044C442.096 73.6206 446.344 77.1403 449.253 81.6764C452.144 86.2012 453.589 92.168 453.589 99.5768C453.634 105.06 452.132 110.444 449.253 115.111C446.401 119.791 442.416 123.678 437.667 126.413C432.726 129.276 427.103 130.748 421.394 130.673H369.586Z" fill="#B02785"/>
<path d="M513.32 31.1746C520.806 31.0636 528.247 32.3477 535.262 34.961C541.543 37.3547 547.23 41.0816 551.932 45.885C556.573 50.6497 560.196 56.3083 562.582 62.517C565.093 69.2317 566.338 76.3537 566.254 83.5223C566.254 93.3229 564.276 101.928 560.319 109.336C556.57 116.522 550.892 122.52 543.924 126.659C536.638 130.89 528.332 133.041 519.908 132.879C516.479 132.905 513.061 132.482 509.742 131.62C506.606 130.799 503.617 129.496 500.881 127.758C498.229 126.049 495.875 123.916 493.914 121.444H493.185V171.179H460.575V83.9199C460.575 73.2547 462.739 63.9937 467.068 56.1368C471.327 48.3653 477.736 41.9861 485.527 37.763C493.51 33.3707 502.775 31.1746 513.32 31.1746ZM513.32 59.6203C509.717 59.5683 506.179 60.5756 503.144 62.517C500.147 64.4476 497.763 67.1929 496.271 70.4306C494.636 74.07 493.83 78.0279 493.914 82.0172C493.848 85.8524 494.654 89.6526 496.271 93.1304C497.782 96.3308 500.164 99.0408 503.144 100.949C506.175 102.902 509.715 103.916 513.32 103.865C517.004 103.95 520.629 102.935 523.733 100.949C526.688 98.9953 529.039 96.2544 530.52 93.0358C532.136 89.595 532.963 85.8373 532.943 82.0361C533.028 78.0378 532.192 74.0735 530.501 70.4496C528.97 67.2468 526.614 64.509 523.676 62.517C520.596 60.5267 516.985 59.5168 513.32 59.6203Z" fill="#B02785"/>
<path d="M614.286 133.087C606.363 133.195 598.589 130.93 591.965 126.584C585.357 122.242 580.051 116.19 576.611 109.071C572.969 101.726 571.149 93.206 571.149 83.5127C571 74.1116 573.283 64.8317 577.775 56.5721C582.086 48.7559 588.535 42.3299 596.366 38.0469C604.394 33.6293 613.812 31.4016 624.623 31.3638C635.433 31.3259 644.704 33.5063 652.434 37.9049C660.024 42.1068 666.262 48.3808 670.42 55.9946C674.692 63.6874 676.829 72.4878 676.829 82.3957V130.673H645.373V115.527H644.426C642.807 118.9 640.606 121.96 637.923 124.567C635.089 127.295 631.725 129.411 628.04 130.787C623.636 132.393 618.973 133.173 614.286 133.087ZM624.083 104.641C627.709 104.722 631.277 103.733 634.343 101.797C637.409 99.8607 639.836 97.0634 641.321 93.755C642.947 90.1317 643.758 86.196 643.697 82.2253C643.773 78.3524 642.926 74.5172 641.226 71.0363C639.664 67.9221 637.327 65.2621 634.439 63.312C631.364 61.3079 627.752 60.2876 624.083 60.3869C620.456 60.3155 616.887 61.3023 613.812 63.2268C610.853 65.1179 608.474 67.7914 606.94 70.9511C605.247 74.4738 604.407 78.3459 604.488 82.2537C604.42 86.2241 605.258 90.1578 606.94 93.755C608.467 97.024 610.881 99.7987 613.907 101.763C616.945 103.697 620.483 104.697 624.083 104.641Z" fill="#B02785"/>
<path d="M740.687 31.1746C748.173 31.0636 755.614 32.3477 762.629 34.961C768.91 37.3547 774.597 41.0816 779.299 45.885C783.94 50.6497 787.563 56.3083 789.948 62.517C792.46 69.2317 793.705 76.3537 793.621 83.5223C793.621 93.3229 791.643 101.928 787.686 109.336C783.936 116.522 778.259 122.52 771.291 126.659C764.005 130.89 755.698 133.041 747.275 132.879C743.846 132.905 740.428 132.482 737.108 131.62C733.973 130.799 730.984 129.496 728.248 127.758C725.596 126.049 723.242 123.916 721.281 121.444H720.524V171.179H687.941V83.9199C687.941 73.2547 690.106 63.9937 694.435 56.1368C698.695 48.3627 705.108 41.9829 712.904 37.763C720.874 33.3707 730.135 31.1746 740.687 31.1746ZM740.687 59.6203C737.084 59.5683 733.546 60.5756 730.511 62.517C727.516 64.4504 725.133 67.1949 723.638 70.4306C722.013 74.0788 721.22 78.0434 721.319 82.0361C721.252 85.8713 722.058 89.6715 723.676 93.1494C725.191 96.3467 727.572 99.0554 730.548 100.968C733.58 102.921 737.12 103.935 740.725 103.884C744.408 103.969 748.034 102.954 751.137 100.968C754.096 99.0177 756.447 96.2758 757.924 93.0547C759.517 89.6022 760.319 85.8379 760.272 82.0361C760.357 78.0378 759.521 74.0735 757.83 70.4496C756.309 67.2514 753.967 64.514 751.043 62.517C747.963 60.5267 744.352 59.5168 740.687 59.6203Z" fill="#B02785"/>
<path d="M854.271 130.673C843.347 130.673 833.71 128.726 825.361 124.833C817.358 121.243 810.533 115.464 805.672 108.163C800.901 100.937 798.515 92.3038 798.515 82.2633C798.515 71.2195 800.806 61.9585 805.388 54.4802C809.799 47.1683 816.162 41.2315 823.762 37.3371C831.323 33.4032 839.727 31.3663 848.25 31.4018C857.792 31.4018 866.078 33.3802 873.108 37.3371C880.025 41.1767 885.686 46.9324 889.409 53.9123C893.233 61.0119 895.149 69.3957 895.155 79.0638C895.155 80.957 895.06 83.2005 894.871 85.8415C894.74 88.0673 894.456 90.2814 894.019 92.4678H832.423C832.884 95.0263 834.096 97.3893 835.907 99.255C837.816 101.193 840.183 102.619 842.788 103.401C845.841 104.323 849.019 104.767 852.207 104.717H884.6V130.673H854.271ZM831.126 73.3746H864.258C864.277 71.6232 864.054 69.8776 863.595 68.1872C863.14 66.595 862.403 65.0975 861.418 63.7665C860.48 62.4604 859.369 61.2884 858.114 60.283C856.834 59.2848 855.389 58.5191 853.845 58.0206C851.988 57.4284 850.048 57.1407 848.099 57.1686C845.715 57.1202 843.346 57.5382 841.122 58.3992C839.186 59.1613 837.448 60.3523 836.039 61.8828C834.647 63.4027 833.532 65.1553 832.745 67.0607C831.899 69.0749 831.354 71.2022 831.126 73.3746Z" fill="#B02785"/>
<path d="M903.069 130.674V1.00488H935.85V130.674H903.069Z" fill="#B02785"/>
<path d="M987.071 133.087C979.149 133.192 971.376 130.927 964.75 126.584C958.145 122.239 952.839 116.188 949.396 109.071C945.748 101.726 943.928 93.2061 943.934 83.5128C943.781 74.1112 946.064 64.8302 950.56 56.5722C954.881 48.737 961.352 42.2998 969.209 38.0185C977.242 33.601 986.661 31.3733 997.465 31.3354C1008.27 31.2976 1017.51 33.4874 1025.18 37.9049C1032.77 42.1077 1039.01 48.3815 1043.17 55.9947C1047.54 64.1353 1049.74 73.2624 1049.57 82.4999V130.673H1018.11V115.527H1017.16C1015.55 118.899 1013.35 121.96 1010.67 124.567C1007.83 127.293 1004.46 129.409 1000.78 130.787C996.389 132.389 991.743 133.169 987.071 133.087ZM996.869 104.641C1000.49 104.726 1004.07 103.739 1007.13 101.802C1010.2 99.8652 1012.62 97.0658 1014.11 93.7551C1015.72 90.1434 1016.53 86.2203 1016.46 82.2632C1016.55 78.3792 1015.71 74.5303 1014.01 71.0364C1012.46 67.9206 1010.12 65.2598 1007.23 63.312C1004.14 61.2985 1000.51 60.2779 996.821 60.387C993.197 60.3158 989.631 61.3027 986.56 63.2268C983.599 65.12 981.218 67.7927 979.678 70.9512C977.992 74.4762 977.156 78.3472 977.236 82.2538C977.189 86.2281 978.047 90.161 979.744 93.7551C981.275 97.0247 983.692 99.7994 986.721 101.763C989.749 103.694 993.277 104.695 996.869 104.641Z" fill="#B02785"/>
<g filter="url(#filter0_d_1465_30850)">
<path d="M1110.84 133.087C1103.34 133.208 1095.89 131.897 1088.89 129.225C1082.63 126.785 1076.95 123.064 1072.22 118.301C1067.55 113.55 1063.92 107.871 1061.58 101.631C1059.08 94.9461 1057.83 87.8573 1057.91 80.7205C1057.91 70.8 1059.91 62.1353 1063.93 54.7265C1067.73 47.539 1073.48 41.5657 1080.51 37.4887C1087.73 33.3563 1095.93 31.2409 1104.24 31.3641C1107.7 31.3428 1111.15 31.753 1114.51 32.5852C1117.64 33.3825 1120.63 34.6598 1123.36 36.3717C1126.03 38.0189 1128.36 40.1433 1130.26 42.6382H1131.01V0H1163.79V80.3419C1163.79 90.8871 1161.58 100.117 1157.16 108.03C1152.89 115.814 1146.48 122.217 1138.7 126.489C1130.8 130.894 1121.51 133.093 1110.84 133.087ZM1110.84 104.452C1114.51 104.531 1118.13 103.545 1121.25 101.612C1124.24 99.6907 1126.59 96.9402 1128.03 93.6986C1129.65 90.0868 1130.45 86.1637 1130.39 82.2067C1130.46 78.3471 1129.63 74.5242 1127.97 71.0366C1126.48 67.8572 1124.13 65.1519 1121.2 63.2176C1118.08 61.3645 1114.51 60.3865 1110.88 60.3865C1107.25 60.3865 1103.69 61.3645 1100.57 63.2176C1097.59 65.1283 1095.21 67.8376 1093.7 71.0366C1092.02 74.5326 1091.19 78.3692 1091.25 82.2445C1091.18 86.2181 1092.01 90.1552 1093.7 93.7554C1095.18 97.0363 1097.59 99.8062 1100.65 101.716C1103.7 103.626 1107.24 104.592 1110.84 104.49V104.452Z" fill="#B02785"/>
</g>
<path d="M1227.07 130.673C1216.14 130.673 1206.5 128.726 1198.15 124.832C1190.15 121.239 1183.33 115.461 1178.47 108.162C1173.68 100.937 1171.3 92.3035 1171.3 82.2631C1171.3 71.2193 1173.6 61.9582 1178.18 54.48C1182.58 47.1587 1188.93 41.2086 1196.52 37.299C1204.08 33.3662 1212.48 31.3293 1221.01 31.3637C1230.55 31.3637 1238.84 33.3421 1245.88 37.299C1252.79 41.1391 1258.45 46.895 1262.17 53.8742C1266 60.9738 1267.91 69.3576 1267.91 79.0257C1267.91 80.9189 1267.82 83.1624 1267.63 85.8034C1267.5 88.0289 1267.22 90.2429 1266.79 92.4297H1205.18C1205.64 94.9902 1206.86 97.3541 1208.67 99.2169C1210.58 101.155 1212.94 102.581 1215.55 103.363C1218.6 104.284 1221.78 104.728 1224.97 104.679H1257.37V130.673H1227.07ZM1203.89 73.4123H1237.02C1237.04 71.6616 1236.82 69.9166 1236.37 68.2248C1235.92 66.6349 1235.18 65.1383 1234.2 63.8041C1233.27 62.4961 1232.16 61.3237 1230.91 60.3206C1229.61 59.3184 1228.14 58.5527 1226.57 58.0582C1224.72 57.4647 1222.78 57.177 1220.83 57.2062C1218.45 57.1586 1216.08 57.5766 1213.86 58.4368C1211.92 59.1965 1210.18 60.3877 1208.77 61.9204C1207.38 63.4403 1206.26 65.1929 1205.47 67.0983C1204.65 69.1039 1204.12 71.2175 1203.89 73.3744V73.4123Z" fill="#B02785"/>
<path d="M1276.03 130.673V106.336H1322C1323.09 106.38 1324.16 106.121 1325.11 105.588C1325.94 105.066 1326.62 104.343 1327.1 103.486C1327.58 102.629 1327.83 101.666 1327.84 100.685C1327.82 99.7428 1327.53 98.8275 1326.99 98.0531C1326.47 97.2106 1325.76 96.5008 1324.92 95.98C1324.1 95.4752 1323.15 95.2126 1322.19 95.2228H1306.33C1300.41 95.3127 1294.52 94.2584 1289 92.1179C1283.98 90.1503 1279.69 86.6579 1276.75 82.1311C1273.74 77.5495 1272.24 71.5543 1272.23 64.1454C1272.19 58.7782 1273.62 53.5029 1276.38 48.8955C1279.17 44.2023 1283.14 40.3235 1287.9 37.646C1292.66 34.9685 1298.04 33.5859 1303.51 33.6361H1351.54V57.9262H1309.89C1309.2 57.9018 1308.52 58.0234 1307.89 58.283C1307.25 58.5425 1306.68 58.934 1306.21 59.4313C1305.29 60.3922 1304.78 61.6777 1304.8 63.0095C1304.76 64.4082 1305.26 65.769 1306.21 66.796C1306.68 67.2933 1307.25 67.6848 1307.89 67.9443C1308.52 68.2038 1309.2 68.3254 1309.89 68.3011H1324.96C1331.3 68.1542 1337.61 69.2774 1343.52 71.6048C1348.51 73.6243 1352.76 77.1434 1355.66 81.6767C1358.55 86.2015 1360 92.1684 1360 99.5772C1360.04 105.06 1358.54 110.444 1355.66 115.111C1352.81 119.791 1348.83 123.678 1344.08 126.414C1339.13 129.273 1333.5 130.738 1327.79 130.655L1276.03 130.673Z" fill="#B02785"/>
<defs>
<filter id="filter0_d_1465_30850" x="1053.9" y="0" width="113.882" height="141.095" filterUnits="userSpaceOnUse" color-interpolation-filters="sRGB">
<feFlood flood-opacity="0" result="BackgroundImageFix"/>
<feColorMatrix in="SourceAlpha" type="matrix" values="0 0 0 0 0 0 0 0 0 0 0 0 0 0 0 0 0 0 127 0" result="hardAlpha"/>
<feOffset dy="4"/>
<feGaussianBlur stdDeviation="2"/>
<feComposite in2="hardAlpha" operator="out"/>
<feColorMatrix type="matrix" values="0 0 0 0 0 0 0 0 0 0 0 0 0 0 0 0 0 0 0.25 0"/>
<feBlend mode="normal" in2="BackgroundImageFix" result="effect1_dropShadow_1465_30850"/>
<feBlend mode="normal" in="SourceGraphic" in2="effect1_dropShadow_1465_30850" result="shape"/>
</filter>
</defs>
</svg>
